<mxfile host="Electron" modified="2025-05-10T19:57:51.598Z" agent="Mozilla/5.0 (Macintosh; Intel Mac OS X 10_15_7) AppleWebKit/537.36 (KHTML, like Gecko) draw.io/21.6.1 Chrome/112.0.5615.204 Electron/24.6.1 Safari/537.36" etag="ao6q3VbrUsaU08FcIa9k" version="21.6.1" type="device">
  <diagram name="arch" id="XNF7kIzbeN3CcpmHP8I1">
    <mxGraphModel dx="954" dy="604" grid="1" gridSize="10" guides="1" tooltips="1" connect="1" arrows="1" fold="1" page="1" pageScale="1" pageWidth="1000" pageHeight="1000" math="0" shadow="0">
      <root>
        <mxCell id="0" />
        <mxCell id="1" parent="0" />
        <mxCell id="76_v_Vn0byet2OxlEZTQ-12" value="" style="rounded=0;whiteSpace=wrap;html=1;fillColor=#d5e8d4;strokeColor=#82b366;" vertex="1" parent="1">
          <mxGeometry x="140" y="400" width="540" height="60" as="geometry" />
        </mxCell>
        <mxCell id="76_v_Vn0byet2OxlEZTQ-1" value="" style="rounded=0;whiteSpace=wrap;html=1;fillColor=#dae8fc;strokeColor=#6c8ebf;" vertex="1" parent="1">
          <mxGeometry x="140" y="260" width="160" height="130" as="geometry" />
        </mxCell>
        <mxCell id="38Sl-M3tA-JPdWPSbvjk-1" value="" style="rounded=0;whiteSpace=wrap;html=1;fillColor=#fff2cc;strokeColor=#d6b656;" parent="1" vertex="1">
          <mxGeometry x="320" y="260" width="360" height="130" as="geometry" />
        </mxCell>
        <mxCell id="38Sl-M3tA-JPdWPSbvjk-19" style="edgeStyle=orthogonalEdgeStyle;rounded=0;orthogonalLoop=1;jettySize=auto;html=1;entryX=0.5;entryY=0;entryDx=0;entryDy=0;" parent="1" source="38Sl-M3tA-JPdWPSbvjk-2" target="38Sl-M3tA-JPdWPSbvjk-4" edge="1">
          <mxGeometry relative="1" as="geometry" />
        </mxCell>
        <mxCell id="38Sl-M3tA-JPdWPSbvjk-2" value="client app" style="rounded=1;whiteSpace=wrap;html=1;" parent="1" vertex="1">
          <mxGeometry x="357.5" y="180" width="120" height="40" as="geometry" />
        </mxCell>
        <mxCell id="38Sl-M3tA-JPdWPSbvjk-20" style="edgeStyle=orthogonalEdgeStyle;rounded=0;orthogonalLoop=1;jettySize=auto;html=1;" parent="1" source="38Sl-M3tA-JPdWPSbvjk-3" target="38Sl-M3tA-JPdWPSbvjk-5" edge="1">
          <mxGeometry relative="1" as="geometry" />
        </mxCell>
        <mxCell id="38Sl-M3tA-JPdWPSbvjk-3" value="user" style="rounded=1;whiteSpace=wrap;html=1;" parent="1" vertex="1">
          <mxGeometry x="522.5" y="180" width="120" height="40" as="geometry" />
        </mxCell>
        <mxCell id="38Sl-M3tA-JPdWPSbvjk-18" style="edgeStyle=orthogonalEdgeStyle;rounded=0;orthogonalLoop=1;jettySize=auto;html=1;" parent="1" source="38Sl-M3tA-JPdWPSbvjk-4" target="38Sl-M3tA-JPdWPSbvjk-14" edge="1">
          <mxGeometry relative="1" as="geometry" />
        </mxCell>
        <mxCell id="38Sl-M3tA-JPdWPSbvjk-4" value="logmaster-client" style="rounded=0;whiteSpace=wrap;html=1;" parent="1" vertex="1">
          <mxGeometry x="345" y="276" width="145" height="40" as="geometry" />
        </mxCell>
        <mxCell id="38Sl-M3tA-JPdWPSbvjk-16" style="edgeStyle=orthogonalEdgeStyle;rounded=0;orthogonalLoop=1;jettySize=auto;html=1;exitX=1;exitY=0.5;exitDx=0;exitDy=0;entryX=1;entryY=0.5;entryDx=0;entryDy=0;" parent="1" source="38Sl-M3tA-JPdWPSbvjk-5" target="38Sl-M3tA-JPdWPSbvjk-15" edge="1">
          <mxGeometry relative="1" as="geometry">
            <Array as="points">
              <mxPoint x="700" y="296" />
              <mxPoint x="700" y="430" />
            </Array>
          </mxGeometry>
        </mxCell>
        <mxCell id="38Sl-M3tA-JPdWPSbvjk-5" value="logmaster-server" style="rounded=0;whiteSpace=wrap;html=1;" parent="1" vertex="1">
          <mxGeometry x="510" y="276" width="145" height="40" as="geometry" />
        </mxCell>
        <mxCell id="38Sl-M3tA-JPdWPSbvjk-6" value="logmaster-core" style="rounded=0;whiteSpace=wrap;html=1;" parent="1" vertex="1">
          <mxGeometry x="345" y="336" width="310" height="40" as="geometry" />
        </mxCell>
        <mxCell id="38Sl-M3tA-JPdWPSbvjk-17" style="edgeStyle=orthogonalEdgeStyle;rounded=0;orthogonalLoop=1;jettySize=auto;html=1;entryX=0;entryY=0.5;entryDx=0;entryDy=0;exitX=0.5;exitY=1;exitDx=0;exitDy=0;" parent="1" source="38Sl-M3tA-JPdWPSbvjk-13" target="38Sl-M3tA-JPdWPSbvjk-15" edge="1">
          <mxGeometry relative="1" as="geometry" />
        </mxCell>
        <mxCell id="38Sl-M3tA-JPdWPSbvjk-13" value="connect" style="rounded=1;whiteSpace=wrap;html=1;" parent="1" vertex="1">
          <mxGeometry x="160" y="336" width="120" height="40" as="geometry" />
        </mxCell>
        <mxCell id="38Sl-M3tA-JPdWPSbvjk-21" style="edgeStyle=orthogonalEdgeStyle;rounded=0;orthogonalLoop=1;jettySize=auto;html=1;" parent="1" source="38Sl-M3tA-JPdWPSbvjk-14" target="38Sl-M3tA-JPdWPSbvjk-13" edge="1">
          <mxGeometry relative="1" as="geometry" />
        </mxCell>
        <mxCell id="38Sl-M3tA-JPdWPSbvjk-14" value="broker" style="rounded=1;whiteSpace=wrap;html=1;" parent="1" vertex="1">
          <mxGeometry x="160" y="276" width="120" height="40" as="geometry" />
        </mxCell>
        <mxCell id="38Sl-M3tA-JPdWPSbvjk-15" value="logmaster-db" style="rounded=1;whiteSpace=wrap;html=1;" parent="1" vertex="1">
          <mxGeometry x="440" y="410" width="120" height="40" as="geometry" />
        </mxCell>
        <mxCell id="76_v_Vn0byet2OxlEZTQ-5" value="" style="shape=image;verticalLabelPosition=bottom;labelBackgroundColor=default;verticalAlign=top;aspect=fixed;imageAspect=0;image=data:image/png,iVBORw0KGgoAAAANSUhEUgAAAgAAAAIACAYAAAD0eNT6AAAABHNCSVQICAgIfAhkiAAAAAlwSFlzAAAOxAAADsQBlSsOGwAAABl0RVh0U29mdHdhcmUAd3d3Lmlua3NjYXBlLm9yZ5vuPBoAACAASURBVHic7H15oCRVdf53q9/sDPvmCq4guKNxF1RAVhWTGVkEt8hioglCIEZN2p1lAJNgVH5mc4kGYxaTgBFkBtnciGLExCVgWAaGRWBYhpn3us7vj/fmva665557by3dVV3n++O91+eec+/pr2+d73R11WsDhULRCBzQXzvVWzTYabHZstMg7W1verRtClpp0mQHmMG2lCYrTYJtQbTcGOxARAmM2Y6AKRBWgmgxgBVz020HIFmYnRIQtiPn6gQAm0F4ZMj4IAEzAAYGtHHO6xEAmwHcbwibiGiTMbgvhdlEwCMw9EAC2phS7z5DdF+K9Ne9xYP7XrHlx/f1+/20Sr4UCkU5mHEnoFBMMl539r+sfHSw9HFIsGtC5nFE6W5I8BiQ2R0wO4FoZ4B2ArALwAg0zf+wMG8lt6zPe5JrlqGZiLWKPgujZLkysz0A4D4AG0C4m4y5G6A7DcxdaUp3I6EN6QAbkl7vjnX9I+9xPx+FQlEFtAFQKArigP7aqcUrtjyhR+aJSM0eqaE9DPBEpHgigCcS8ESAlrPBZP1h66Yg/gvDZcV/wYdNb/hROfFfeMQ/0bzpUQO6lZCsJ5PeCpjbiGh9ArqFEvN/y7Dkpkv7h23kM1IoFCHQBkChEHBAf+3UNsunnzRIe08F0qcS8DQCPTWBeSqB9gSwKBOQ0UKnYlrOxcRf9pl1dGaxMFMJ8c88y+rEn5ud87kXoJsIuNkAN5HBTSalm2emBj+/ur/qVsD4uiOFotPQBkChwKzQr1gyeGJqzL4w2IeQ7muM2QdEzwCwvGLhgl/8HWsgTvxlr1aLf+YBM/UWGPwSoBsN4abUmJ/2YG6k3vTP1vVXP8RPrFB0C9oAKDqHA/prp5Yspb2SZLCfIbMfwewH0PMBLJv1GKtwudcAOiT+fh9nE+XjkHATAdcYQ9cnlF7/4KJl/3l9/8hHWGeFYoKhDYBionFAf+3Uim3oOUTpC0xq9iNDzyfgWQAWFxMu22dkwiUnlfUUP/e3xZ0Vf2cq5Ho6TmNMAyC2LiU/PnFwOAPgJzD0rQTJN5Y9sOyqS//8sM18AgrF5EAbAMVEYdXFF/cevGXH5yeD5AAg3R/GvBLAytnRiRMu3jNS/J1ZOZ+Kv0HIPGofhw+D6IrUmG8khi799kdX3+wJUChaCW0AFK1Gv99Pvrds/+cbkx5ACfYH4ZUgbMv5tlW4FobrFn+3z8JoJzn8Hgx9obdo5ivr+sfq7YmKiYE2AIrWYdXFF/cevWWXlwyIVgH4TQCPU+Ga9ZG9bGVrivhb87M+Y+dwAKK1ZMwXNi1e+g963YCi7dAGQNEKvO7sq1cOzOZDAHMUDA6j2f90N4dJFy7ZZ9Zxom/3g59DZ2J1cXivMfhMMo0L1527+k55YoWimdAGQNFY9Pv95LvbvOK1CSXvBOhQAEsBFS7bUTwHgfaL/8KDBnK4GcAXDXD+VZ9Y/VN5EYWiWdAGQNE4HHH+tx5H1Hs7KH0HCHsMjzVLuPw+zgZg/MKVfaQc+s7DMHlnVzLApQOYj177idXXyQsqFM2ANgCKZoDIHL5m7WEwyYkAHQ5Qb7zC5QjMLFv23b8gXO6ksp62vtszycLlSHDW6NBhp7Ep107UyaEzq61/kvlHJOn7rv7E0T/3LK5QjBXaACjGCyJzxJorjyBDfwJgvzlj5lfuT2lg3qjCVUC4rBn8PGcedY5Dtw+AGYD+amqQ/IleI6BoKrQBUIwF/X4/+cE2+7+RgD/G7D/mmUOpojtnbqdwLQyPVbjmzF3ncMGHTW/4kczhQyD6xKP3bTz3+otOmvYkpVCMFNoAKEaOw9dc8UbAfAjAM+3RSoqu4FNcuKz5WZ+6hWvWZwTCJfg0nUPZZ9ZxxHdNGPzYIHn71Wetvl5OTKEYHbQBUIwMh513+dNN2vtTGBzCe6hwNU64uPmz6YjjeVPH75qYMcb8xfKZzX/0zTUnPCwnqVDUD20AFLVjVf/GxZu2ueuDBJyJ/NfnzqPtwrXwYAKFi5+tRg7d5ong8OdJkrz9qk+86RoxV4WiZmgDoKgVR5x3xXNAyecBenZ7hcvv0xHhyqcj+lTG4bxB4NCdVNbTpsmeycqbeeR4/o6nwxlnCPT+a88+5lzA+BJXKGqBNgCK2nDEeVeeANCnQbR8JMLF+tmBTblgraXCNfuoAxw6s3I+FT/PmUcEEJl/7fUGb7n6rOPuc6amUNQEbQAUlWPV+dcu20RbPgfQsfUKV7GiK43baalwNZXDheG6OXT7LIyW4vCXiTG/dfXZR9/gTFGhqAHaACgqxes+eflu6WDqnwF6ccOLLh/UKuFa8GHTG37UWQ5nfVrA4SZD5m3XnHvM34upKhQVIhl3AorJweEXXPXkdDB1nV/85zD+oiuYmiBc7RV/z8LWeDEOncNDjvXfNeEI5Gdzc7iMDP3dy8740u+6VlIoqkZv3AkoJgOHnXfV0xMM1gLYo27hqrDoOqZU4Ro/h25Q9ofg6CO6PIfM03HP5n+iBmQOe8JLf2vZrdd+7XLXqgpFVdCPABSlcejZax/fmzLXAnjC5N+nvvDAPTU/R6xwiW1Eozn0+zgbgM5wyARmHpq/Wbxi93eu679qxpWBQlEW+hGAohSOuvDynXpT5jLMib+McRfdEOHyTRv+ztYabqFwxcKXfX4Nga3oqPAs7BGWQyG+HEvyGgSAkL518yO3f2nVqov1LK2iNmgDoCiMA/prp2Y2T30VwN7jL7oqXHUIV1Mu+lsID2syvRyGdHvhJ4Mkj+Ickll9257TfwWQnqlV1AJtABSFsc1Kcx4Br2pG0c35d064uEUFc53C5QwrxqGQkD2JyCG/eMyJkDHcNXHCi0//u0/w2SgU5aCnlxSFcOT5V7weMBcUFa6GF91cWBuES24Q2n/Ff0jX5+PQdmgDhwZ4+RNe+luP3Hbt167lM1MoikFPLSmicdS51+w6nUz/F0C7tr3oduHb/TLPspUcyj6zjhPPIZExb//Oucf9jStDhSIW+hGAIhpbkulPAqhd/HMVUh7HOITLjRDNmnWcdOESTMEc+sXfO1OjOXQuOwxjiC56yXu/8FKXu0IRCz0DoIjCYWuufGViaB1o9sIk8b1bo4tuiHARP5OcWLRwtZdDv4+zieoMh0xgCIcZc4bDW6cpef715x17Dx+kUIRDzwAogtHvU9IzdGH7xd+5rDxHxjwC4RIt/ne93jMLJeDLPr+GwFZ0VHgWdXMYAl92UeIPAE9YZNLPo9/X2q0oDd1EimBcv+23jybQs4CmF11p9rAc7L/48Zio8Cz8DZJvqZBeJuMS0UQVFK6cj4dDvWsCAoeHvmjjU97PBysU4dAGQBEGIkOUfrBc0a1CuMZWdMcqXAFUDJl9PDeTQyEhexKRQ35xthEdA4eeha1xbmpj0H/RaZ9/OT+JQhEGbQAUQTjygisOAmFvFS4BKlwowyHxCbGOspft0CQOK7prIgHM5w7o//VSfjKFwo+pcSegaAcoTU5pmXDdZlL8Nwx+BsJGMunGWXOygwHtkAJ7GdC+ILNzPr6YcDmHM451Cheq57Bi4XIjnEP9kqStMMBej26cOhPAh/hJFQoZeheAwovXn3flE2YovQnOhrF80WXqn3s2vjIOYOgyk+KrhPSKb7zv0F+5VhvGa8/6xr5IcRAZ8yZD9GJ30eWTp+wPNxp/tXpZ4Vp4oBzyJmf2DIdusxW/2aD33OvOO/Z/7IkVChl6BkDhxUyangTTVPHHgyBcODXoferfPvCa212ruPAff3jIjQBuBPDJA8++7BnJID0NoBMALFLh8i4rz5Ext4hD1/wl4Ms+v4bAVh5LUgw+C9ABgCmXpKJz0DMACi8OX7PufwF6sj0yVuEagOhTtCT90H+895Bfu1YogsM++u97TJve+QZ4o7cU13DRH8uhPTBv9Otw8QZAFC7mxeOnbjqHORZbyCGldNz3Ljjh7/hFFAoe2gAoRBy65vJ9EvRutEfGKlw/Swy9+ZIzD/4BF1UVDv7oJUfCmL8EsAubVe1X/E++cI3mrgm5EW0rhwvDBBj87Im3LN33q19dPXA6KxQ56F0AChGGpg63rf539tyfDo/YonvxYrPshXWLPwB88wOH/Wtvip4P4Do7vVEIl2Rst3A5ErInETnkF2+K+HsWtsYLi//sg71ueeKjxzqdFQoG2gAoRBiDI9iBsQiX+dSLH73mmK+f+fIH+Zmrx6VnHnZbbyW9ioB/nM+sklvVoMLlg5dD2yGGQ3+jWo7D0XxJUsb4xwf01+p1XYpg6EcACicO/8RVO2DRzF3IXCxarugWFS4DOufSPzz4TG/SNeGA/tqpqUWbv2qI3hDyzrZu4WI0xD3byIXLmdiQcHWdw4UHVXJogLd95/wT/oZfXKHIQs8AKNyYmn4pKhT/wu+4iP720jMP+kM52Xqxrv+qmYeXbTwWRNeIjq3/ZroQ4XKYKhR/j0PDOXQuK8+RMRfjkID3AaRv7BRB0AZA4QQl5gVDj8ZSdA3M9WbFzEkw47/F6br3rt5kBr03AriDdWj87X5yyDiFKz+RyKFo8c/vPbNQAr7s82sIbEVHzeHpLzn1C6/0JKBQANAGQCHAkHn+7F9jE66HZpL0mEvfc9jmgHRHgm/2X3uXMfQWOBgZn3CFwJfdWIULW/eZl8PCZ5jCepmMS8S7f5FD5gDgp/ZwGHB2JCW83eOkUADQBkAhgl44TuEimI9cdsbBvygYXhu++f7DLzOELyxYmiBcxU9bN0W4inAYQMWQ2cdzMzkUErInIYAMrXru7//19h5nhUIbAAWPw85ZuztAjwEQdla0euH6+baP/vqTASuPBYNk+gwCHvQL1xxUuCSHCjiUm6yO3TWxbIkxq/0Biq5DGwAFC5PQcwCMr+ga8/Gv9ldv8Wc6Hnzr/a/fYIBP+4XLduiWcDmHM451cug/w1KOwyZ+SRLBvC0gStFxaAOgYEHG7Dm2omtw693bb9/4f2s6PUMXECBcn6DCVdXZAffSfg6Zp+OerXIOBZOcWFkOX/SSU//2cXKgouvQBkDBIiHsOfx4lEWX0vTz15/0gumANMeKdf3D7wTw7/zo5AiX26ca4RLPITSaQ+ey8hwZc20cmoHrn3gpFHPQBkDBglLaY/7v7AhnzIyXLboJ9Rr/7n8rjEm/aFvHLVxySKxwCRIlWAPe2Yte9gjLoRAfQktR+LJHbnwcHFJKh3kmUHQc2gAoeBizJ1B10Q0qyTdf+kcH/jTEsQmYntnmMgBDZyuaIFw+WS0hXMK70oWmJey0vlf8QzqVkBMZFb/7FzlkOrdxcWgM9l+16uKeZyJFh6ENgMIB2sMpXIWLbs6fqYwGWOePbA7W9V/1EGDmvpiou8IlJGRPUkD8A6gYMvt4nnQO5922+9XjHn6Wz03RXWgDoLBBZADsyo85Qioruub7/gSbBQJ9b+hBbowNcM0TFdi8K/5Dur4g4RIeyk1W+zl0DmccZbcFB0PJywNmVHQU2gAoLBz655eupPx3AAz9yqPSokvpzwLTbA6Ifs5V5SYJ18i/mY51rP8LfhyB/Gwj59ANyv4QHMPODszD4HmeAEWHoQ2AwsLUI4uG/ovYaIvuYAo3+zNsGIy5SYWrYuGyZvRzyDwd92yVcyiY5MSiORRbMYtDeq48qaLL0AZAYWG6Z+YagNEXXdOjB0JybBKMMfcPP26WcDmX9WOswsU8qo1DOSSMw/Ami48KaJBEL3tk7qXZRy8EVLigDYDCQmLM9uMSrm03bnwoMM3GYJDOPLj17zqFKxY+yciv4ZOomKjwLBzCFTF/OZbkNUbCYZ13TRgsvemxj+o/BFKw0AZAYYFAO3o9alr7USyb8ns1Cz1MLQbqF66mXK0+EuHKD4Scga/4DEqdHAoJ2ZMU4HD4oTGDJ3sWUXQU2gAoLBhKlgMYS9EdLN9mW3+GzUKS0ErnoAqX1014KBhzLVTLOCQ+IdaxHIcEg+x/9VQotkIbAIUFIkyNreimM7sEJdkgDCjdlX33PwYOPQtb4+MTLtuhWxw6h4ccq7lrwqSGv6VX0XloA6CwkJh0EWcfRdEd0ODpASk2CgSz1/Cj4V+cN/eny6i3+zkzEXzGzaEblP0hOIadYXEvPcShoZ09kyk6Cm0AFBYo8z8AhqzMny5j8aKb7OPPsFkwwDNm//ILF6MhmfHMo8qFSzA1Ubgc8fVy6FzWDzmxaA7FViyCwxTwXNOj6Cq0AVBYoNTkzgCMUrjolSE5NgqEV7RDuMLf2VrDYxAuLr4ch3KIL/t8gMBWdFR4FvYIy+EQDMwSz6KKjkIbAIWFJMn+F8ARC9dLD+ivXepNsiF4Tf/fnw7QE2WvSr4kyRM9ecKV9y7HkryGmD1zAPDb3MPhmO6aMITWHE+K0UIbAIUN2toAjOUrVZcvWbL58BqXrRTUG6xaeODwcT5w+Ec0UZMhXNyigrniRrRODoWE7ElEDvnFA6gAmXSxb1pFN6ENgMICkTHAGItuao735dgYkHnz7G/HsPc8vQqXr0Fo/xX/IV2fj0PbIYZDhYKDNgAKFmMVLoMjDvrIN58WkOZY8eoPff1QA+ytwhXn0CTx78ZdEwoFD20AFBZSDBYejEe4er1kcLqQYiNgYP7IXXSbLlxuNEe4xs2hYArmsJozLO6l/RxqX6BwQRsAhRtjFC4y5u2HfOzSZ/uTHA8O/NDXfxOA47vW23C7Hz9HI4WrFg6dy8pzZMzVcCieQ1DxV9QIbQAUPMYvXFOpSf4MREbIciw4oH/xNgRzPj+qwlW/cJWTNV/2+TUEtqKjwrOwR1gOhXgVf4UP2gAoAuETLjmkmHDR/gd/4punBaw0UvR6yy4EwNz6N5a7Jlgvt+fohStuPKyXybhENFFi9kyDxE/t4bBpd02kAfMoOgltABQVwVfOigoXffygj3/zZYXTqhiv+dDX34EUb+HG/MJV/N1/m4UrgIohs69rbCaHQkL2JCKH/OIxZ1D8HCoUs9AGQBGAsRbdRYYG/3LgR/7tGQGJ1opXf+TrrwbMX3BjKlz84tUKV3EOPQtb47EcEp8Q6yh72Q4q/oq6oA2AwoNGCNdOSdL7j4M//h97e5KtDa/+yNdfbVLzLwCsf6rSfuFyDmcc6xQu1MxhN273U/FXxEEbAIWARgnXEwylVx340UtezE9aH17zoX99k0nNJQC2sUebLlxuUPaH4Fi/cDFPxz1b5RwKpgo59M5UK4cKhQ1tABQONE+4CNg5Meaqgz52yZmjuDvggP7aqQM/9PWzAHwZAPOFKm0QLn6O9ghXWQ6dy8pzZMzVcCieQxghhwrFVmgDoPCiYV+pOgUyZx30sUuvqPO6gFd9+N/265kHryOYMwEwzcYovpnON23NwoUA4RIt/vm9ZxZKwJd9fg2Breio8Czq5lChcIP53neFYgFBwjXsP/TT5+X2DCq6BxiT/OdBH7vks5ieOuey/sHrY/J04TX9S/YxvfQDRHQ0jDEucS9fdH2S0ADhst+Y2jOFdCohJzICCG3KhZML4XVzyC0qmPXdvyIS2gAoItGoorsUhN/D1MzJB370kn8whM9vv9dD3/rq6tUDewY3DuivXTqVPPI6gN5CGBxCNHdmrKKi2xThEhKyJykgXDH6o3dN8Iuz7/4r4lChyEMbAIUTLSq6SwxwHAwdd//PVtx/4Ef+fR0MXWOo91PTm7lpgOm7d9wy8+Bt26K3cuN2K6eTzbv0TLIXgGcYwv4pHn45Acv4nPNptle4iE/I9mqYcDXvromQ0xU+Dm2HGA4RyaFCwUEbAAWLFhfd7QG8AWTeQEhBgwQGS3BfbwlWPExIk2n0kMwvl+YnEJ9K24XLOZxxbJJwNeHi08xwEIfNumtC/xGgwgW9CFBhw6oYdRfdKoRr3PdYt0G4fI5hZwfcS1crXHrXBB9fjkOFYgHaACg8GEXRFaaYiKJbHYdun2qES2zFGs2hc1l5joy5IRwK8d4mV6GIgDYACgEdKrqjfMcVwqEjQGArOirvKXIoWsoKVzn4skduvCkcOsdD+sEAQvXdv8IHbQAUhdDWojt64fJlF94g8W+KPRzWfqtaFcJV/N1/mzkMoGLI7OO5QCOq6Dy0AVA4MJlFV15UMLdIuISE7EkaL1xt55BfnG1ER8mhQgFtABQsmOuGteiKkzfviv+Aoq8c8vH+4Yyj7GY7xHCIOjhUKOagDYDCj9YJV7miW7dw6V0TzGwj59ANyv4QHMMaVffSfg6Zp+OeTcVfEQltABQyRl50ffmocLkw0cIVxaFgkhOL5lBsxZrGoUKRgzYACjcaWnQFh+YVXV8/IQ5wPpMuXHJIGIfhTRYfFbDPRC97hOVQiFf5VowC2gAoeIyy6DZNuFzzl4Av+/waPomKiQrPognC5cuuZg4n9a4JhYKBNgAKEZ0UroD62ZSr1SdeuEbAoZCQPUkBDgOoGDL7eC7OoUKRhzYACicmQ7i4RQVzJ4WLX7wpwlU3h8QnxDqW41Deqyr+ilFDGwAFi8kRrnEX3TYIl+3QLQ6dw0OO7b74VKHgoA2AwoHJF666i67e7sfMNnIO3aDsD8ExrFF1L+3nkHk67tlU/BUVQRsARTgqLbq+tZr1larjuVVNmKIDwhXSczghJxbNodiKjZVDOUT7AIUEbQAUYYgSrmqKrphM64Ur/J2tNTypwmVFB+wDKQWvNWx+kUPR4p+/vED7stMWQOGGNgAKP5omXKKlbNEtVzBVuELhbqLE7Jl9xvdnHg67fNeEQjEHbQAUEWiIcNVadHP+VRXd1ggXt6hgHqVwleRQSMieROSQXzyAiiGzb6+q+CvqhzYAChkNF65WFN1WCZfcILT/iv+Qrs/Hoe3QCg4Vihy0AVC4ocLlXtwyqXCV5VDvmmBmq4pDhYKBNgAKHiMtuvUK19iKbjCHbnReuHx9lzOf3HCFjap7aT+HzJZwzxbNoXNZhYKFNgAKG+nWP6oQrkkvulUIFz9Hdzh0LivPkTFXw6HYzo6VQznEmb2Kv0KANgAKL+oWruYWXRUuocVhZ4uFL/v8GgJb0VHhWdgjLIdCfHkd9mWnSq+IhzYACgfCizJvnYSiK80eloP9Fz8eExWeRbHX0OkRQGhTLpxcCA87O+LlMPIdudNccSMaxmHKjys6D20AFAwWCkYzi67/bfj4i24zhSuAiiGzj+dmcigkZE8icsgvHnMGpUkXnyoUeWgDoHBiPEVXhUuFKzseyyHxCbGOspft0CQOYy4+VSg4aAOgYDG+omsv06SiW79wOYczjnUKF2rmUG/3Y2YbJYcKxRy0AVBYsD4x1KI792dZ4XKDsj8Ex7CzA+6l/RzKbyDr5lAwKYe+ZRWKKGgDoJChRTc/e0xYzsDPEcuh2Io1mkPnsvIcGXOLOHTNXwK+7PNraE+gkKANgMKNNhbdQsIlhzRCuLyl3x5hORTimy9cPmvDOAygbKTXnygUOUyNOwFF87Bleumfr1jy8OdgxrP+A5bFl0hkovYCY8Z4EiL0DjMwX5z9OzPgjx2lcAkN0kJ42Bkmr/hHNodOc8VnUFT8FXVAGwCFhXX9Vz0K4NFx56GoF694398/TJR739o04Yo4wyQ4eMSfXzzmLFSjLz5VKBzQjwAUig6j0cLlEX/iE2IdvR9vlPwIyhHIzxbJYZ13TSi6DW0AFApFQ4XLjWBdG8GdJ8zTcc9WOYeCSXVf4YE2AApF19FY4RI+96/wowF3LuMWf+ey8hwZs3YBCje0AVAouoyWCVes+Hs+QBAs/ubBe2ahBHzZ59cQ2FIonNAGQKFQVIY6hSv8MrdA8S/8mX5YL5NxiWiixOz1c39FhdAGQKHoKgacsfi7/zqFayE87LR+rPgHnAgZMvsahGZyqFDkoQ2AQqGYQ8OFS2/3g4q/okpoA6BQKNBk4QrWNa/42w4x4u//aKAch3XeNaFQcNAGQKHoPJorXJT9ITiGnR1wL+0Xf+bpuGernEPBJCemvYHCCW0AFIpOo+HCFSH+4jmERou/c1l5joxZ4ND6ek+FYhbaACgUnUX2KsDGfUmSvEpm3PMBgmDxz1/nO2hf9siNx7zH13f+Ch+0AVAoFA74ZLVm4ar9C3783Yy/lyn+7l/kMPjjk7IcKroMbQAUCkVjhEtIyJ6kgPgHaPiQ2dcgNFP8hYQUigz02wBLYFX/4sWPLNnx8YNF2KlH2C41ZhGl2MYgXQaYpSbFNmTMooWI3I3XEZ/NpbEB7AR8fPisaaEU2NvNnfPELZBakxfkKLX+KDaTnZC8nGu01Oe2YcEDYF9D8Z9Z1ylcs8MBwiWKP794zOf+bb7dL6Q3CAXdeuoyTPXeU81sI4bBJhia/VZTMhth6F4YugcJ3YWdtrvDmH7nr47QBsCD15199cotvennGEqfC+AphugJgHkCiJ7wsDG7AzBJCqSYraQGAGj2++lnf209EgnD31tP2YeQCsbCuwXme++jCgYTn0lIAgFkPHXFrsq5Z+1IcKs5vuiaQA6t+dkkyTZl5gkQLiNwPOcjvxKzPA87xAuXEXwWjAbxwlXnN9MFC9cIvuDHEcjPNnIO3aDsj/IwS5fDbDmrmsnGgGFOCbPHVmqADQ9uoTtPuxXATSD8GMB/waT/id22u7FLjYE2AEM4oL926TYr8GKi9AUE83wYPH8GW56WEM1+VELAfHE1w7LW9ncLVbzjmvSiq8LVCOHS2/1ciVUv/pONxQCeAuApMDho1pQAGx58gDacdi1SsxagfzePOe+n40yybnS+ATj8gsufjEFyIGAOBNEhBKykzLu4LhRdD/QrVZ3ojnA5l/WjKuFq/O1+ckgYh+HHuzWs4l8FtgPhUBg6FMA5dOdpN8Pgq4D5ktltzY/HnVzV6F4DQGSOPG/dywg4mkCHYAZPmRsY+jnvDMaYGW++cFVTdAWHCRCumotuw4QrFr7s82sIbEVHhWdhj7AcCvHlpdOX3bg5i0KgQwAAIABJREFUVBTAk0A4A6Az6M7TfgyTfhpm8xfNrn/x0LgTqwKdaQAOPXvt45MEx+G8de9IgaeNX7jkkEYI19iLrgpXHcLVlKvVF8LDmkwvhyEHTUhPXXEjWieHQkKKSkEA8GyQ+TRo6Vm04b2fASXnm93X3DXuzMpgohuAQ//skiXJlmVHA3grYF4JzH2Wr+8WwuYfe9HN+Tek6I5OuLhFBfNECpePQ37xACqGzL692lwOiU9IUSksfrdDSmcCg3fTHb//GcyYj5knXPDrcWRWFhPZAKz61NptNm3CO2gLTgfw+Fnr1hexu+8W6haurhRdR0L2JKWFS96revEp79AtDp3DitJwvbbz9uWAeS+m8FZa//sfwWMe+ZQxF02PLr/ymKgG4KgLL99pelPv3Y9sMu8GaEenowqX5KDC1QLhQs0c6l0TzGwj59ANyv5QVA7utXVxTTvC4ALcufxtdOfvnWh2/9Pv1ppahZiIBuDAsy7bbunUovdPP0rvIoMV7oNC3y140XnhcqNJwsU8HfdslXMomKoSrk5cfOrz4Z1V/OsGt7E4ri3bs0HmGrrj99bg1zv8sdm3v6WW9CpEu/8VMJE54rwrT1i6aNHPAPoDAlYIzipcE190qxCukkW39Rw6l5XnyJir4VBsZ8fKoQxf9vk1BLaioxRlQCgh/lvjewDOxI73XUO3vudpFSdYOVrbABy5Zt0Ljzj/ymsB+lsQ7SZ7j7tgVCdcbp9JL7odEi4hXvYoJwrNEK4ADkVLWQ5D4N6LYvbMPuO3uYdDveivBnCvKdMQuHztA/sF6OG7dNt7XlNBcrWhdR8BHPpn395lajo9n4DjAJjmC5ccEitc3S260uxhOdh/8eMxUeFZhOcX1A8GENqU60/ChYu4w9WeKfIYc5orbkTr5FBISFEKrtezsPAP/7EDEnyD7njP75vH/NmniudYH1p1BuDwC9Ye2JtOf0TAmwGYdgiXL7sSwtWIoluFcDWz6NbNYQAVQ2Yfz83kUEjInkTkkF+cPZ7HwKFnYWs8lkPiE1KUAvd6Em8PFn8rfgqEC2n9u/+UaFWvWJ71oRVnAA7or126ciX6lJo/wHzTosJVf9FV4VLhyo7XJlxeDm2HJnHYiLsmFBFwibfHj7MzrzEz+B7csfvjiU48ukm3Cjb+DMCR51+x7zYrzXcI5kwEiz/m3YSHglGLrmvxJhXd+jl0Dmcc6xQuvtAIs41cuNwI51Bv93OBsj8UpUEoJ/65+DDx34o34o7FXyHqN+aNd6MbgCPPv/IdRMn1AJ6TGdB3C3y8f3jIUYuuC8FFt/VX/Ps4FExyYh3i0LmsH1VxqAgE91oyDYHL19k4RMW/EXfc+1dE/UZobyOSsEBkjjhvbZ+IPgdgSW5MhcuB7hTd5giX2Io1mkPnsvIcGXOLOHTNXwK+7PNrCGxFRyliwIg0wVEHOUHP2eYfhsYP+c6uezzW3/O5JjQBjTkVsRUHn/sfKxaff+UXAfMGa7D1wuVc1o82Ft1CHMohtQuXvEpmXORQtPjnr7PsN0O4RsxhAKFNuf5kIVzFvzy419DFqyDcmYcF47P74m1Yf/ddAP7QMdlIMPYOZBivO/vqxy5JlqwD4BR/fbcQHxWeRROEy5ddzRzqXRMQOaxEuMpyyC0qmFvEoZCQIhqMIAS/68/Fz7sUiM8MZ/zOoNt/52gmcGRoTAPw+jXf3iedmvkeAS+wR/XdwviL7uQKl5CQPUkBDgOoGDL7eJ50DvnF2eN5DBx6FrbGYzkkPiFFFBhBFsXbE8+Ld1i8vG8MQH9F60/Zj5lkJGhEA3DYeVc9PTXp5QAeZ4+WFS7bVTRr0XXnIqTSZuEKLroqXHy8fzjjKLvZDjEc8oVbmC2Sw0ZcwKsQwL1+TEPg8nU2DgXiM3vC6bsMZL5Gd7x7F8ahdoy9ATjinCuflmCwloDH2KNVCNekF90qhKtc0W0/h87hIUe9+NQFyv4QHPVLklwI5lDhACOyBEd95AQ5Z5t/GBo/5JsZDorfA+ngS+O4KHCsDcDrzl/7VPRoLYDHsg41C1fzi64KV1OEyzvTxAsXP0d3OHQuK8+RMZfkUOEA99p5RFqyzb8WMfH5/RkdfxBuu+vdzGCtGFsDcNiab+0xIHMZ2NP+GIlwNb/oClNo0ZVRsXCJrdhYOZRDmiFcARyKFv/83lpRAr7s82sIbEVHKXxgDr5mXejnj986ZOgsuuOkfRin2jCWBuCoCy/fqWd63zLAnqxDJ4Sr5qLbRuGyosdddMctXCHwZdcADu2tZs8UctD4DpmQdBB3PIscMgcAP7WHQ73orwAYQRXF2xPvFW8h3rsBhfjs0FIMzF+O8jsDRt4A7PfZHyya3jJ1MQFPYR1ChEu06LuF1gpXo4puE4SreCNaJ4dCQvYkBTgMoGLI7OO57RwqbHCvGdMQuHydjUOB+Mw+iIy3CgABwIuxfqfTmKBaMPIG4LEPPfSnILyaHw0UrlqLbs6/IQVjdMLFLSqYJ7Lo+jjkF++KcBGfkO1VmkN5r7b/4lMV/zgwIktw8MgJcs42/zA0fsg3MxwZbw1Zz+lDdOtJT2OCK8dIG4Ajzrvydwg4hR8tJlxdKbqOhOxJtOjy8fPDAUXXy6Ht0C0OncMZxzo5tAq5NI54DhvxJUmKIXCvl0ekJdv8ixATn9+TBeKDNgstBXAuM1A5RtYAHLbmylcCdD4/qsKlwlVF0a1CuPSuCRco+0Nw9BFdnkPm6bhnq5xDwSQnFs6hYgjMZmnrhX6i75DN4PW0/sSDmckqxUgagMPOWbt7YuhrABazDjUL12QUXQ8mXrgEkwpXfvaYsJyhpHA1/uJTH4fOZeU5MmYV/2rAiKQo3p54r3gL8d7XX4gPKliMbYAL6v7q4JE0AL2p5HMAdmYHtei6EuuQcDmXlefImCdduOSQUhx6xskznvcUORQt/vnrlE5f9siN+9iKiVLkwdUMpiHgmgQuniJ887bMgRsZbx1/UfH74Pb172AGK0PtDcAR5617JxEdzg42vuh2SLiEeNmjXEFrRtFtg3D5sivBobDPFrZpWJPp5TDkoPEdMk6f4sezyCFzrNbDoYIVSYKDO5eNmIcBvvl5M8OR8dZQRDwNHUiED9Nd79qGCa4EtTYAR5575ZMAnMePtqHoSrOH5WD/xY/HRIVnEcFh4aKb829d0VXh8r6wersf6udQ4RRDSaQl2/zrUqB5IMYWGh+y95yNg2XfFY9On8w4V4LaGoB+nxJK8NcAVtqjWnTHL1zconnzpBddH4f84k0RLs/C1ngsh8QnxDqW41Deq+3n0DmsmAezQSb9Qr+M2dU4EJDgdLr11GXMoqVRWwPw/W2/fSpA+9sjxYSrKUV3coRr0otuFcJlOzSJQ71rgplt5By6QdkfChaMIIri7Yn3ircQ761PQnzQ5nA1Dh5fwm7AQ7/NOJVGLQ3AoWevfbwh6rODKlx8vH8449jtoqvC1Qjhav3Fpz4OBZOcmIp/EDiimYaAaxK4eIrwzdsyr2dkvKUPMeLP+bG+Z9Av3r2EGSiFWhqA3iJzAQD7wgUtuk5o0Q0wKYe+Zf2oSrgafwGvHBLGYfjxzkep+PNgRI7geBFdNmIeBvjmbZnh0Pg5uzUUEe885e+MfzyWPfJWxqEUKm8AXrdm3UEg/JY10PqiW4VwTXrRrUK4ShTdFnIYC1/2+TV8EhUTFZ6FPcJyKMSXl05fdjVzqBf9OeAQQ6f4eWzzx3yB+MyBGtl8WDUrIj6q0ck8PI0IhnEsjEobgH6fktTgbGugYUW3ne8W2lB0pdnDcrD/4sdjosKzGD2HTbn+JFy4iDtc7ZlCDhrfU3H6FG9E6+RQSEgBgC3yE3GhX2C8dKGfK9es29Nwy9tfwzgXRqUNwPXbXHkcgOdlrc0ruiE5ZEdqFi4tuhA5bIRwcYsK5hZxKCRkTyJyyC8eQMWQ2bdXm8sh8QkpOJETxdsT7xVvIT5IvB3xIXvN2TgUfK4AMmdITPIuJqgwKmsAVvVvXJwafDhrVeGqv+jyHHal6DoSsicpLVzyXm3/xacBwuXl0HboFofO4Q6De00YkeOEj4unCN+8LfM6R8Zb+yhG/Dm/wHhrk9Pr6KZ37MEEF0JlDcCmbe8+zgB7LliqKLqSsd3CFVZ0VbjaIFx8kRFmi+RQ75pgZhs5h25Q9ocCACtyBMfx6rIR8zDAN2/LDIfGz9mtoYj4+Av9cibWt4eptLJbAqtpAIgMCKdlbfUW3fYLl3M446hFV5iiIcIl1pbaORRMVQlX6y/gdS7rh5yYij8Lhxg6xc9jm+e3QHzm9YtsPiw9iIgveqEfEMCVeSf94MRFjEM0KmkADj//20cC2HfeoO8WnOhO0a1CuEoW3dZz6FxWniNjroZDt9e4OZThyz6/hsBWdFQ3wWwGvdCP8WVs4Vzthl2mX8s4RqOqjwDOmP+rE0XX5zPpRXdChEu0+Pex7FFOFJohXOPmMATuvShmz+wzfpt7ONSL/ubgEDSfyLviveItxAeJtyM+pNY5G4eYtfKmgIZo2GbMccxANEo3AIede8WLDOhlAFogXHKIM3vHhupu0ZVmD8vB/osfj4kKz8K/z3xLhfQyGZeIJqoZwkV8PczPFHmMOc2FjufxcCgk1FGEClqgyFGEb96WeW0j460NGSP+nF+M+MfG0xvof0/cjnGIQukGIEmSP5pLaOgnhyYIly+7EsLViKJbhXA1s+jWzWEAFUNmH8/N5FBIyJ5E5JBfnD2ex8ChZ2FrPJZD4hPqIBiRIgiC5omffxgqiEO2zHCkoFpDEfH1XOjnjycsxaKZoxjHKJRqAN5wwdo9ARxRXrhsV9HcyaKrwqXClR2vTbi8HNoOTeKwEXdNTDwcYugUL49tntgC8ZnXNVJQrWMvIn6Up/ythwTQoPTHAKUagOnUHA9QokV3FEXXXqZbHDqHM451ChdfdITZRi5cboRzOOkX8AqmYA673gEwG0Av9GN8GVulXJlX0S1vfywTFIxSDYAhHFd30e3Eu4WJL7pVCJfP0Ud0eQ7FWtMI4eLn6A6HzmXlOTLmkhxONDhBCxAuV7xXvIX4IPF2xAcVIVfjELNW3lSWKyu+B9DrmeBgFG4Ajrhg3UsA2kuFS5iiE0W3OcLl9mo6h85l5Tky5oZwKMR7a0UJ+LLPryGwFR3VDbgEjfMLEDle0NxrORuHyHjrmIoRf84v8LnWdYaExtQAmJn0eNljEoquz6chRbc2DuWQUsLlGQ8vugEcipaywlUOzRCuCjn09Skh6SDueBazZw4AfmoPh5296G8j4gSNs0UImmUfsmWGIwXVGoqIL3uhX1ST4mp0XPH0arr5rdszDkEo1ACs6l+8mIxZPRLhcs1fAhNXdB3x5UuWL7sSHFZSdInbavZMIZ1KYeHyNVFNF66yHHKL5s0+npvJoZBQd6EX+oXHj4arRUjoYMYpCIUagEe22fkIAnbiR8sKV0jRzfk3pGCocKE0h0JC9iQFOAygYsg86cLl45BfnD2ex8ChZ2FrPJZD4hPqJgiCGAaIt5NrT3xmODLeGoqIb8yFfgHxpvjHAAU/AkjexNt9wmW72mYtutziXRGu4KKrwsXH+4czjrKb7RDDoVXYpHHEc9iIC3hbAAOaKRy8ePkivdAvIr76C/388YTDin43QHQDsN9nf7AIEE45dLroViFc5Ypu+zl0Dg856l0TLlD2h+DoI7o8h2Ltr51DwVQVhy0BgR4tHDyTLuFmDBIpp6AFxFOEb95m1asI8WY3S+BzHd8Zku2x4+aXME5eRDcAu298cH8AzEUHk150VbhUuJjZxiJc/ByxHIo7utEcOpeV58iYS3LYJpDZUjg2pVwDECBSXkET4jNThQrinM0aihDUohc1zrsVjPc+VyF+eDgZHMg4exHdAJjEHMkm1eiCUUXRFabohHA5l/WjM8IlhzRDuAI4FC3++WWPcsLqyz6/hsBWdFRbQQYPFg6eGm4AAkRqfg/GCFr+zwLx1jEUEd/8C/1sm8VVchAT4EV0A0Ap5RYad9GtQrhqLrptFC4retxFd9zCFQJfdg3g0N5q9kwhB43vkAlJB3HHs8ghcwDwU3s4nMCL/hLgnsLBhB2DRGrexeXnEW+xgAnx1lBEfJsu9PNyRS+k/zt2ByZQRFQD8LpPXr4bDPa2koLLUrboljsYG1N0Ra+GClejim4ThMvXRI2HQyEhe5ICHAZQMWT28dx2DtsJgrm3eHC6Mzcjf0x5hI+LDxJvR3zI/nE2DjFr5U0BIp+x5bkqGC9z1UOa7M9MICKqAZiZTl4DwGQSqLXo5vwbUjBGJ1zcooJ5Iouuj0N+8a4IF/EJ2V6lOZT3avsvPp1M8QcAY2hD8ehkl+xjbpNwghYgchThO2yz3CPi23uhn+A7ZzMUfR3AVIxzYsyrMgWto0XXkZA9iRZdPn5+OKDoejm0HbrFoXM441gnh3xRF2aL5LARX5LUZgzwq+LB6c6z7/lcGyRCuNnhyPigF9i1XwrkmjEVjB8ZVya6AYi9BuAVrly6VXQnX7j0rglmtkYKl8/RR3R5DsX6VjuHgklOLJzDlmPR1MzNxaOTPfkNQuB5CxW0AvFWjY+ItzZeRHxjLvTzxj+dfnn8royjE8ENwJFr1u5MwNO16Mo+s46TLlyCSYUrP7s3zO1TUrgaf/Gpj0PnsvIcGXO3xR/Afd/71O8WvwbApE+e/3teh1xi5BFv8TUR4q2hiPiy/8e/Eaf8g+MNpgYvZwaciDkD8HKATLMLRhXCVU3RFRy06LZeuOSQMEkh5i93DqFReU+RQ9Hin79O6fRlj9x4PRy2Hwb4SckZZhsAryBxNu44jIwPFm/GNnkX+snxBIDMKxgHJ4KvAUgJL5NTUeHSr1QNsU6CcPmyC99n/Db3cKh3TaB+DicDBCrcANDNb10K0OPdfLo45PZPgO+wLUj4HfZg4WfstT1XT3wh4Z+zZ4eiGoDwMwCGXupOZxRFV5o9LAf7L348Jio8i/D8ihfdnH/rim5Z4eIWFcwtEi4hIXuSAhwGUDFk9u3VtnM4SUh+VDh0yQ7PBKEXLkiEzAvpFcS8fc4WJP5cPCLEn4mPEv9cfLT457jy+jri80OGnkP/8/aVTACLoAZg1fnXLgPhBfxoFcLVzIJRt3Bp0c1NInLIL07cozFw6FnYGo/lkPiEWEflUJiiS9oPIKX02sLBNPPsOEHK/+kQaclm7YWI+G5c6AeRK8IUFm96MRPEIqgBeDjd9EIAi6WUVLj8bu6Hk150qxAu26FJHOpdE8xsI+fQDcr+6Aru//HuG35aONokz8kaPCKVGXb5ucQ7PxQRP7IL/XK2+YeRz9UarpgrkwRfCBh0DUBC5mVbl2hS0a1fuJzDGUctusIUKlyohkOfo4/o8hyK9ap2DgWTnFhXxR8ArkG/n5aI32/hT0HMrGGPb94WLN6MLWAvOm3OYyYgXtxPoVwViA/iKn2lY2ILQWcAUpiX2Etp0dWi60ysQxw6l/WjYg7dXuPmUA4J4zD8eOejOif+MMB/FI2duwDwBbO8eQQp8xpEirf1GkeIN3usBop3u27vC+Rqq838Bv3gxEXMRBaCGgADekGzim5zhKu5RbcK4SpRdJvGoWv+EvBln1/DJ1ExUeFZ2CMsh0J8een0ZVczh5266G8BlOIbhYOXrnwRkP8qYCAjPN5aIYhUSL1yCWLXL/TzxtNy7PLQsxknC94G4MizLnsiAY+xFqpNuOSQ2oVLXiUz3uyiK80eloP9Fz8eExWeRcUcBhDalOtPwoWL+PqQnynkoPE9FaeP73geD4dCQp0AGfzPjz578i9KTMB8juwSwxhByw9FxuuFfmHx6eA3GEcL3gYgTZIXiQvlEil/uPnKWc3CpUUXIoeNEC5uUcHcIg6FhOxJRA75xQOoGDL79mpzOSQ+oe6A8KVyE6QH5yec/8W8Plk/l3jnhyLi9UK/8HgiIDVBDYD3IkAy5oVWAlp03ePMMl0puo6E7ElKC5fcILT/4tMA4fJyaDt0i0PncCdgUvx90Vj69Ynb4dHZ677cdV8QPs4WLN6MLbiAOsSQRUC8uJE88aLwe+Kr4MrgRYyDhZBrALKdxAQKV3VF116mW0V3/MLlLliO2SI51Nv9mNlGzqEblP3RUdC1pU7/b176WgCLMvsk89pECpJVgyLEm90AgeI90Rf65c0WV3vTzW/YnlkoA7EB6Pf7CYDnT75wOYeHHLXoutAkDsVjr3YOBVNVwqV3TTidVfznYEy50/9ER/D7JFTQ5mxBB4EgaKxvQLwo3p54r3gL8UFcOeKDuWJsPFcG6dL9mIEMxAbg+yv23weglc618wOtFa5JL7pVCFfJott6Dp3LynNkzNVw6PYaN4cyfNnn1xDYio7qEKZ7M+biosFzt/+9bvbBvBU8r4LNOi7KCFpEfJcu9HM2DnPGgI8B5GsAzGA/kGl40fX5THrRnRDhEi1+0ZA9yolCM4Rr3ByGwL0XxeyZfcZvcw+HXb7obwFfvv6ik+4pHL1k5WEg2m7BECpGc/aQ+uTcBwWFe95URvhj4ofs3jo6Tq7IeyGg2ABQap4njJYULhladMujVRyGdCo+/QhJB3FNVDOEi/h6kZ8pZDMV5rB4I1onh0JCXQRRkpxTcoqjh/7mxt22woLm2tyh4u8Rackm7i1PvCyAcvxouHqhI7F5iB8BkDHPcYx04N1C2aJbhXA1s+jWzWHw/kZuJ7aIQyEhexKRQ35x4h6NgUPPwtZ4LIfEJ9RNGPzzDZ868cai4XTrqTuCMPf5f55TzjZnt4YEX8vEbe7AeILjtQ+In3cpEJ8ZjowP4soRH8/VY+mXR+3KDM7D3QAQGUPENgBtFS4hIXuS0kVXMqpwuRZX4bIdZS/bIYZDqyhK44jnsBF3TXQEZoBzS03Qmz4eoGX2gCByIfvBJXJ6oV94fFGuksXPZZwWhl0Dh5y1bg8AO9jTa9EtW3Tbz6FzOOPYbeFyI5xDvWvCBcr+6DyI8K0ffvbk60pO8k7GyDkyQ5zIC/HsCx4Yrxf6hcenqeMs/iyc1wD0Enp2fjr9StW5STovXD5HH9FdEC5+ju5w6FxWniNjLslhd0BITL/UBOvf/QpQuu/wlK6lwgqH67UtKNzzpjLCHxM/ZPfu2QZz5fwYfxbOBoASep7ziTe26ApTdKLohnPo9qlGuMRWrNEcOpeV58iYG8KhEC97lBNWX/b5NQS2oqM6CYO/u+EvTrq61ByUnjb0gHNwDEWIVMDx6rTphX7h8RmuqNhHAEQY6hy06I5fuOSQWA7rKboBHIqWssJVDs0Qrgo5DOkHAwhtyvUnC+Eq/kN40CTTZ5SZgG4/ZS8AR84yLAiStXEiBIl9oQPFWy/0k3PNuFl+e9Otq5jrOmbhbAAM8Myts8qHW7mDceKKriO+fMnyZVeCw0qKLnE9kj1TSKdSWLh8TVTThassh9yiebOP52ZyKCTUbRh8+IcXvnt9uUmSMwBitGBOeEL2gEvk9EK/8PhSXDmbhB62DH+0kwXbAKzqX7wYwJMs4Qo49ppSMFS4UJpDISF7kgIcBlAxZJ504fJxyC9O3KMxcOhZ2BqP5ZD4hDoO89+9GfOnZWagO07eE8CbmZHMr4UHMYLG+QXGs4IWGE8RvnlbZq9Gxo+VKyHeGOfHAOw1ABuX7vy0HmhKhYtfvCvCFVx0Vbj4eP9wxlF2sx1iOOSLnDBbJIeNuIC3W0gNzCnXX3TidLlZen8M0OKs0SVIITYIghRgc77YocJfMN5bD1wbsAVcEfbhF3c0AIlJn1Gn+AuTNky4yhXdbgiX3jXhAmV/CI4+ostzKNbG2jkUTFVx2DEY4OM//PSJV5aZg2496WkAHT9kyfyy7CG2gP3ltOmFfuHxMVwZPMPh7LgLIMEz5udpZNFV4VLhYmYbi3Dxc8RyKO7oRnPoXFaeI2MuyWH38L1kYD5cepZe7+OgrRrACVKEyAS/k2Xsztc4IF7cQ5547x4V4gsLP0bPFbkbAP4iQDJ7u+dsQtEVpuiEcDmX9aMzwiWH1C5c8iqZcZFD0eKfv07p9GWP3LiPrZioDuN+EL3p+otOKnXqn9a/6+Ug/OYsvzGClrdThKAx8VGClouPFv+h+ELiH8sVY6vnQj9f/BPohuNXME6uuwBo7/EJV4mi20LhikUzim4bhMuXXc0c6sWnEDkUjtVwDrsHMjj5R5855Vel5qBVPRBdCJCZNWRG84YhO2NjX9jAeL3QLzy+6K2Qsw8TLH/k6Ywj0wAQGQB7BSUVARUuR0Triq4Kl3cf6F0TqJ/DDoLMOTf8xcl/X3qe9bucBOA5tn5EiIzzfvWAeIIgaJ74+YehuQ7ZMsORgtp2rhJiPwawrgE47Nx1uxGBPV2QWaohBWN0wsUtKpgnsuj6OOQX74pwEZ8Q61iOQ3mvtv/iUxX/PAjmKzfsfsf7Ss/zqxMfA9DHwgWJsQUf0A4x5DPz28S944kXhd8TH7L3m84VYW9uJqsBSM3gScazOZpUdB0J2ZNo0eXj54erEC7boVscOoeHHPXiUxeCOewe1j08tfmt6PfT0jMtmvoUiLZfMESIjF7oFx4/slshc3YXV8aENQDJgJ5ExjgXbV7RHb9wNb/oqnDpXRPMbJVzKJjkxMI57B5+giVLjvrlJ0/eXHYiuu2UVSA6asjCefG2gP3ktEUJmusAKBBfSPxdx9iouIpoyGK4opT5WJ9pACgxe7omambR9WAEwtX8oitM0Qnhci7rR1XC1bCLT1t5AW/3cDMRHXLDJ992f9mJ6JbffSww+Iu5Ry4v3hZcWEIFLTBe3BOh4l8gPmRPN4mrsCbpSdws1kWAhvBkbrJWvlvohHDVXHQbL1xyiC/7fIDAVnRUeBb2CMuhEF+ndDaDw67B/Hc61XvlDZ855fayMxH1EySDvwWws1skHIIUJGhMPCFC0HICucDzAAAgAElEQVTx8w9Dcx2yZYYjnuvWOuatrQ3kSvSdx0q6ddWOeQ+rASAz+x0AGVuXhUuIlz3KFbRmFN02CJcvu/B9xm9zD4d61wTq57BroO/3Bnjlj//8nbdVMt36DacBODBAJBZspT7DFkTWZ5vfLwXiM/sxUlCtg2gCudo8bZ0FYG4DxJ7MbMFoq3A5xwsX3Zx/64puWeHiFhXMLRIuISF7kgIcBlAxZPbt1bZz2Dms3bR58Wuuv+ike6qYjG5/10tB9NEoQWJfyEBBKnq/+rxLgfjMcGS8NRQRH8wVYxsHV8bW9mwDQGQAenzWJCSSM7VZuLTo5iYROeQXJ+7RGDj0LGyNx3JIfEKso3IoTKHanwXhy9P37HjIz/7qHQ9WMt3N79odlH4VgP1lP5xI6X/0C48f6bv+PFcF44msMwCZiwCPPG/dTjNDm0WFiwtte9GtQrhshyZxqHdNMLONnEM3KPtDAcwQ8IEbPnPSOYB9E3YR0I2rFmNR+jUAj82NcN4RL6JL0ArGi/vAM6/YOHjiQ2pu1Vw5n2tAvPhcPfHzw0b+CCClLbvPhzZOuJzDGUctusIUKlyohkOfo4/o8hzKta9uDgWTpyir+OdAuA0m2f+GT598dmXiTzDYbuf/B+Clwws5xTvoQGDiCRHin4uffxi41rAtMxwaP2e3hiLiy3IVLN4MV6KvED88TLRn3jNzBmAGvd0TkBZdR/zEF93Wc+hc1o+KOXR7jZtDOSSMw4B9IlpV/AHAAFdMz/SO/cnn3rmh0olvO6UPQycsGAQx5OwhNv2PfvJaGVNDuDLYI++dOQOQpNitzcLV3KJbhXCFN1nWcNM4dM1fAr7s82v4JComKjwLe4TlUIgvL52+7EpwKOyzhW2q4g9goyHzez/c7c6DqhZ/uu3kt8LQB+cewSlI7IsXKEh6oR/jy9iax9XuyCH7j4CIHsPMKubo8yklXPIqmfFmF11p9rAc7L/48Zio8Cwq5jCA0KZcfxIuXMT1SPZMIQeN76k4fXKvSkM4FBLqIv5txgze9ZNP/86tVU9Mt5/0ehD+HwAjiiFnD7HV9V/qQsQwZq1hW8gx0EiuCsbLXO1Ivzh0iXnapfP/VTLbABizezZxXzmrWbi06ELksBHCxS0qmFvEoZCQPYnIIb94cH1BroVqGYfEJ9Q13IwUv/ujz558SR2T0+2nHAiirwCYChe0CJHRC/3C4p3PNSA+ukkasoc1SQZm8a4A5pvPzEcAlNKu4iStKrq8cHWl6DoSsicpLVxyg6B3TfAO3eLQOdwF3EvAB3sD88zaxP+2k18Nwj8DtNQp3kGCRradECH+ufj5h4FrDdsyw6Hxc3ZrKCK+7Rf6+eJNmvkYIH8GYHs3McO/2lB07WW06NqOdQoXv8GF2SI51Nv9mNlGzqEblP3RNdwDQ5/qzSQXXH/RSQ/UtQjdesqhAH0NSJcxo0F7xmkb+2nsAvEhNVZqHGLWyphawlVqMh/z568B2Ja9E6VxwqVF14XgoqtfkuREDIfemRrNoXNZPzyFp7Pib7ABwJp0+fJP/3jNCQ/XuRTdetIbYdIvw/pHP3DszUCRcL5uAfHivvDEe3VGiA86yF01I9TXdTy1iCsD4QwA0h0AkzU1ULi8MzW66FYhXCWLbus5dC4rz5ExV8Oh22u0HMbCl31+DYGt6KjJhLkewEXLljz8hesueO+mulejW0/5bZj007BqOCeGc/YQm17oFx4/9nf9gWsN20hqAIxZGbSmby2nz2QV3ZHeY10Vh97Sb4+wHArxssckCNe4OWQiIpooMXtmn/FTezjsxkV/P4Ghr/Rmkq9cf9FJ/zuKBYlgcNvJZ8GkZzCjgWLosDfyrIEw78Q9V098IeGfs28dMrTL8Eiue8R27uW16Prhy64BHHLHTT4+pFPx6UdIOmijcJXlkFtUMBdqRMfDoZDQRICAR43BVSBzCSXmkhs+deLPR7r+ncevwO0r/hqGVtmDoYLg2hsF46MFzVVDIuODxN+1zzvMVWoyGr/QABAZnH3Ztnxs24tuFcLVzKJbN4cBVAyZfTw3k0MhIXsSkUN+ceIejYFDz8LWeCyHxCfUVqSAuYmAGxLCDwjpVQ8vmv7BL//8PZv9odWDbjnxKZgx/wTQs3IjEQcptzdcr1eooBWMF8XQEx+yn13xQY2Dwz4JXBlsP2yZbwAO+NC6FVg693jiiq5kVOFyLT7hwrUFwMNzI/eF3XliPBympTjkD3phtlQet0d9HC5MGDl1uE8DQAZbDJmHYYiIcI8xuBcp7kGC20xKNw96yc1YtuxndV/EFwq67cTDAfMFADtkBwJFnrM760pAvChInnjvMS3EB4m3a4+H+rrq0KRw5TgD0Fs8WBK2KNgnFStcs8MhRddf1jomXKHDGcc6OYwWrkgOC158ehsBNxrQTUTJTcakNyWG7qBBcnc6Y+767p+/eSM/qULRDNAPTlyE3ZL3A/RBZP5ni+uADhW0wCaBs0ULmqs2RMYXFv9xc1UwvjauiG8Alkz1FqWDdCikCcKlt/u5QNkfgqOP6PIcijWhdg4BA9xDwDUAXQMkP0wXzfzwe594y72ujBWKpoNue+fTAfNlgJ6fG4koFqGCFhjvrDcB8XKRcM87cc/VE19I+OfsYU0S3wBsSWcWb32g91gzs9UgXE54DpZYDsVWrNEcOpd9FKB1MPi3NMXa75533H9X9VWqCsU4QdRPcPsdvw3gfAArcoNcRJgtStBcRaFAfCFBc9WdCEFUrly+/DUAi5JkEQ0GUtH1TA7Pk58k4ZJDYjkU2BKsAQ2S6GWPsBwK8XUqrpU94SEy9M8JmX94CIPLs5/PvrnGTBSK0YBuOfmZuP2OvwTwG7mRoDrltI39NHaB+BC9ccUHiaHDPvlcbUsEY+YuZ5pvAAYzM4uMMcIE9gLdFS5fdiU4FDbRwh4JmN9VM4ZnCulUfL2e08fXRLk67wyHAwCXEuiL09s8/K/X9096xJGwQtFa0J3Hr8D0ij+Aofch/1/99DR2eHxr3vUP2UfPVYLbVi0FvroJGGoAEuotJjMQc1XhcgTZwiVMW4xDISF7kgIcBlAxZPbxXJrDDUT4G0wln/nOWcf8is9CoWg3Zk/333kCBvQJGMp9V7vrIA4VtALvJK2HBQSxkKC56npE/Fi5Khgv8uyJL8PVlvsWA8g2AGkyWGQY9+YIF794U4TLs7A1Hssh8QmxjuU4lJusmjn8CZl0zfT9D//d9RedNM1noFC0H3T7KQfi9jvPAeh5bDEIKvAO+zjOGoTUwWDxbvhzzfxZB1dCfBVczSxbtNU03wCYlAiJ63sAmiBctkODhAt61wQzWziH14HMx65dc/QlejGfYpJBt550CIz5Y1D6Et4h4p0cayoYHy1orloQGR8kaK7aqlwFx2fXXbL1r4X/BNhD9gpAFS7nuD1lWfF3g7I/BEcf0eU5FPd9AQ6J8FOA+tede+w/zAr/Ma7FFYrWgqifYP0dh4PMBwD8RliRHrKH2Fp/GjsyPriQKleWOZ2xzwAkaTqdmp5zHhUu3hTSczjh2RCxHIqt2Fg5tLCeiN533YpffBH9fgoc5w1QKNoG2vDbu2HL1Ntw24YTYcyTnAeY/pe68PjWvOsfsjeOq2T+QtP5BoB6ZoA0P5drYnm8rcIVC1/2+TUEtqKjwrOwR1gOhfhyLGXWmAbo04NN9EH9T3yKSQRRfwq33XEwTHICpukoGCye3f+h72Th9rUXc2Xht0ULmutdT2R8YUEbN1cF4z1aORauyNgNwEy6aLqHge3sWGIShaspV/wvhAdw6Hqth2cSGiR3gow54AAUOLzKYPDOa845/meubBSKNoJoVQ+37voymJnVuP3O1TBml+xxEVqkI0Si6MVv0cI/ZA95c9ik5zr/sIlcCfGFhR9hXC1K7Y8AFg82DwbJlBXQTOHiFhXM5YTLkVY94i8kZE8icsgvHtxEI9dCFeaQHgHw4WuX/+Lc2dP9CkX7QRt+ezfMLH41QEfgdhyCZLAjkL+PqkSRdtmiBM118BeILyRorjpesaC5bJ3iyiUGjDFN5+vwwjUAWDozwEwmoLnCJTcIersf7zBqDg3MNYPEvFnv5Ve0GUT9KWy4c2+keB5S83LAvBLTtPdcg+uK4m3BHThXgyLXsh4WjBfF0BMfUjeDuYqIV67c8Qlmtj6abwCmZ6Y3Df8PqrYKl7sTc8wWKf56ux8zm/1EB4BZ8+j9Gz+o9/Mr2gBaf+JyYNnOSGceh4SejBRPRmKeAqJ9sf6uZwJmqX2Mh747g6M2hgp/5FrBguSJ9wqSEB8kSOPmylUkJ5yrmd58TZ5vAO55zM4P7nzvPXy4R5SaJFxyA1a3+AumYA59jj6ix87h+sTgTVeffczVnkRHBrr33dtisPTJoPTJIOwB0C4AdoVJtgXRDt4JFNUinf+RA7fhYj41Cnp3thhbv2TH0PYgLAKwMwjLgenZs/iEud8E9/ESUXgDjiOnbezvZAPXGrZ1lqsC8ePgqmfmzwBkPrR67ce/sYmApXws/+RihcvtNXbhEkOc2TsOFN482Rwa4JpkambVVR8//g5nijWD7jx9BZC+GMa8DITnAXgOgCeNK59uI7RIBxbORhTpyPjgdwKhzzUgXnyunvhCwj9nL/pcgZr2Rdu5csSX5Wows4fZ9/JbgOF/BDSLjRhuAEYpXKLFMz8CziyUgC/7/BoCW9FR4VnUzaEMQ+az969I3nNj/5gtJaaJBhEM7n7vc5GawwEcBtALALOo5EuuKAVXoxxauFxdbIH4xhfptnPlelOhXDlthbni9mRE/Faeh84AZBoAAh4EsKt/8hqEy+ngIt1hDij8TbnifyE8gEPXaz88U4joFeYw105kn/KHrzn36H7A6pWB7jz9SSB6KzbgLQD2GOXaCglC4QnxZYt0wXjPG5jwIh0ZX0WRLhI/EVxFxCtX4fHDXPWm7GsAAMAAG7PPbTzCFXz8ABjBN9O5FrbiY8RfSMieROSQX5y4R9VzuJmI3nbducd+2ZdeFaBbT12GxeY3QebtAB0AY913pRgrQotsQOESi6wn3ltkhfigIus6kEJ9XTVHuQqyRXHlKowd5mqw6NGtf+bOAJiNC8lOtHC5g0I6tArEn/iEWEfZy3YYDYf0IBGOvO7cY68U06sAdOfpu8LQ6SCcCMJ2da+niAV3HAUIl8sWXaRdezgyvnCRdh2koUW6LFcF45Wr8HhxT3rim8VVir2+/tDWB9lrAIjudy8wNBKgW3ULl3sjO2aLFP/RfMGPB4293c/cb2AOvfbco78jplcStP60nWHM7wJ0Kgjb1rmWoihCC09g4WxEkY6MDy4Aoc81ID66SRqyFxL+OXvR5wrUtC/azpVLZ2rjaqMxC4O5BgB3SSdVKftDcPSpW3nhko/1usVfMHmK0ARweC8ldNC1Zx3zQ0+ChUEbfm83pIvOgElPBrC8rnUUZeA6GEILl2vzFohvfJFuO1euWhIRH1BjnDblKjzef4Yk8x0s2QbA4K6qhMvt1XTxdy4rz5ExN4RDIV72cIwabDSEQ+oSfyIY3PXe40HmfBjayf7XqopmoFDhcdvEYyK0SBeIDzmmx1Ok3baJ4CoiXs8mhceHcfXA8IP8RwDsGQBi/pKSEoVLtJQVrnLwZY/cuCDz0VHhWYTn5+1TQqbD/L56BEiOvOacN/3AHxEPuvPUZ2FD8lkAL6ljfkVVCC2yAYVLLLKeeO8mFuKDiqzr4An1db3RUK6CbFFcud4NKVeMTTgDANqQf9e1wGWA8Lga4+GZnA5VCFeunQh5QTJp+RYWZFzoNuvmMICKIbOPZ5bDLWmavP47a970bWdqBUG3nroMU70zAXofMPzPqBXNQug7Dodv6SLt2reR8YWLtOvADC3SZbkqGK9chceLe9IT3x6u3GcAEjIbUu6sa3uFS554BOIvJGRPInLIL07co2o5JBBO+s6aN13uSy0WtP73n4Gk9zWAnlH13IoqEVp4AouR83gJiC9apIMKtMPeyOfqiS8k/HN25So8vrDwYzxcGaEBMD26C2SyIZXcqmbnNQLhci9umeoT/5DeYKuj7GY7xHDIHyzCbAsPP3ztucf8jZhaAdCG048C0V8DpLf1NRau4ya08Lg2bIH4QkXadUzUUaS7zpWrgClXrK0UVxENWd6WIvNv2pPhB1uweEMmLEi4mnqrmhCUmbKs+LtB2R+CY2O/JOnvrz3n6A+JqUWCqD9FG957Foj+EdB7+psLV+EpU6QLxmc2b5kiHRlvFZOI+M5xxfmV4SowvpNcFYyf5crdAHzrjw68F8DDMcLlcRiXcLmDosRfMMmJRYm/x2FcHP63wfJ3AsaXYDDo7jMeiw0PXg0yZ1Y1p6IOMBuuaOGZdykQnxmOjLeGIuLJVaQD4pWr8HiRK098NFdDti5zZcydw56ZBmDWxdwSI1xur3GLvxwiLOtcwzaXFH8EcCha/PPLHs7R+yjpve6ac17/oGeBYNCdpz8Jg8GVAF5U1ZyKqsEVngDhcsV7i6wQH1RkHfHBRZaxlTrlX5argvGd4Cr/sGB8Zk+W4SoyvjFcmfXDw1YDAOBXzReuEPiyC3uObk+fNWB+7vjLx4d0Kr4+JSQdLOxRY+jk685a/Ut/RBjojtP2AegqAE+tak5F1XAVHs6vTJEOiC9apC33iHjnu7PA59qId/0RXHeeq4h4lqvA+KZxlaSZjwDyXwcMUPp/zMzZRcYuXLl2giVYSsu3sCDjzg0oJmRPUoDDACqGzD6enRxedM3Zx17sTC0SdMdpL4TBpQB2qmpORZVwHSsRwss+LBAfVGQdtpAa4DxYCj7XeVNXuHIVLeWKtZXiyqUOJbl6eEZuAAjm/wyfOfzC5cnHaywlXO6gEYk/8QnZXqU5lJusEhz+cvHy3mm+1EJBd773NQD+BcCKquZUVIk6Ck/BeLHAe+K9BV6IDyrwDrtyFR6v/9EvPL4oV/4m6VHzvHX3D1utBiAx+JW0r2Xhsh1GJFzuoJAXsTLxdw5nHOvkkN8QwmwLD1MyeMu6/uqH8hFFQOtPfQFg/hkq/g1FaJGtpPC47d7jM6YYRcS35l3/kF25Co9XruxBws35EasBSIl+xf4Hdr3dzwnK/hAcfR1CeQ7FfSBwaAjnX3vOMdd6EgwCbTj1yaDk3wBsU8V8iirBHScBIu+yjbxIu46BiPiAY8NpG/u7/sC1hm2d5apAvJdnIb7pXBlY13XZZwBmejfR1CAwuaFFxiRczqAo8Rfg2Uyx4u/2GiuHv3x0xTZ/4kwtArT+tJ2R4lIY7FbFfIoqEVp4AouRc9974istshHx+l/q5LUyJuUqOL413w9BVgNg3QXwzf5r7wJw30JMo4XLmZI4pRAgyHx0VN5T5FC0+OcPe56ucPM71/ePfKTMFABA6/vLkeDrMHh62bkUVYLAHqS13YMtxAcV6bx9zhZcpMsImoOrIs8141IXV474wlyRchUT36bbRsn8b97K3QYIGPx8eKLGCpdnDTF7ZrPx+8Aj/i3/kiRj8E/Xnnv0N53pxcA89Hnot/k1DFUUnvzDgvGZYy4y3trkZYp0RHznuOL8ynAVGN9JrgrEz7sUiCcENgCE/ykvXLaraI4ULmdQJq16xF9IyJ6kAIcBVAyZfQ2CyOHmmTSt5L/y0R2nvQuGfrOKuRRVgCkGhHEVHvaYC4q3hiLiR/Yf/XI25So8PpqrIVsXuRJ9hXgCgIH/GgAAMIZ+RmmAtovCJTcI7b/i38uOR/z5xUfLIT753XOP+4UnQy/oztOfCdCasvMoqoKjaIX6OjdlTOHhhiPjg4ssYws4Hpy21l+8FrDWsK3TXEXGt5erGWx60PofP2wDkKb0M4C9F2BhxgaLf/kr/n3i7xwecmz8XRMP0PTUOWKKAaA7T18B4GIAy8rOpagCoYUnoJhEC/+QvdIiGxGvF6+FxytX4fGtudBvyJ4d/oV5wfXTeU+2AaBe8j9mEE7kiIXLM2VZ8XeDsj8ER1+HUJ5DcV+EcXjudRes/rWcZwAMXQjCM0rPoyiJsoXHtSELxBcq0q4938Qi3XauODGMiFeuwuPHfoZk/sGPuVnYawB23PLQLwHMsAuMX7icppCewwk5sWjxd3uNm0MAwD2Ll0/9qTPFQNCGPzgYhLeWnUdRFq7CU6ZIF4zPbM4yRToyXi/0C49n62oZrgLju8QVwVF8A+LnXQrEZ4aHHhjzIyaIbwC+2l+9BchfMVihcDnGy8Anu/k1BJmPjgrPwh5hORTiy7G0dQ1zYdn/+Ec39hcD6Z+VTkdRAkwxaEzhiYi3hiLi9UK/8Hi90C88vixXMU1GnivRV4iXnmuKG5hgx10AsxgKqFi4AlSsKVf8L4QHiD+3Z/IzOR24TeD0cPjkXhX2idIjiwf0KVcWwdh545kg7FV6HkVBOIpWqcJTMD6oyDrig4ssY2vMV6yGxOe5KhDfGa7yf5blKjJ+Erky0+FnAADAGHNDZuYA0a5XuHhTneIvJGRPIoo/v3gAFUNmX4MQyKExf7nuvGPvceYYAFp/5hNBppLbBxVF4Co8nF9A4XAeA574zDDnK8RbQxGFr2lfsRoSb3EVER/ElSNeuQqPD+aKsTWbq7vNPlfdwQzyFwECQEr04/n7AEThItZnYbQi4XKa6hN/4hNiHWUv22FMHFKSJBe68wxEMv1ngNEv+Rk5XMdCoHA6N2GB+KAi67CFHOPOg6Hgc503dYUrV1EK5cpV0ZQr21SWq4Lx4Vyxp/8BoQHomakbUpouJVzuZB2zRYq/3u7HzCZySFdc/Ymjf+5aKQR012kvR4rXl5lDUQRNLDwF4kOa9+AiHRGvXIXHN/L2QM+8Rblq5HP1xEc3SfSfjgndHwF88wOvvRWEe93T+oVLfj3rFn/B5BF2yv4QHH0dQnnxr5RDMp92rRSMgXl/6TkUESCwm6i5pxt5uzUUEa8X+oXHN/ZCPyG+EFdztrJcxeaacSvBlegrxEeLPwBKnN/yKl0ECAD/xU87bvF3LivPkTHz47Hi7/YarfgH4O7NDzz49digzIp3/cFzYei1ZeZQxMBVtMoUnoLxRQrPcJEO8mVsrbogK89VgfjOcJX/s0C8tSeVK9aWJt9hBgB4GgCi2QsBWeFyR3k8ooWLifbnIK/ms4bNL4q/aCnLIRPhKRyG6OLrLzrJ+k9QcYuk74f8LyIVlYEpHI1415/3FeKtoYjCpRevMb6OeOUqPH5yL/Tj7YRfmGd9awMzCEC4BgAAEoMfOYXLoVDe1yXv7xGuYZMouwxB/NQe8a/9dj9uUcHM+uRelQAOTWK+EpCRE7T+tL1BeGOZORQhcO3/QOHkilaob94WVGQdtpDjWirwMWtZJuUqyKYX+oXHj/0aksC1hm0EwBjn6X/AcwZgBoPvB3MGoM4r/usUfyEhexJR/PnF2SZqpBzSLVeffcw1/IqBSOh0+D8yUpSCq/CUEbSC8ZljqkyRjoxn93NMkc7bA+M7yVXBeCdXAfFFubLcI59rUa4IxbmadykQnxmO5Hp4iOA8/Q94Cvr+6X/+N4CNVmLssvWJv2dhazxW/IlPiHWUvWyHGPHnDxRhtmAOzb8AJuAJOrJa318OmNVF4xU+MAdzYwpPRDxbpAPjG3vxmnJlPywQX4irOVvR5woUf67zbiW4En2F+KB94YjPD6WD4mcA+v1+CuA/xydcW/8sK/5uOF9jy7H+2/3EPVOCQ0ro312rBqH34FEAVpaaQ+GAq2iVKTwF46ssPDHxrbogK89VgfjOcJX/s0C8tSfLcBURPxlc3Ydn7n4jEzAP/yldou87150bqEu4crPHhOUM/ByU/eFG2273yy758JJlW650rRwEohNKxSscYDZNI971RxROayiyyLJ7ObDINoKriPggrhzxylV4vN42OvvLYK0xXx0wQfMQLwKcncp83wgXQNQlXM4prQGHl5xYtPi7vezNRsIjLl728MX7YNau67/t0aLRdPcZj8Vg8JqSSSgycO37QOF0brgC8UFF1mELLrKMLaBeOG3KVXi8XugXHt/WC/2c89JljoTm4W0AUpr+fs9wblV8M50bPtlFblyQ+eio8CzC8/P2KSHTIa6JIgAw9G3/rAJm0uNg0Cs1h2IITSw8BeKDNm5okY6Ir+U/t7nsylWh+KJcTdxz9cQXEv45ewhX6SJvA+D9CGBd/6hfAbhLXC6g62rKFf8L4QHi7Wooh2fi9pJz0bzZ1yCU5zBBehW/eiAM/WapeMUcCOxm0VOzYfEiV574aK6GbMpVeHwhruZsRZ8rUPy5zruV4Er0FeILiX8UVzebZ13xv8xABqG3dX0/u1z9wsWCIZyf2iPuE3u7n/XgkfuXL3b+H2gf6O4zVgLYr2i8YitcRatM4SkYX3/h4W2dungtz1VkfKe4yg+V5SoifqK5Mt53/0BgA0Cg64b+tnKyFx96VEy4BJ/i4h/SG2x1lN1shxjx5zeDMFskh0Ov0Q9v7K/e4srCi0F6AAI+JlJIYDZKI971RxROayiyyLL7N7DINoKriHiWq8B45So8Xi/088T7P/8HAot7QuYaMrlF6xUuhw/ZJjGf3LDzhRt29IxXIP7iHqiWwx+5sggDvapcfJfhep0ChdO5yQrEBxUOhy24yDK2gP3ttClX4fF6oV94fOuvtwlYC5gBZq5wLJRB0BmAh7fd9F2AtoxQuELDcgZ+jljxd3s1XfzzQ6ZkA4BXl4zvKFyFp4ygFYzPbLgyRToynt27MUXa3s3KVaigleXKE58ZLvBci3KlZ0gYXzb+22bf637NTGohqAG47r2rN9HWd5OFhEsOEfTSuYZtFsRfXiUzLoq/aPHPH0JLUXDZG0M/Ljzfbe/bCcCzSiXVOTAHY1ThydkaVXgC4xt78ZrAtXIVHl/ouc7Zij5XoPhznXcrwZXoK8QHceWID+aKsaX0L8wAixPOEt4AACAASURBVJj/7V7if8n7ZDVMnN2eHmvtX/DDbRinh8Mn106EbIBMWsz49KJf8tkEYGrzS6D/+z8CrqIVc+DnH8bGj7nwdOritTxXkfGd4io/VJariPjOcQUgTf6VGWQRXOAJuGZkwpUxC+JPrDXnU4/4B1AxZPY1CLVw+MB1F6wOOg3Ewzy7eGzXwGyORpxujCic1lBkkWX3bGCRbQRXEfEsV4Hx3fs62hq4CoiP4ipnazVX9EPznG/fzASyCL7CO5miq2k6/1XwtQgXSyA/tSN+ftg9Pu/F7TFnPtxDYn0WRslyFWeL4NCzsPceUA+0AfDC9doECqdzYxWIDyocDltwkWVsAXvaaVOuwuPHfvFa4FrDts5yVSC+Kq6MCT79D0ScAfjW+1+/ATBDolKbcFnjxcTfOZxxlN1shxjxdx9IjtkiORQvnDS4xZVVIPYqGT/hcBWeMoJWMD5zzJQp0pHx7H6NKdJ5e2B8J7kqED/vUiA+M1zguRblSs8mMb6OeJartJ4GAAAM0msWEsrmkcvMDg4VrpxzyNTWcEgHMFm3+9lpkbnblVkg9iwZP6FgDsaowpOzNarwBMY39uI1gesuciX6CvGFnuucrehzBYo/13m3pnLliA/mirHxXP0K+1x7AzPgRFQDQDBrywuXc/KQBETnWPF3e9kvDnGPhCcjp1o/h4mhwg0A/d8f7gBg+6LxkwtX0Yo58PMPY+Pze69AfPWFJ8zWujMkea4i4zvFVX6oLFcR8Z3jivMjAOZiY4KUdB5x/+VtylyGmYX5i93u5wsi5i/HhBFR4VnYI6z4C/FRr0AkQjlMU3NP4UWWzDyucOzEwlU4PH6cXewOPfFW4YiILyz8iBAzxq5chccrV+HxUVxxezImfsjeVK5SXOxY2ImoMwBXfODI2wH8j9vDJ6uuJ2bH8zx5xL+rt/tlzFv/SB/kHQNA6S6FYycOTHceXXjKFOmh+EKFZy6+cOGhyCKtXIWvlTcx/Inxea4KxneCq/zDslwViK+Xq/81z776esZJRJH7vC8H6hSuOPFf8Ckr/vziARo+ZPY1CKMSf4CQbOadg7BzidgJQhMKT/7PAvFWgY8pPJxfmSIdGN8lrghCgQ94rs766InPDEe+VtZQ5L5oPVcR8UFcOeLDufoSs7gX0Q2AQfKt5l3x75V1/vj0OBD3yPlUuAIkzFYzh8akxRsAk2xbOHYiwBxgUYUnZ2tU4QmM1wv9wuPLchUqnBxXoq8QH/RcHfFFnyuo+L6Yd5tUrhhbzMduJv70P1CkAdi0aS2AGTGhDO9xwmX7uGXbMzzk6Ptc3n6hiHvknITbaMJsIZuiJIeGUPxbACldWji29XAU+KgDP/8wNj6/3wrEj6TwNIGr/J9luYqM7xRX+aFYrjg/5Yq1BXMFwJj/MvtecyM/KCO6Abj87NUPAPjOQlI5RAmXYPIIO2V/CI6+DqG8+DM67J6tcvHnTalJfE/cDZMsKhzbajAbQU83yrlm3CaBq8B4/Y9+4fH6H/3C44O5GkKa/r3s4Eax//Vu8E9+4XLASww8xA+/ph5iGn+7nxxSisMyMGnc3SGth6PwhAgfF+8tHEJ8UOFwxAcXWcZW6tRsgHC54ieeq7ypLFcF4zvBVf5hWa4KxI+Eq5xDD1/0OblQqAEgpP8I4X5Dn+wiNy7IfHRUeBb2CCv+Qnx56fVlV5bDgkiT/P98nmA0ofDk/ywQbxX4mMLD+cUU6f/f3rnH21VV9/439knCI1Eq1Ad4tYqgJockrUmvNoAFS4v4RJGISvnU2/q43t5qr1W5eqsp1AoqRfH68dF6Fan0o/HRohUVAyHnJBEkoMIJj/BULCThJRBykpyzxv3j7Jyz91pzzjXmXHutudZe4/v5QPYaa/7WnGuctecYY5659wnUW30l0Mfw1VCskHj4OnOqbb7y0It8ZdF7+SrD1bRk0z2ShiaCEoD1a153N4Dr+4x97y3LwA3ONd53XvDXj/sh34dTaavSh+EN5jXxpGy1mniE+tpu9HPog3zVtRX1le9Y+5oV8JWzrUMvuleLPvS5AKuvfPRhVX9PU7pE3jhL8J975QTfmTvo/ado4Mq5+SH/uF9Ox5nzQT5sPbYJ3ueNnz701acnngB9JRNPHXyVfhmgz7y/1FdWWyFfmdoV8ZVQP9S+sjKJPbu/5SNIE5wAjHSStQAqC1wzpwXOyQ3+2QZsOooU/Mv81IQCGH/4utzoHmtfs2HwlVCvG/3k+tquJjl+VrX3VR78HVq55TcBwlmCE4B1a15/GxhbZ4dSYuASx7UWftzPPR5lDsvEIwl8Jn3uxOHQiyYOi148yRpsutFPrteNfnJ9q1ZIqvKVACq2/A8USAAAgIGvzvybF7gcppx75/7/ORrmObF48HfOY4WDv7XbfNwDU8QTj3AyiDLxpE956o3Po88kHai3+kqgD/VVprnnvYb6ihHuq9kmAfq+056+br2vPPQiX1n0xTb6GaB7MXHEjwLFsxRKAEam6CsM7DOezDjK1cZ8nvv/Z6dmH/fzJW/06T4c3lL6MLzBnBNPjr5WE49QX9ulWYc+yFddW+i9AuH3OtusgK+cbR160XNh0Qf7itVXPvpBVv1z8i/R6rXTxS5SMAFY9w+v3c6cXO5uFRa48lTpls7g77TkX9/3R1W7v5PQSmwTvM8bP33oq09PPAH6SiaeOvgq/TJAn5ngi/jKQ986X5naFfGVUD/UvvIiwUjy5aIXAQomAADQIfy/jLFg4JqTC4K/ycfpK0n8nReDrW1S6YQG/xpgmDh0udE91r5mw+Arob6yb6lLXVd9Jdd7+6rHVntfhcDfL/LZ/14KJwDcecp/ALhvzpB5ERa4Kvm4HxvbzJ3lTFPn1SQ/8NwHCoPzYeuwTDySwGfS504cDr1o4rDoxZOswaYb/eR63egn17dqNSntK099GUv+vRD906AuVTgBWL/mxCkmzOxGHEDgmjktcFZu8M828An+5gfJcTXP4F/6pyYK/3aoaUgnHuGbOcrEkz7lO/GY2vlM0oF6q69y9H2nA+411FdDsULi4evW+8pDb/SVUD/wjX5G7sOO+d8f1MUKJwAAQJR8Brx/M2Be4LKTE9d6Gpb/cT/n81N68HeYBuXDocHwBnNOPDl674mnx1a7iUegL9VXDn3QvXZtofcKhN/rbLMCvnK2dehFvrLog33F6isffdlV/34In6cT1w/sa14HkgCsX3PavWDq+3vEdl+ancL9/7PTio/75SUIBX04NNgmeJ83fvowUN/3syky8XjqW7U0mz5V1Fce+tb5ytSuiK+E+qH2VWH2IJn6wiAvOJAEAABG5tHHrdF5wMHf3koY/B16d4tiP9S80af7yHGml2r4MPygdbnRPda+Zuorkd7LVymb+kqu9/ZVj632vhoYl9DSa7YP8oIDSwDWrXntLwBaB5QVuATBX6B3Nc19DtLtJT987v0nr2OHN6xvjl55qQ9fTbBMPJLAZ9LnThwOvWjisOjFk6zBphv95PpGrZCkfRWgb42v0i+L+spTX9WSf9/lO58Z9CUHlgAAQIfxiXICF5uf7fSVTM+VtdO0OS9B6DfWJfg7BjSESCce4Zs5ysSTPuU78Zja+UzSgXqrr3L0facD7jXUV7pCYmhr0auv5PpqNvoZoB/S0rFfDPqqA00Arvz7U68A6IZZw0ACF5vnPUMz+6Fp4u09a5rYHVczR2iHqbzgz+YBDRmGN5hz4snRe088PbbaTTwCfam+cuiD7rVrC71XIPxeZ5sV8JWzrUMv8pVFL/aVwaa+kutjVP2zTF9YxlUHmgAAxCB8CIAwcAkumRv8sw18gr/5oXRczTP4l/kHfsQ+bDS2Cd7njZ8+DNT3/cyKTDye+lYtzaZPFfWVh751vjK1K+IroX6ofVUKP8Po5sLf+29iwAkAcPU5r7ucE6xzteH+/zka5jm4ePA3xGH71QYe/B0m98DkPmw0hh+uLjca2hps6iu53stXKZv6Sq739lWPrfa+KpFO5++Iyul04AkAAFCH/7flKfEO/vZW2R8Mm46sF9CP+9UXy8STF7hs+tyJw6EXTRwWvXiSNdj0W+rk+katkKR9FaBvja/SL4v6ylMfdcl/lp9h8di/l3XxUhKAq8897acgfDNtZ8MrM4Lg77TkX7/MH2Pe6JE67wjz3qrmI514hG/mKBNP+pTvxGNq5zNJB+hnmwTo+04H3Guor3TzmqGtRa++kuujbfQzUGL1D5SUAAAAM38IPX8qeO7nKAiMJv/3nu+7oOW8o03uc5FOJ4wPg2tYeR07wrj1zeLpw8ZheIM5J54cvffE02Or3cQj0Bf1lbOtQx90r11b6L0C4fc626yuvrLoxb4y2PRjo3J9Par+/d3ehMVjl5XZRWkJwIa/f8M2Jv50n1E/7td33if4OwaUvUjj4r9tgvd546cPA/V9P6ciE4+nvlVLs+lTRX3loW+dr0ztfHwVqLf6SqCP4as6Vf376eBDREjK7aJEdo0c8BEAd8w8CwJHSmKXM/ibE4S5s+UF/5yOM+d9g/9AfVgrDD9QXW40tDXY1FdyvZevUjb1lVyf6yuHPqavRGOtlKtodGOp1T9QcgKwZc2rn0AHb4PkV+4V/IEfi9B8Ncmbp++Slo4ND7TofZk+LXkec31YJ0wTjyBw2fS5E4dDL5o4LHrxJGuw6UY/ub5RKyRpXwXoW+Or9MuivvLU1zP4J0jofVV0VGoCAABXn3PaVQz+F2cj/bifbWA9wT8vS4j+0Hpgm3hM7eo68aRP+U48pnbCe61F1Z9u69BnTnn4SjevGdpa9Oorub6OS/6z8D/TsvEtVfRUegIAAAuSzl8D2GE8WfuP+7kljm6tfWTNBYM/8nxYFwxvMOfEk6P3nnh6bLWbeAR6573m6HPv1aEX3atFH3qv4PDnYrbZsPrKYNONfnJ9Pav+/TwGWvCRqjqrJAFY97HXP0igd8ISyp3B32nJD4zFf6x5o5MFZ3vLPKvg+qb3Q+2wBEOvN376MFDfN2kVmXg89a1amk2f8vWVqV0RXwn1rfRVoN7qK4E+1FeZ5p73KvZVJBjn0uj6+6vqrpIEAACu/uhp3wHjojlLXuAyvTEM5x1tMs+Ju0VtdvzPyYc0+DPCJ57ZJgH6vtOeeuPEI9TrRj+5vrab19RX2cMAfZCvurbQewU87jUqN2DP5Keq7LCyBAAAdj3w4PsAbBIHLsMzm9dmzsw5bfqNdQn+jgFlLyLxYVRME48gcNn0uROHQy+aZC168cRjsOlGP7m+USskaV8F6Fvjq/TLAH3mmSziK5s+KnvQ4bNo5ZZ9+U0HR6UJwJYvvmMfMO8MMB50uz/75mDTUYTgn9Nx5rxv8JfkBvsb1u4R7sM28ZjaFZl4BPoYE89QbMjy8HXmVNt85aEX+cqiV1/J9XX4Hn8pjHNoyaabqu620gQAADZ89NRfgfm/wRVFCwR/88TvuJpn8K/m4355DfMe4pgPueHN6Jx4cvS5E49DHzTxdG1FJx7fsfY1K+ArZ1uHXnSvFr3oQbf4Wn0l1+tGP7m+GUv++/kZ9kx+IkbHlScAALDhY6svI8b7s2eKB3/ns1p68HeY3APzDv72VqY3TlXYgqHPGz99GKjv87enPjNplTVJp01t85WpXRFfCfWt9FWg3uorgT7UV5nmnvcq9lUteBzUeUvVS//7iZIAAMCGj53+SQAXzlliB3+3RPb45LVyBH8PvTP4R8Pww9PlRkNbg019Jdc7fZWj9/ZVj019JdcH+aprC71XwONeawTTu2h0bGus7qMlAAAw9g9veC+ILjH9kIzB30rEj/sZHnTzM5wT/Ev/I0llYZp4BIHLps+dOBx60SRr0YsnHoNNN/rJ9a1aIVFfeekzz2QRX9n0teJCWjp+ScwBRE0AAOKH5id/wcAV9p+V6eGytrC0SaUTkjdl3zNZTvB3DCh7kdoG/7RJELhseuvEI9CHTjyZ5h76odiQ5eHr1vvKQy/ylUWvvpLrm7TRrw/aBHrk7NijiJwAABNrVu/dt2DvGxgY228TxPAesykI2IX12/EveFidwd/c+XT+VQtgeDM6J54cfe7E49AHTTxdm2jicEw8vmPta1bAV862Dr1okrXog33F6isfvW70k+ubuOQ/wy9B806j0Ym9sQcSPQEAgGvWnPnokx5f9McA/i0Vrvv+SVN28C++4z8v+FtP9zQs+keSBo0tGPq88dOHgfq+n4OnPjNpFZl4PPSt85WpXRFfCfWt9FWg3uqrHH3f6YB7DfVV8zb69bIDSXJyld/256IWCQAAXP6ZV+wZOeCppxPo4hmLO/ib37CW84gR/O1w//8cDfMe6MjBnxE+8cw2CdBnJh4PvXHiEepL25ClvsqafAJvEV/12NRXcn3QvXZtofcKeNxrLXkElLyclm2+JfZA9jMv9gB6Wb/mxCmA33rc2V9/BETvdgV/5/u0cPC3dpuPe2Dewd/eKi/4D/KXANI3oqWtdaA+E4/ptKdePPEYbILnzGor7KtAvfpKrs9538p95alXX8n1omeytuwCOq+i0Y03xB5IL7VZAZiDePy8M94DpncAMPyOxC/4+5IXdtN9OMK8t0o+iuwZzjkfjk8W7jPxWKoDl5492vbaMs099EOxIcvD1633lYfe6CuhXj82Ktc3dqPfLA+DcAodM7Yx9kDS1DABmGH8vNVfTMDHAXzPnNX/43512fE/JxcEf9Pznr6StcGg3hi+E0+OPnficeiDJp6uTTRxOCYe37H2NSvgK2dbh140yVr0wb5i9ZWPPurHRj36apSvagrhLvD0sTS6cSy/cfXUNgEAgE3nnfHTefuSlQT6ESB4BlPGugR/x4CyF3EGf3PnxvaFfgNgELdu85oloZDoW+crU7sivhLqW+mrAP1skwBf950OuNdQXzV7o18XuhbJ1B/Q0p/cHHskNmqdAADA+gve/MAz7sArGMmHAewBMPDgbz3fZw4P/mwekLGhu1W2AZuOBvkeYQxo4vHUZyYeD71x4hHqK9vol7Kpr+R6b1/12NroK2dbhz7oXru20HsFPO61ztA38ej0CbT0mu2xR+Ki9gkAAKxdu3p643lvOjdB5xgwfpRtUSz4D8fH/coI/oIg32ercuKx6MUTj8HWqG9eS/sqQN8aX6VfFvWVp75VvkqfKuorm762TILpPRgdX02rNu+OPZg8GpEA7Gfzeatv33j+GScTYTVAO2asZQd/hynnueT+/zka5j3gsYK/YRyFJp4cfd9p34kjfcpDr5vX8sc6a1JfifW60U+ub/5GPwB0LQgraen4p4maMfhGJQD7GT/vjLXJXloM4v+Lnk8KlPNxv7wEwXzeN/jbW0UI/rZxGG0+E49DHzRxdG2iicMx8RjbCvSh99rXpCxfWfTBvmL1lY9e/z6EXN/8Jf/HAPwvbD18FY1unIg9GB9q9T0APmy+cPVDAP7nqvd+7ZOY1/kwAWcCWCDV54VdpM47wry3Sj6K7Blj8C8dwRvUmezk6HOSKadekqxZJx5JO4tdP4Mt13tN8C32lVeSlLJ7J0k99qDA37VX9lzUEMI0mL8Env5w3X/Xb6ORKwC9bLrgLfdsOv9Nf57sHTmSwZ8A8JuZM6YHrvcfy4NmeCOZn/Gc4F/lH/gp7T0jqCRmmwiqk7S+77SnPnPKQ68b/eR63egn1xf1lTj4GnzlbOvQBwX/rj70XoGmB/8EwFpMYZSO2fSOpgZ/YAgSgP1svnD1rzd//M3vX3Dw5DOYk9VE+DEMUbzM4D/XpmjwN3fOpqNSg7/Jlp54BEmCSV/JxGOwNWpDVtpXAfrW+Cr9sqivPPWt8lX6VFFf2fS1YwcYH0OHj6RjNq6m5RtvjT2gojT2VwA21q956ySAtQDWHnf2145MEpwO0OkAVsy0KC/4z5wWPMi5wT/bwCf4+39dUpoEAGXHlHnpk8VLA7/juqJgZrGXsgwt0JfqK4c+OPBDfVWKr0zPpGdfrfFVjSDsBuN76HQuxfxFl9PRl++JPaRBMnQJQC/j573lTgDnAzj/+Pdccvi+BfQnHaY/ZuB4AM+ebSgO/nZycoOehmV/3G/QbyjbYIpUHAH6RkzSTfeVLTOV+sozoTMeqq9ybc7Jpum+qgW3gWgdGJdj6uArafmPdsUeUFkMdQLQy9in/vQ+ABd3/8Ox7//XI6aRvKSTYBkDS8BYAsKRAA6yP+fmB5b7/2en9I/7Fa/9Xb0PZuIJ0OdOWg69OJOr4yTddF8J9V5JVsoew1e1vNccfVDg79orey4qZw+AuwC6CYwJdPh67OlspheN7Yw9sKpoTQKQZuPH3/SfAL7d/W+WF7/70qePzEuePUX8NOLOoUR4CggHEZKFnGQ/ZZAYXhnJfea7+p6Vd6PE2g33yTuMbXk9umnKxGPRN6bq77FX76ttAH/b/EzlPM9BbVP998nSv3JyXbNgW6MbpddMsk1t7QSmnBP9EGB/Bhzjz1ze0399zaW+TixNfZ6rgbAP6DwOxiQIDwN4GB3eCXTuweKx+5vyef2yaG0CYOOaT795O4DG7uocOAOpZAVt07bg4G8Khh76xlf9gr5mSSbouV8/29KhoihDjiYAiplaV7IWuy7NyvXGj6wpitImNAFQHAQsgzey6vfsy3jYdF8pitI2NAFQDJg+BghUt4ztqR/4qoGjr8xh7CX/or5SFKWtaAKgCKjxMraobeyqv8deK18pitJmNAFQcmjSMrY0+De96hf01WsT+0pRlDahCYBiIXYla7HrRj+5vt6fwVYUJTKaAChCml71e/ZlPAzQ195XiqK0FU0AFAF13LwWe9XAZm+4rxRFaQ2aACg5NGUZu+lVf9cey1eKorQOTQAUC01axpZW/UJ9Lap+QV+9tiK+UhSllWgCoNgpvZK12HWjn1xfxFeKorQaTQAUM42s+j37Mh5WteQf21eaDChK29EEQMky+we7GrR5TTf6yfUa/BVFgSYAipU6LmM3verv2mvnK0VR2ogmAIoB09/sbtIytjT4N73qz+mrz2QUv5LveMNDuXpnzpDzrMTylchmsSdlPVcmevxXnq8up9ENb/EYlNISNAFQcihayVrsutFPri9vhWQ+gKdYr6G+kuvr7atFlgsoLUcTAMVBHat+z76MhwH6oEk6tq+KVrIefbXeV4H6gVX9gr4UJYUmAIqF4OVGt752qwY2exmTdAN8VWol67hu7Z6L2L4qXPVb9IoyhyYAipCCE09jlmaLVrJdu/pKrldfyfUa/JUBogmAkkPRiccUDD30jV+aLVoJ5/TVZ2q7r4quGjj6yhw2yVeKYkYTAMVBGZOsUO9VnaXs3tVZj33oq/6UXX0l1zfWV2S5ttJ2NAFQDHQ/mhSt6vfsy3gYoA+apE0TvKe+0VW/sK9eW2t9VbTqF/TVa9PFACUHTQAUM8HLjXVcNbDZy5ikK/LV0Fb9FruuJsn1+k2PihBNAJQcik48w1j1d+0Dn6SH0VdFK1morwpX/aYva1IUTQAUJ0UnHukkHVi1zx42verP6avP1HZfFV01cPSVORxWXynKDJoAKBbSk0fR6sxg96rOUnbv6qzHPvRVf8quvpLrh9pXitKPJgCKgDpWsh59GYNhgD54ko7tq6KVrLCvXltrfVW06hf01WsT+0pRsmgCoORQdLlROkkXXTWw2cuYpD31ob4a2qrfYtfVJLleq35lAGgCoFgoOvGYJniPttGr/q69kkm66b6KXfV79mU8HEZfKYobTQAUA9PIfnlI0Uk6sGqfPWx61Z/TV5+p7b6KvWpgszfJV4qSjyYASj66NCvX60Y/ub4xKyQ99tr7SlHkaAKgOIhdyXr01ail2TpW/cK+em2t9VXRql/QV69N7CtF8UMTAMWCz3KjdJKOvWqQc93cYGix1/JeY1eyFrv6Sq7Xql8pGU0AlCzGLw6TVmcebRtf9cNjkm67r4pW/Z59GQ+H0VeKEo4mAIoA6SQduLQ6exioj1H1l1IJO/rKHLbdV0VXDWz2JvlKUYqhCYDioOgkK9B7V2c99qDqrGtvRNWfsquv5PrKq/6uvRJfKcpg0ARAsVBV1e/RV6OWZutY9Qv76rW11lexq37XNRRlMGgCoBhIYPwegDS13NDluK54abUp9xq76rfY1VdyvVb9SkQ0AVByaPrSbNFKFh6TdNt9VbTq9+zLeDiMvlKUctAEQHGgS7ODr4QdfWUO2+6roqsGNnuTfKUo5aEJgGJBl2ZlbWNXsj129ZVcX3tfKUr5aAKg5KMb/eT66FW/sK9eW2t9Fbvqd11DUcpHEwDFTYwNXZUsrUoDUsn32veyjlW/xa6+kuu16ldqiiYAiplGLc0WrWThMUmbgqFPX033VdGq37Mv4+Ew+kpRqkcTAMWA6WOAQHuWZotWwo6+Modt91XRVQObvUm+UpQ4aAKgCGj70mzsSrbHrr6S692+ugeEK8HJjWDcAhrZjnmdRzA9lYDoAEzTb4H4uQBeCPB/BfilABbm9w/PREdR4qEJgJJD25dmh7HqF/TVaxseX90DxsXodL5Gi9fdZrlwL9fMXuW6FfNx4MEvA9FZAF4H8EHG/sW+UpT4aAKgWIhd9TuuW7tl6Ni+il31G+z18tVWED6KF/7214nWTlsu4IRWbtkH4IcAfsg/X/U0jIy8F4R3AVg005VW/Urz6MQegNIUGMUm6R69KKCl7V2bOKAVCf4GvfcydpW+sugLVf1FfGXxf/W+2gXw2djOy2nxVZeGBv80tHzTDjpm7AMgPB/gSzT4K01FVwAUAaUvzcr0tVo1cPSVOWy7r4quGtjsTl9dC+I30uL1d1suWBhaMnYfgLP4xmO/B6J/BvAkDfxKk9AVACWH1CTrrIRzAlJudecISEGrBpgJSKGrBgxHQLOsUGQO1Ve5em9fpar+rK++BP7t48sM/r3Q0o3fwAhWAnxHFf0pyqDQBECxqI3nugAAEXRJREFUYFqaDVzaFQUki14ckAy2QjvXfe81fVjUVwH61vgq/bJXT+dj8VVvo9G1ew3i0qDF47eB5h8H4OdV9qsoRdAEQHEz0Eo2p2rutRsrWY+AZAyGwoAkrvpT+lpV/UJfD5evPktLrjybyCguHRpdfz/mzz8JhFtj9K8ovmgCoNjJDUgmW5VVv60aDdQ7A1KOvva+MtiGY6PfDIS1WPyHf2UQVwq9YP0DmBo5BcADsceiKHloAqCYGfjSrFAfWvUbA5rnqkHIvc4eNs1XpnY+vgrUW30lXDUwt70d8w78C6I1ieEClUPLN9wFwlkw35Ci1AZNAJQs08CAl2bz9ZlTnlV/6KoBwyOgGSpZ56pBm3yVo8/1lUPv9lUCprfQ0Zc/arhINGh04+Ug+nzscSiKC00AFAOmQipwaVaiFwckg61Rm9fSvgrQt8ZX6Zc2Pb5Ao1deazoRnWl8CMCO2MNQFBuaACg5+FayHku7xkrWIyAZg6EwINVr81q+XuQr36q/8b56HNT5W8PJWkDLxh8G6JzY41AUG5oAKA7qUPUbgpxu9JPrh2mjX9pG+DwtXvegoUF9WDjvSwDuiz0MRTGhCYBioejSbE5112fzCWimdh6rBj4rFJnDgHvte9k0XwXqrb4SrhqI2nKCqeQiQ4NaQc9dPwmC7gVQaokmAIoB0+zvtTRrtmdOeehru3ktJ3irr2R6b1/RVbR0w68MDevHNP0LzDelKFHRBEDJQrxv7iBgaTZj8wlIBlujNq+lfRWgb42v0i899MRfNzSsJbRs/E6AfhpxBJV+K6LSHDQBULJQZ8/MC1t15rG0a6xkPQKSMRgKA1J9N6+Z7SJf+Vb9Q+or4h8bTtQYvjJa18ST0fpWao0mAIqB6clqq35DkNONfnL9MG/0M+kZ99ILN9xlaFBjkvURO98TsW+lxuifA1YMdB7qD0qmydhml07wDr0oGFrs9flztHL9UPlKoA/11Zz5JouwvkwnExiJVm89HKtjpd7oCoCSJeGdg13GFupru3nNsEIxiGXsofSVQx/kK+MKyW0Gcb1Zds2vAeyK0jeT/l0CxYgmAEqWDnW/vcx7aVbY1mBry+Y19ZW/PpskbTc0rjXdv1B4f5TOGTuj9KvUHv0VgJLlsSd+hYUHTgMYmTM6lmtFwcxir+UydI5eVLVb9MGBH+qrOcNjFlHdeTxOt8m9cfpV6o6uACgZaHTtXgA9n7EeRCVrWNrVjX5yffs2+jnaclM/1hZnNz53bo/Sr1J7NAFQzDC27X9hOpk95RlkjBN8kWVsob42y9hV+ipQb/VVjr7vdMC95vtqkUHcBGKMex8enPfLCP0qDUATAMVCcoPfJG1oZwtIoasGjPBKePbQY4XCGtAk+q59KH3l0Afdq6Tq77M9yXCiAdAhlXfJuJVOXD9Veb9KI9AEQDHToS39Bu9JOmtr1ea1tK98K+E2+Sp9KkdP/BzDyVrD2045AMSHV94xYUt+I6Wt6CZAxQzTT+cmYWngt9h185pcXyjwe/bVVF8xvcBywfqy99GjwL2baiuC+frK+1Qag64AKEboOZfcBfDdfpO0YWlXN/rJ9ZVW/WlfBeqj+CpZxhOjCwwn6gvTijgd06Y4/SpNQBMAxcWVxZaxTe2KBDShvgnL2GlbYV8F6GebBOj7Tgfca6ivZvZFHAw+9PcNghrDJ0bo9BHcfMQNEfpVGoImAIqdhH8wd+ARJGq7ec2RUGQCmkTftRsDmlAf01fOtg590L36Vv05iQ7xKQZhLWFGB8CfVN4x4SpavXa68n6VxqAJgGJn977LAez2q+4Cqu5ZU2DVPntYddWfDmi+lXCbfJU+VdBXzGcygwyN68fW408EcET1HfN3q+9TaRKaAChWaHTt40ByRb/Vt5IVBqRaLGN76Eup+h0rFH0m9RWA38HEsScYLlRDkj+L0OkUOlOXRehXaRCaAChuuHNJz4GpgWcla6tGA/S5AcmhFwUki94ckGQ23egn1+f6ij5gaFAr+OaXPAeMN1bfMdbT4msfrLxfpVFoAqC42b33MhAecFZ3aVuhgOaxatC4ZWxTO+G91qLq9/hZGat+j+dC5Cs+mbce+xLDRevD9LwPAphffcd8cfV9Kk1DEwDFCY2u3YuEv5o5oRv95PqivhraFRLDz8rrOyMAJLiou8mudvAvjlsB8J9H6PphPMbfitCv0jBq+cZR6gZdBEL360R9Jmlp1S/UR6n60wHNt+pvk6/Sp3x9ZWrnCP4z/D5uWvWXeY2qhq9bMR8d/hxizLFEl9Cqzbsr71dpHJoAKLnQkZfeA8Y3daPfIKp+xwpFn0l9JYbofJ5Y9btyQQUcdOBHAVT/XQWEaUx1PlV5v0oj0QRAkdGZOhdA6o+KCCf5oftztDk23egn1/su+Zs5EEzf4htf/HRfYRnwjceuBuNv4nSOb9PyDXdF6VtpHJoAKCLod9ZuBfOXZo48gkyMP0fb99I3IKZPed5r41dIPHxtrPrL8JWII0Hzvse3HBv1LwXyL47/QxAuBqJ8R0GCJDk3Qr9KQ9EEQJHDCz4M8KOGE/ALaDn63IDm0GcCmmCsvZWsqBL2SXQE+tB77WtS16rf4OvBVP0mVmIaV/H1xz91EBfzhSeO/yN0ku8CODBG/yBcSss23xilb6WRaAKgiKGjLtkBwgX9Vlsw9Ky6+w4D9TGqfq+Apr4acNVv6mIFFiQb+MaXLB7cRQXdThz3dnDyfQCxViAmMU0fidS30lA0AVD8OGjBBWD8euagrsvYHvqiVb8ooPmukLTJV6XwQtDItXzTcWeV1cF++LoVh/DEqq+C+QsAYv6Fwk/QsvE7I/avNJBmfJe2Uiv47jeegoT/A73PjzGYAfJKVtg2bQtexjadKlLJeugL+ypQX3tflQDhCnToL2nx+G2DvCwzCBOr3gjQPwI4fJDXDuBuPJos0Y/+Kb5oAqAEwXes/hwI75w5kAYDg91ZyebonYmD47riSlQavGPfa44+KPB37ZX5qlSmAFwKnj6Plv7k5iIX4m+cPoIlvz4VoP8DoA4fPUyQdF5Gy8aujj0QpXloAqAEwff/6ULs2nsDkBxtOGtSWA6bUvXDI6CZgqFPX033VeSq3wVhM5i+Bpr+IY1uvl0i4etWzMfBB/wBpvEaEL0Z8Sv+ORgfo6UbPxh7GEoz0QRACYbvOu3FSDrjAOb1WE0tDYdFl7ED9LnB0KEfeCXs6CtzOKy+is4vAfwchFsBvg+Mx0D0BIBFSHAYiJ4D5heAsALAwrhDNXIdJidX0cot+2IPRGkmmgAoheA7Vn8A4POav4wdu+pP2YfaV8oA2IURetGg9zYo7UI/BaAUgp73jfOB5CvZM4xiAa1HH7yMXSSgccHgz2Z73r3ONgnU195XygBggN6lwV8piiYASnEePuztAK6cM9iWsdMBQRDk2KNtry3T3EOv3+iXP9ZZk4+vlIHAdA4dM579C52K4on+CkAZCPyr0w/F3mQzgOfPGTMvehVuW3AlazpVxyV/U5IUqI/iK1Pgt7VVBsilGN14JpE6WimOrgAoA4GetfYhIHk1gB0AApex0y8D9KGVrHEZ27MSLhT8m+YrUzuNSaXC+DEmJ/9Mg78yKHQFQBkovO30JaBkHcDPMJy1qQynPap2a0AS6htT9ffYa+8rZcD8DJOTJ9DKLb+JPRBleNAEQBk4fOfpL0AyvQ7AM3usppaW03VcxrZV/YF6a+Ig0DsThxy9Lvk3D8IWdPadTIuvfTD2UJThQhMApRT4jtOOBvNVAD/T0qLvH8NBjl1ayVrs+o1+cr1W/TEZwwFTr6KjrzH8FU5FKYbuAVBKgZ73rW3A1AkAUn+gpOd3xaKAZvm9vDigFQn+Br33kn+R4O/rK4u+UNWvwT8e9ENMTr5cg79SFpoAKKVBR112O6anXgxgbMZiC4ZFlvw99brRT643Jg4a/CtiLQ540mtp5ZYnYg9EGV70VwBK6fDE6QuwYOrzIH5r/ZexTYHfpy9T4PfR99hr7yulBBjgj2N00weJkMQejDLcaAKgVAbfduq7QfhHAJ1ilWxO27TNGLt8qv5AvTVxEOidiUOOvhJfKSXwGDqds2jJ2L/FHojSDjQBUCqFb3/Ny8H0FQBPT50xtRYGM4tdN/rJ9Vr1x+YWTONUWr7x1tgDUdqD7gFQKoWOuuwHGOHlAH4wYzH9Xtl381qR4G/Qey/5Fwn+Pfqg4O/rK4NNg39cmL6MA6ZerMFfqRpdAVCiwAzCttf8FQjnAzig50zfP4aDHHsZqwaOvjKHsZf8y/KVMnAIO5HQO2jp+HdiD0VpJ5oAKFHhba/5PYC+CvAx1S1jmwK/T1+mwO+j77Hrkn9b+S546m209JrtsQeitBdNAJTo8HVvn49D7v8bMP8tgIN6zpham23izWvDWPUL+uq1iX2llMADIH4/jW76cuyBKIomAEpt4Fte/VyM4LNgPsXSwmDSjX5ivVb9MUlA/DXsGXkvvWhsZ+zBKAqgCYBSQ/jWV54BogsAHNG1mFoVrPo92hZe8jclDgF6rfqbCeMnGOn8D1oydn3soShKL5oAKLWE//PVB+Nx/DWQvB/Ak1NndaOfj143+sXilyD+CJZsulj/hK9SRzQBUGoN3/y6wzCy930A3gPgAN3op0v+DeABgD6JhfM+Tc9dPxl7MIpiQxMApRHwtlOeh4TOBbAawEjPGVNrg6npVb+gr16bLvnH4CEQfQJTB3+Glv9oV+zBKEoemgAojYJvP/koTI98AOCzACwwtDAc6kY/pVTuA9FF2L37c7Ryy29iD0ZRpGgCoDQSvvM1T8e+qf8O8HsAHBJ/yV83+rUP3gbufBaL5n1Bl/qVJqIJgNJo+OY/Ogyd+W8H0ztB/Oy5E4FV/+xh7CV/3ehXUxIQ1gG4EEs2/kA39ylNRhMAZShgXtPBts0vA3feDU5eicyzXceqv2vXJf8msB3gr4DxT7R00x2xB6Mog0ATAGXo4Jtf8XwgeSeIzwTwVN3opwTSrfb5i9i9599p5ZZ9sQekKINEEwBlaGE+fQTbHj0RSXIWQK8HsLB7pqdR5gUMJ812rfqHla1gWgvGV2nZ+J2xB6MoZaEJgNIK+I6TDsG+zmlAciZALwUwohv9lB5uB/CvSJJLadnmW2IPRlGqQBMApXXwxMmHgqZfBcKrALwCsysDsy1MKsNL3ejXcPZX+t/F0vHrdUOf0jY0AVBaDU+csAgj808B86kAnwzgsFQL40td8m8kTwDYANB3Mb3vMlp+zb2xB6QoMdEEQFG6MK/p4Jarfw9MJ4HoJIBfiv1fNlSbqt91DcXAnQD/GOh8DwvnXaGf11eUOTQBUBQLfMMJv4UFIyeB+GQwXgbiIw2tbGqt+mNA+DUYV4DoCkwlP6blm3bEHpKi1BVNABRFCG89/nDw/OMAPgmE4wBeDNv3DehGv6q4D8A4mDaCMa6/y1cUOZoAKEogfOvLnomp5EQQrQL4JQAvBTBPN/qVBGEajF+AaAzAOIjGacnYfbGHpShNRRMARRkQfN2K+Vj45GXg6ePAtALgFQCWpFpZxLrkb+A+gLeAO1tA2AKa3kijmx+KPShFGRY0AVCUEuGJE56BJFmGEfpdcLIMwDIALwQwv9tCl/yBXSDcAvBWMF0PwhZg/g00uv7x2ANTlGFGEwBFqRieGF0AHDaKJDkGHbwAwNFgPhqgowFeFHt8JfIIGLeggwkk3X+nRm7Bsg136+/tFaV6NAFQlBrBW48/HFN4Pig5CoRng+lZIBwB8LMA/BcAT449RiuEnWDcC+Z7QHQ3mO5GJ7kbwD2Y7txDy8Yfjj1ERVHm0ARAURoET5ywCMnks8DznwbiQwE+FMChID4M6MwcMw4BsAgdzAdjIWa+yyD9714AuwxdTAN4FMDjAHaD8Rg6eAwJngDxLhA9AMZOEHYiwQ6gsx0j2IntIzvpxPVTlThBUZSB8P8BsyvDdVphMVcAAAAASUVORK5CYII=;" vertex="1" parent="1">
          <mxGeometry x="660" y="240" width="40.71" height="40.71" as="geometry" />
        </mxCell>
        <mxCell id="76_v_Vn0byet2OxlEZTQ-8" value="" style="shape=image;verticalLabelPosition=bottom;labelBackgroundColor=default;verticalAlign=top;aspect=fixed;imageAspect=0;image=data:image/png,iVBORw0KGgoAAAANSUhEUgAAAr4AAAFxCAYAAACV0auJAAAACXBIWXMAAAsTAAALEwEAmpwYAAAKT2lDQ1BQaG90b3Nob3AgSUNDIHByb2ZpbGUAAHjanVNnVFPpFj333vRCS4iAlEtvUhUIIFJCi4AUkSYqIQkQSoghodkVUcERRUUEG8igiAOOjoCMFVEsDIoK2AfkIaKOg6OIisr74Xuja9a89+bN/rXXPues852zzwfACAyWSDNRNYAMqUIeEeCDx8TG4eQuQIEKJHAAEAizZCFz/SMBAPh+PDwrIsAHvgABeNMLCADATZvAMByH/w/qQplcAYCEAcB0kThLCIAUAEB6jkKmAEBGAYCdmCZTAKAEAGDLY2LjAFAtAGAnf+bTAICd+Jl7AQBblCEVAaCRACATZYhEAGg7AKzPVopFAFgwABRmS8Q5ANgtADBJV2ZIALC3AMDOEAuyAAgMADBRiIUpAAR7AGDIIyN4AISZABRG8lc88SuuEOcqAAB4mbI8uSQ5RYFbCC1xB1dXLh4ozkkXKxQ2YQJhmkAuwnmZGTKBNA/g88wAAKCRFRHgg/P9eM4Ors7ONo62Dl8t6r8G/yJiYuP+5c+rcEAAAOF0ftH+LC+zGoA7BoBt/qIl7gRoXgugdfeLZrIPQLUAoOnaV/Nw+H48PEWhkLnZ2eXk5NhKxEJbYcpXff5nwl/AV/1s+X48/Pf14L7iJIEyXYFHBPjgwsz0TKUcz5IJhGLc5o9H/LcL//wd0yLESWK5WCoU41EScY5EmozzMqUiiUKSKcUl0v9k4t8s+wM+3zUAsGo+AXuRLahdYwP2SycQWHTA4vcAAPK7b8HUKAgDgGiD4c93/+8//UegJQCAZkmScQAAXkQkLlTKsz/HCAAARKCBKrBBG/TBGCzABhzBBdzBC/xgNoRCJMTCQhBCCmSAHHJgKayCQiiGzbAdKmAv1EAdNMBRaIaTcA4uwlW4Dj1wD/phCJ7BKLyBCQRByAgTYSHaiAFiilgjjggXmYX4IcFIBBKLJCDJiBRRIkuRNUgxUopUIFVIHfI9cgI5h1xGupE7yAAygvyGvEcxlIGyUT3UDLVDuag3GoRGogvQZHQxmo8WoJvQcrQaPYw2oefQq2gP2o8+Q8cwwOgYBzPEbDAuxsNCsTgsCZNjy7EirAyrxhqwVqwDu4n1Y8+xdwQSgUXACTYEd0IgYR5BSFhMWE7YSKggHCQ0EdoJNwkDhFHCJyKTqEu0JroR+cQYYjIxh1hILCPWEo8TLxB7iEPENyQSiUMyJ7mQAkmxpFTSEtJG0m5SI+ksqZs0SBojk8naZGuyBzmULCAryIXkneTD5DPkG+Qh8lsKnWJAcaT4U+IoUspqShnlEOU05QZlmDJBVaOaUt2ooVQRNY9aQq2htlKvUYeoEzR1mjnNgxZJS6WtopXTGmgXaPdpr+h0uhHdlR5Ol9BX0svpR+iX6AP0dwwNhhWDx4hnKBmbGAcYZxl3GK+YTKYZ04sZx1QwNzHrmOeZD5lvVVgqtip8FZHKCpVKlSaVGyovVKmqpqreqgtV81XLVI+pXlN9rkZVM1PjqQnUlqtVqp1Q61MbU2epO6iHqmeob1Q/pH5Z/YkGWcNMw09DpFGgsV/jvMYgC2MZs3gsIWsNq4Z1gTXEJrHN2Xx2KruY/R27iz2qqaE5QzNKM1ezUvOUZj8H45hx+Jx0TgnnKKeX836K3hTvKeIpG6Y0TLkxZVxrqpaXllirSKtRq0frvTau7aedpr1Fu1n7gQ5Bx0onXCdHZ4/OBZ3nU9lT3acKpxZNPTr1ri6qa6UbobtEd79up+6Ynr5egJ5Mb6feeb3n+hx9L/1U/W36p/VHDFgGswwkBtsMzhg8xTVxbzwdL8fb8VFDXcNAQ6VhlWGX4YSRudE8o9VGjUYPjGnGXOMk423GbcajJgYmISZLTepN7ppSTbmmKaY7TDtMx83MzaLN1pk1mz0x1zLnm+eb15vft2BaeFostqi2uGVJsuRaplnutrxuhVo5WaVYVVpds0atna0l1rutu6cRp7lOk06rntZnw7Dxtsm2qbcZsOXYBtuutm22fWFnYhdnt8Wuw+6TvZN9un2N/T0HDYfZDqsdWh1+c7RyFDpWOt6azpzuP33F9JbpL2dYzxDP2DPjthPLKcRpnVOb00dnF2e5c4PziIuJS4LLLpc+Lpsbxt3IveRKdPVxXeF60vWdm7Obwu2o26/uNu5p7ofcn8w0nymeWTNz0MPIQ+BR5dE/C5+VMGvfrH5PQ0+BZ7XnIy9jL5FXrdewt6V3qvdh7xc+9j5yn+M+4zw33jLeWV/MN8C3yLfLT8Nvnl+F30N/I/9k/3r/0QCngCUBZwOJgUGBWwL7+Hp8Ib+OPzrbZfay2e1BjKC5QRVBj4KtguXBrSFoyOyQrSH355jOkc5pDoVQfujW0Adh5mGLw34MJ4WHhVeGP45wiFga0TGXNXfR3ENz30T6RJZE3ptnMU85ry1KNSo+qi5qPNo3ujS6P8YuZlnM1VidWElsSxw5LiquNm5svt/87fOH4p3iC+N7F5gvyF1weaHOwvSFpxapLhIsOpZATIhOOJTwQRAqqBaMJfITdyWOCnnCHcJnIi/RNtGI2ENcKh5O8kgqTXqS7JG8NXkkxTOlLOW5hCepkLxMDUzdmzqeFpp2IG0yPTq9MYOSkZBxQqohTZO2Z+pn5mZ2y6xlhbL+xW6Lty8elQfJa7OQrAVZLQq2QqboVFoo1yoHsmdlV2a/zYnKOZarnivN7cyzytuQN5zvn//tEsIS4ZK2pYZLVy0dWOa9rGo5sjxxedsK4xUFK4ZWBqw8uIq2Km3VT6vtV5eufr0mek1rgV7ByoLBtQFr6wtVCuWFfevc1+1dT1gvWd+1YfqGnRs+FYmKrhTbF5cVf9go3HjlG4dvyr+Z3JS0qavEuWTPZtJm6ebeLZ5bDpaql+aXDm4N2dq0Dd9WtO319kXbL5fNKNu7g7ZDuaO/PLi8ZafJzs07P1SkVPRU+lQ27tLdtWHX+G7R7ht7vPY07NXbW7z3/T7JvttVAVVN1WbVZftJ+7P3P66Jqun4lvttXa1ObXHtxwPSA/0HIw6217nU1R3SPVRSj9Yr60cOxx++/p3vdy0NNg1VjZzG4iNwRHnk6fcJ3/ceDTradox7rOEH0x92HWcdL2pCmvKaRptTmvtbYlu6T8w+0dbq3nr8R9sfD5w0PFl5SvNUyWna6YLTk2fyz4ydlZ19fi753GDborZ752PO32oPb++6EHTh0kX/i+c7vDvOXPK4dPKy2+UTV7hXmq86X23qdOo8/pPTT8e7nLuarrlca7nuer21e2b36RueN87d9L158Rb/1tWeOT3dvfN6b/fF9/XfFt1+cif9zsu72Xcn7q28T7xf9EDtQdlD3YfVP1v+3Njv3H9qwHeg89HcR/cGhYPP/pH1jw9DBY+Zj8uGDYbrnjg+OTniP3L96fynQ89kzyaeF/6i/suuFxYvfvjV69fO0ZjRoZfyl5O/bXyl/erA6xmv28bCxh6+yXgzMV70VvvtwXfcdx3vo98PT+R8IH8o/2j5sfVT0Kf7kxmTk/8EA5jz/GMzLdsAAAAgY0hSTQAAeiUAAICDAAD5/wAAgOkAAHUwAADqYAAAOpgAABdvkl/FRgAAKpZJREFUeNrs3e1128a6huHHXvkfpILAFRiuQFAFpiswVUGoCkRVILkC0hWIrkB0BYIrMFOBsSvQ+YHhESPrg5Twzud9rcWVvc/ZgQAQwDzzcjDz5vb2VgAAAEDu3nIKAAAAQPAFAAAACL4AAAAAwRcAAAAg+AIAAAAEXwAAAIDgCwAAABB8AQAAAIIvAAAACL4AAAAAwRcAAAAg+AIAAAAEXwAAAIDgCwAAABB8AQAAAIIvAAAAQPAFAAAACL4AAAAg+AIAAAAEXwAAAIDgCwAAABB8AQAAAIIvAAAAQPAFAAAACL4AAAAAwRcAAAAg+AIAAIDgCwAAABB8AQAAAIIvAAAAQPAFAAAACL4AAAAAwRcAAAAg+AIAAAAEXwAAAIDgCwAAAIIvAAAAQPAFAAAACL4AAAAAwRcAAAAg+AIAAAAEXwAAAIDgCwAAAOzvj9R2+M2bN6me60ZStfPfN+4DAC9ye3vLSQCAnINv5GpJrfvnkftnvce/17kQ/MP957WkntMJAAAwnjepVQwirPhOXMid7Bly99VJ+iZpKSrDAB5AxRcACL4+1JKmkj6PHHafCsFfJK1EJRgAwRcACL6eAu+ZC70h9C4AXxKAARB8AYDgm2PgfSwAz7mEAYIvAIDgO5aZC71VhKdjI+lEw8twAAi+AIAnMI/v42pJ15IuIg29qewjAABAFKj4PmwiaZFYmOw0VH87LmugDFR8AeAwVHx/N5d0pfQqqI2G6u+ErxAAAOB3VHz/a6F4XmB7jRMN8/8CyBgVXwA4DBXf/EJvbscCAABA8CUoEn4BAAAIvgREwi8AAMCO0sf4zjRMBZazXtKxmO0ByA5jfAGA4LuvVsMsCCXYSPogljkGCL4AULBShzpUGoYBlKIu7HgBAAAIvs7ChcGSTMR4XwAAULAShzq0KmeIw329pHdiyAOQBYY6AMBhSqz4lvyTf6X8X+YDAAAg+GqYxaEu/Dufcg4AAECJShvq8EtD1dOHXtJK0ncNU4l1D/xvWkmNpCMNY3B9WWpY1hhAwhjqAAAE38dM5WeYw0bSuQuXh6g0VKT/8RTO37l9BUDwBQCCb2bB96dsf+LvXeC9fOV2KklnLgRbWoqqL0DwBQCCb3bBt5XtTA6dC5HdiNucaKhQV4ZBnRkeAIIvABSjlJfbPhuHXoslgVduu1bBtJLfccUAAAAEXw+sAl4n26WAO+Pw+5FbAAAAlKKEoQ4TSVcGu7IxDr27Gkk3VqeU2wBIE0MdAOAwJVR8j4y2eyJ/42M7DS/OWWi5DQAAAME3DxbBbilp7fk45rKZfozgCwAACL6ZaAy2eRroWCyqvkfcBgAAgOCbvtZgm0uFmwJsqfGrvg23AQAAIPimrzbY5pfAx7QaeXuV/C3jDAAAQPBNJPj2Gn++3kN9Ndhmw60AAAAIvmn7c+TtdREcU8dlCwAAQPC9rxl5e98jOa515OcJAACA4IsoVZwCAABA8MWudST7seGrAAAAIPiWoOIUAAAAEHwttQRfAAAAgi/SDb49pxQAABB80zb2LAyxLO/bjLy9jlsBAAAQfLGrZR8AAAAIvjHqDLY5CXxMHw22ueZWAAAABN+0bQy2+TnwMU1H3l7PbQAAAAi+6esMtjmRVAcMvVUC5wgAAIDgG8DaYJuLAMdRSbow2O53bgMAAEDwzYNFsGvlf6zvmWzm711zGwAAgBK8ub29TWuH37w59F9pJN0Y7Eov6Vh+hgpMZVNl7iX9xW0ApCm15zcAhFZCxbeTzUtulQujlfH+N7IbWrHiFgAAAATfvFgFvEbStexedmvd9q184xYAAAClKGGowzag3hjuVi/pk8YdLzuTzctsWxtJ77gFgHQx1AEADvNHIcfZuVDaGm2/0lCZvZR0rtfNjdu4wNsan5OvCX+flTtPraQ/dbeEc7Xzn3vdjb/uJf1wYX8jXugDAKBIpVR8JbsXxO7rJS0lfdFhY4tbDYtjTD2dyr+U1uIVEw2r1rUaZ2jJWsNQj7WYyxiJouILAATfp/yU38UnOhesvruQuXGfRkN1spZ0NGKY29dS0kkCX/e2MzCR7UuEG9dRWcnmRUiA4AsABF/vwXci6arw77yX9CHygDfVMG9xHeBvL10I7ng8gOALAHl5W9jxrsT4zkOHYPgOvD81DEmpA+7Djesg1QIAANkoreIr2c/wELONhmpvH9l+NS7sNhGes0u9/oVFwAQVXwA4zNsCj7lzQaZEJ5EFuErDDBY3kYZeaZhW7kb2s2wAAABjJVZ8t2IOWxYuJZ1GtD+N4q3ypnIOUTgqvgBA8N1X7cJvVcD33GkY4hCLqYZKb4rnfq1hsZKexwcIvgCQlrcFH/tGaUzp9Vq9pOOI9memodKbaoej1bBYScPjAwAAgm9KVpmH323o7SPZn4Vsl2H2pSH8AgBA8E3RUsPYzRx9Ujzz0S7kb1U6HyrCLwAABN8UnboAnJMTxTNn8Syz0Hs//FbcQgAAEHxTC4o5vLHfa3iRLZYgP1UewxsIvwAAEHyzcqn45ro9xEbDmN4ukv1pMg+9pR0nAABJK3k6s+eCTGpL1q4iC+2VyhsDe6L8hswgYkxnBgCHoeL7sE7DcIHLBPa11zBEI7a5Zc9U3otfF4l1lgAAKAoV3+e1GmYkiDHQrDVUGTeR7VerodpborXimjcZGaPiCwCHoeK7X5B5J+lc8VRUNy5cHUcYeqWyx7u2kibcNgAAxIeK72EqDVNzfVaYCnAn6YviHkc61VAhL9nGdZYAU1R8AYDg6zPgfZR9da/X8OLaV8UzL+9TfnruFGzcefmh32ezqN3nSEMl1idedAPBFwAIvtkE391wNdkJV9WIYe6b+2efyNczlb9q71JD9bvb839fuf37x1Mw34iqLwi+AEDwzSz43nehYTjES33SUOFNkY9q70rDLBabVwb0C9kvOkHVFwRfAIgIL7eN73+v/Pf7RI+7NQ69vesUfNLrX+hbaqjGWncwPnM7AABA8EV+LENep2Fe5TGD6jZInyfcGQAAAARfBDAxDL2W07bNNQxJSO28AAAAgi8Chd7KYLu9/KxIt5TdWFyGOwAAQPBFRo6MtutzVboT7T9DxCEa2b9EBwAACL7wpDXY5kr+Z7c4Sej8AAAAgi88qzRUNcd2GuBYOtkMeTjiMgEAgOCL9FmE3qX8DXG47zyRcwQAAAi+yCD4fg14PBuNP8SC4AsAQAT+4BTglSqD4LkOfEzfNO40ZBWXCSwksJIl7jq/lYZ5veud//v9YVCdwgzzAl4stRUkCb54rbHHr64jOCaLfWgjOTYA9iG3dc/GWvziAxB8gSf8G8E+bPga9nY94rZOZTOlHGCt1TBndyv/qzVONe584cd8nSD4Av6sI9qPlq9jrwZ/LBWnE4mZSjpT2KXJa55VAMEXAADLDt8icOAF8ALM6gAAwH4qF3ivCb1Amqj4AgDwvFrSlXhZDSD4AiM3LjGgcQOw+zy4FuPQgeQx1AGxeR/BPlQ0cAB2ngdXPBMAgi8ergr8PcI26oSOeTPy9toIjsliHzpuDyBJV2I8L5ANhjq8PiC1GiYqHyssXbhPr2FKre8altDdRHoOxp53dxv8Qx7vR4Nt9twuQHJmYqowICtUfA830fBW7y8NY77OjB6MlftbF5J+us+F4ht72hmd41Aqg7/fcdsAyanc8x0Awbc4taS5C59XGiYtrwLsw0zSjfuE2IeHbAy2+U/gjs3Y55XgC6TnQozrBQi+BQbehQu8oVfn2dXs7Nc88MO50/g/429Dvm+VbCo8P7iVgKRUCvvLEwCCb7DAO4384XwWQQBeG2wzREdjZvQ319xSQFImotoLZImX2x4OkrNE9/sfSeeSLj3//e8avzpSuc7HsadjaGVT7e3FUAcgNdbDrTYaXlr+997zoefUA8Zub2+T+hj38H9Jus3gcyO/L8FNDI9l4WH/G8PvfpH7I2TET8sTGZEUEqyeZ9cG1/l85H0Ess6RDHW4m5w8pwnKGxd+5x7O3cKdOytT4/DYyHZFpm/cYkBSrDpgpxp+wVpzioFwSg++24A4yfT4zgxD3Vz+xkBvw+/Yx9Eah96Nhp8zAaTVLliE3ktOLUDwDWnqQm+d+XG2LqA2I2/vTH4r5Nvvqx1hW5WGqYqujY/hK48YIDlHI29vTegFCL6hLZT/2Mv7QW879+9L1S4oXgfsLOzuQ/vC8zB3wX3mYX+XPGKAJJ+XYzrnlAIRKfDltoXyeIHtpZ9Dw2+loToa47FsV7NrnwnLE92ttudr30rpWPFyG7imn35GWZuLl9tAjtz7U9p0ZgvFPS+vr3Mg7VeNnMn/kIZD1G4fZ+6/9/rv1EAhgxRVHgArTgEQl1KCb6Xh5/GGr/z/w++RpJNH/v+thkpqk+D33EawH5eyWcoZgP0zZEz/ckqBuJQyxveK0PubqX6vftfuXNFJeLleVHuBVI393Os4pUBcSqj4LsTYwafOjTT8HDeTzcplpTkRqy8BAEDwDWAmxvTuE37PlP+0bj6sxJg+AAAIvgG0Gsap4nmE3tfb6PEx00AsKj3/c34vfqIHLDV6fjz5RrwrQvA98OF+xdcLT3pJn8QQB8TX+W8lvXed2+bAf3/b8H7XsAjDmlMKHJxFWnfvHe0ZeO/r3OeHuwfplBJ8H3SleKfgQn5OeRghArWGOauPNM4y7LX7tLob/7+S9E0szgI8ppH0eSfwjrG95l6HdC3pC+3OC2W4gMVMZS9QEeMiExMNK8exIEiGjxClt4BFZXw9+h5iNdUwE4vP6/6XO876wH0dcz/nAa9Vq8/1C77/udJcwKKR3aJCv+R3CF/lssfPAO3roW1QO/ZzO7kcmVnwreR3da5DPje6W273OuL9HPPBM/MYNgi9BN99XSn9Ffsq3S2/Hfo+WGj/X9gIvgRf69Dr89lcK47VYA8JwATfzIJvLMsR37iHUbtHg9C4iuhFJI3YWBWvKkCljdBL8A35jPAVeucRdpzvd3QJvgTfUL+4+Hg2xxJ4H8oezz1HCb4ZBd9W4XtcsxF+XmncDZViRfh6j+OvjCtuPhp4Qm+awfci8dDbJtA5fu4ZQPAtO/jmEHpj7Hgecm8QfDMKvteK/yeGl/yUmUIA3o7jDfmw9nWcDVk3yeA7Na6yVMZhIaXO4q8nvkuCb9nB17Kdtg69TWK/WD72XCL4ZhJ820AP97mHYBFzo/fac9AmVNleiJlCUg2+KYfeRukOgZoSfAm+OyyHBli/UDpL9B58qFhD8M0k+Pqu9t4EqPxNIguJYwXBSnGOlXpNNZvgG0/wbZVu6J0m2tg+FX4JvmUG31TH1sfePu1boGoIvnkF36agyl8dwU8t10ahv1W44SpPNaxUedMNvo1hZ9E69Kbe2D4Wfgm+5QVfy2qpdejN5WXsXzvPK4JvBsHXZwOxiCBohLoZrcYyP1Tlugn8gFiIZZxTD76Wodd6jtCcQu/20xB8iwy+lr9aWLbHMRSZrDrrBN/Eg29VWOgNFX5DVD5bzwFgOysHFd70g6/l/fFLtsOccgy92/urIvgWFXwnhufpyjj05jrP/oLge6u3iTe6E09/ZynpJKLj7iUdy99yhUv3N31au3P+l/vnyuBvbCRdSvog6Z37z72Qsm24ahK87xbKd6q8Wv5XtEM4jWGxqDNsjysXqnMtgEwlfSz94vwj8f338QVa3mSvbYQ/yX6s4baDcRnwOJfuI9dbbSW9d41pc8B2Ovf54YL1hvYpO6mG3rnynx96SseymNB7bdQude4+tLiOLDvNMZkRfNNVyb7iuw2Xsdq4UH5l/Hc+Bwy+963d5772iXNEwC3DwrDRsgy9U0lnhXxHFZdp9t9viqFXGn6RaPgKCb4xm3j4G+cJhKaV+1iej8Y9yPqIz8Oa27n40Ds12vaJYehtxBAAEHpDh96ZWJGzGCmP8T0y3n6neKqczznNpKMBxNZonehumI1VYK/4CpFJ6G0Mtt27+9Aq9NL5LEzKFd82gzA5lo0L6TPjjsaSWwaRmRo2Wtahd67wP61u9PivWrXymtbvzZ7tyvWIf/NYZfwaZTVMoJf9i9wxzNjUPRHsW4Hg6+GBvEnwYfXFOPg23C6IMPRaNVrWobdWmHG9a0nfXEO77zOudff/RxphPBIcp4mG3hCdz17D8MTvunvh+jmVu/eONPz6WnPZvUKi8/hO5H+N+VQeQJbnBfjtEaIw8/g2sptr00cFyOcqhT9dAz9GY1m5DvZPhZ+TdG7wvbSKd1GWp8JbqOf8hdKcL3t7Lfucr/d6xGzRuOdUDPMNs4CFp+A7N/4iq0RDiHWHgGoPYgi+qYfeVv5WIZwZHsc0cAAm+IYNvtPE2xpfi8VcGx5P5SEPsYBFJP423PZK6c41ab3v/LyC0CrZvTm+lJ85uy88PQu2i7JYWWpY/OWcy7I4U9kOM1ob738t+192ew3vClmO8+5d8H0nZjbaW6rB1zKAfU/8O10net6BEkJvK9ufcHt3HJ88deC3De8HsThFKRqlO7Z+y3p8fecC76Wn72Tj/t4pl2e+wbcxvmBT9sNw239zyyBw6LW499fytzqjZYPbu8ZvGeD76TRUnTou1exD77XRtn2F3kq21d617F/Ke8ylx04vwTdAI2h50abMcv9rbhkEYjVdUid/qzPWshvr1wdsbGPaB9iHXov299Rjh21muO2lbBfa2Mcqgn0g+CZkk8ExcLEjN1bTJXWeG4h/CgichN88VbJbbGUpv4tFfTbabqd4hhr47NATfAm+UVzwQC4uMgm9UppLKr80/J6ITnhOoddqmNFS/oYZyR1DbZQdYquyrj2fW4Kv8YULIH9T2fwsGaKRmsimWnap4afNGDvgNLp5uMok9Ep21d5YO3rLSJ8PBN8X9D4B5B96Ld4c7xXm5Y8jowAf81RiKxrd5C1kMy49ROjddkAtOp/riL9Dfn3JIPgCyFtjGHpDjT+1aHBTaNBodNMOvVOD7XaBQm+j8Yc59Ip/HuteTHOWfPBd87UBWYdei+mSQobe2qDBXSfyLOwlfeGyTs5MtmPrQ2gNtnmaSMduqTzeYSo2+Fo3uhwDEDb0VhmFXqsGN6XV0i5F1TclU9msLrgNvaGuhbGHG/UKM2d2Cc8Mgq9HFccABHNmdP2GnvXg/cjb2yitX756MdY3JRbDjEKH3m3Hekyp/ZKxFFXfpIOv5c3TJv6dWu5/xy2DxDptJxGErtIb3FT3GeO116FDb6XxhxstE/wu6IAmHHwtA1iT+Hd6ZLjt/3HLICG+lkD1/UxJsfHqRLWJ0JvPPZjq9fyVSzLd4Gt5wX1M/DttEz3vQI6hVxq3kp1ygFxxWRYZersI9qUeeXvfEv1O6IAmHHz/NQ6OVaLnZZJwhwMYy3lEoXfsjug64e/lO5cmoTeT4Jvyfbgu/eJ8yxcXJEBa+cwNg8J1kuYZH9/3xL8blOE08+875bbw39IvTsb4PuwswXNSGwd2Gi2koIms41qNvL1Nwt/NhsuzGBeK65fTMd99Sb0tXJd+caY8q4PlQ7SWzeTdKYd1gi9SsdD4P22+JohzH9LolqaSdJXpsfV8vQTfXB+gKVV9fQR1xueBRhfAvlrlOeyIzifBNxjrIFZrWLYxBRce/saK5zgS0ni6L3zq+VqRmDPlt5oo03om7o+E930lmxVm7t+0K8U9Nm0i+zGNXeSNbq2nf9pec6sXaeY6yLl02jq+UiToStIHOm4g+L5e7xo0y9BX7dy0sQa+hYe/E9Ok1637vHeVhPqAf3ftOjHfd/4z4nGq8au0C+Uzd2XDJQIPzjXuUL9tO/WJUxuFqvQT8Dbx/fcxiXTjKVy+NJT7uIhXgY9z6o71VtK1eyhPdPgLTK3b1kLST/e5IFBEo3Ph1+I+ocGKp7OOuM01/q8LE6UzdPA5f9OBJviGtJKfn0+mimuQfuUCoK8LeBrgGFsXWH65oDoxaoRnkm5cCJ7RGw7uUuMPTWkC3r8bwi/BN0GfDNrWXIoMqV/DxbdxqQffXv6qkWeRhF/foXd77D/lZ37Uqftb1/I7H2vtHszbKjABOK9G90y2y3n7Cr4pB4eWSzsZGw3Lfo/N16+U93Xcg9nsf/HBV5K+eA6AIYc91AFC7+7fvjL8+62GymvoOVgrDZXfn66jQwAO06HNqdGl0bp7hiAdK42/9HcdqA0dcyaGKvFr+aj0CzuH4NvJ71v7UxfQfF/4E/d3Qzd8uwF1jBBRGQfq1+yXz0o3fm90Lw2+U9/jfTsaLRrchJ1q/F8tJvI/3rc3aAdT1ZZ+Ub/N5DjOPf+9xoW/uacAdqX4qlVT3Y2Lfc0DMPZgGev5L8G5QXBs5XfIEg3uf+93pKWXzWwMvsf70gHlHswu+K7lf67WSncVwanR9ueRB8NKd+NiD22QLxILkxPFUXEvrdG1GPLge7zveuR7LsXGa0LHMVmdbIpLPp//ncH1nKKPXM75BF/Jf9V3q9bd9FhzvX4IRLOzvbNEGotaw1CF6z2Ov3L/u1mC19j2OKeCz0b31GC7PhvdDY0XDW7i5hq/uLRtO311ons6oFR8JUm3t7dJfZ6x0DDXa+jPjYaK5mSPINjov3PL3mbweWxWhMqdmxyOkfDrHiEjftpngurY3+G1p3M0M9j3KqFrpDK6B+cG+9p6vKbHDKVj7vNTQfWXwffoqwhynejzYyxTo/uwTS5HZhZ8K6Mbc4zPr52q6LXyCH/PHe8s09BL+PUffK3u7bmHc9Qkut+xBjOCb5jgu60YWnyXTaLXYZvQfWhVWCP4Bg6+VtUVPq+rfk8yDL2EX7/B1yKU+Gy8xg7tv5TOMCirYgTB13/wlftFb+zv8qeH69ni+ZFK1deq2ptk8M1pjO/WpcIusYvfq11XyvelsAXh15u1xp/iTPIz3nc98vYqF0Bil8p7CtifxWwrtezH+65lM8tK7FXfVJ4V3rzN9LhO5GcpY2BbAWk4DV6cGjS6lezn9/1msM1p5I1uS6cwS71sZluZyH6879pgm2PNaU/nk+D76hvzE18vPPaomec37Y5tK9txsyuj7cba6FYKu8olbHWymW3Fuohg0QGtFW9FtVWaMygRfF/RszvlK967o4DXP/xo6P01uhbTF1rO79sbhd9a/lej2zeQ11yqWbuUTQXVsohg1QGdKr5fN2J9NhB8PdyYS77mJ51Ieqdw8yDnZCLmSfR5b1s0YpaN7lej7baRdboW3AfF+KTxCye17CqovWEmiOl9j0r8Cvm4DGd1eOyCZIaF52ckqFXGVGvW07iV9LAJ+QZ8JZspeizf1LacqzuG8OvzWTs36kQwq8PhHf6UZsxplfdMP5X8zqLErA6RsnghJoeK2f2e70bSsftsOEUvfuiccRq86GXzkk0ru/G+Xw3PxzRwlYcZTsq0ks1sK1bjfdfGeSDkfdC4jnvDZflUuaaMim+IXlDMn30rQzPFuyDIY3NBxrJISF3KIySC6thc6czvW3m4p248N3x1oGerReekFRXfl7oxupYtOnJTT+2sz07oJFB7zQIWEQff3d4YwxsOa6gvFO/iGPNnGpfaPRAWnh8KpbzoFktIsGh0rYatzOUvGFo3vPOAnWOCb1zBtzG6FqyepT/lpxhjXf2tZbOkO8E3o+BbcvidvvLmimX87+KFFa3KnYOfouqbW/CtjRpdi7eifVR9d8P72AHY931E8E0j+G5/JUxl3OzE47V6bXAMdSRZhuCbSPD19VNHTC9cNSM+LEI1eDcjNSS+qthz5S+mkGB1T88MzttMYTqMk1eE4BC/nBB80wq+Mqo+jtmG7fJdzPnp2p6XXhe1e87F9BJ6csH3zchh0tybN2/G3FzjbtKcK3Nr2Uw5M5f0j/yNYVpqeElxzONoZfsy0EbDVHG5B9+xHOv184JeyWYqrQ8a/4UY32Nxd3Xu86/7Z/9A57CR9Kf7ZxvhtXduEH5bjTurxxjX9D7P4jFfqH1tI1u5gFcZXLPHI7cBjbsPQ7bPnaT/PXKd1O7z3u1rjFnl+Pb2dq2UFFzx3b1JQ46PSbniWMnPTy2W42Ub4wrWRHmLrTq2bXQtKjWVwbXHy7ZUfHOr+FqcR8u2YM69xHRmpeldRdSiKhpK5ypUcw/n7kS2y0MvZTNllWUVYddHbrEg9/PYaoNGtxMLxyBPa9lMcTbV+GNl52K606IQfO+sNPwsfZnwMfQahgN88Hwj14YPzxMP+98ZhveWWytIx88iUE40/nhfGl3kymr+fIv5fU+UT+ELBN8XBcd3Smup49419KGC+5HRMZ14PIa1UViqxWTiIcxlM7bSotG1/MUBCMnil9RK48+R27m2HwTfYm1c6Io9AO8G3nnAxrM12Oa5/K8ed2n0N1tuqSCsqjhjvxDZFxJ+e1HdLrEttQiUjeuEjmmpMoYebUq/KAm++wfg84gumG5nv0IG3u0DqDI475cBOxJje8+tFPT+HVstm/G+uVec+Dm5TEsNQwnHNpXNeN9l5p3P4ivbBN/9G9C5C5qf3I3h+wHeuTD4TsMY3hD78FgIGNvXgMezMjivDbdQ0O/ToiGbaPzxvkv5Hd6TQ/hBOp2ejcF2rcb7LjP+HorvfBJ8X9aQnkj6ywXQcw1jCce+mDY7DeE27J4qvp8pLEJdyIdOb9BAE3zDsrpvLBrdHMNvJ6pMpeuNrutK44/3zTX8XtL5JPiO9UCfaxif95fGGRN8urOt7c23ifgc/G1wTkMf7zejBzTCNbpWs3ZYLICydB3dPpNzz8t7kOxeIG40/njfbfjNZczvks4nwdfKRsNKSK8Nfik1ErXBwzGGB7TFwxlhO6mnRtf/wmh/fU9LSOiFtbnRNT2VzWJBc6U/PGCpfIdQEXyRhR+RNNgbvorsXBp1aiYaf7zvtiN9rDTnFu80/GrVcdnhHqvFohayeedk6e7DFK9lQi/BFwnYsB9IsNG1GO+77YSduoY3lWtyGxR6Ljc88my1Gu97ZdiR277Tk4LenWNCL8EXQOF6w8bAYrzv1nqn4e0jPrefxJvjeN5KNi+PNbIZ77s11/BLxjric9u5jueSy4zgCwDbRvfSYLu1bMb77gbLue6mM4zJ0gWCFZcX9mQ128pMNuN9tzYuWB5HFoC3nfrU3w0g+AKAgXOjxmEim/G+9xve3YV1+ggCL1VevCSoWc22YjXed9d6JwCH7IhudLeC65LL6nl/cAoQmTaSXnTDV7GX4xG31Xnc722jWxtt21eDN3efiaSP7p+V8d/tNCwys3zBsZ6OuH8bo2NL7ZpeKu6f3p87Px+U9nSPa/c51TC7xEf5WaZ+pWHqzWUB1/i4bm9vk/okYC7p9hWfNrFL6PqVx3v/s4jgmOqRjynF7xVpdx7nI96bvzSMX57JvooG5KByIfhC0s1I9+FP1z5OY+sopJYjqfjitb6PHOpiCIgW+7DmUoHnCtRuR67eua7/fiLA9rqbUnCtoaq64ZQCB+n1eyW2dYG1cf/96Il/f6NhTYBeQ0W1E0OJRkPwxRg3+Ji2DXTIoPgx8nMESNK+v4JtwyudLyBsh1TiBdDgeLkNr9UZbPNzwOOpNf4bwR2XCQAABF8QfB8yVbixhGeJnCMAAEDwhWe9UbC7CHAstQvdY/vOZQIAAMEXeVgbbHMi20nIH7JI6PwAAACCLwKwqmgu5G8+3blsZnPoxMttAAAQfJGNlVG4q1z4rYz3fyqbsb3SMNE/AAAg+CKz8Guh0TARf20YehcJnhcAAEDwRSCWlc1Gw+o37YjbrFzgtQy9azH5PwAABN+M/TlCIEuRdcirNFR+F3p99XfqgvQ04c4AAAA40Js9V/6JZ4ffvIltl2oNlciPuluS8LU2Lkh+U1o/lU9lW0HdtZT0RftPpVZpmCXiTH7mCN5IescjBpZSe34DAME33eA7dWF3Yvx3ehd+vyqNabF+yu/iE9tOwo8HQnDtPkeymbHhKSf6fa12gOALAATfZIJvJWkm6R+FGZLQaahyxhyopvJX9Y3VRlR7QfAFAIJvwsF3HjDwPhSsThXvMIgb+Zt/N0ZUe0HwBQCCb5LBt9U4L1RZWLuQtYlsv1oNL6KVaCXpE48WEHwBID7M6vC4StKFbOeQHSNg3mgYfhFbIL8s8JrpNVTiAQBAhKj4PqyRdBVx4H0sbH5SPMvjVq7T0BR0P30SC1bAIyq+AHAYKr6/myruKu9jWsU1trbXMAyjL+S6WRJ6AQCIGxXf/5ppGN6Qsl7Ssfaf39baREP1PGedpA88TuAbFV8AOAwV3zuLDEKvNAwx8LEq2b5WGiq/OYfeY24fAADiR8V3cKH4XhAbw7HiWfQix3Pca6j0bniUIAQqvgBwGCq+Q2V0lumxXSmeMb+nymumh951LAi9AAAkovSK70T5jz/tFVdVcqr0V3brXOjteYQgJCq+AHCYkiu+jcpYWreKLNwvFde0a4daEXoBACD4pmahOJYf9hXyY3pxbxseu8TO43nioR0AAIJvgeYqa2EFaRjH3Ea0P52GIRjnCZy7jQvqcx4ZAACkq8Qxvo2G6b5KtHFhs49svxoNFek2wnN2ruGlvF5AZBjjCwCHKbHie1Hw910rzhksOg0V1RPF8xLeUtI7DVVeQi8AABkoreI7VRkvtD2lV/xzz04lnSnMstFLDVXeDY8HxI6KLwAQfJ/y03OY6iR9c//sdbeYRKXh5/1a0nsN06r53K+l0lhNbSLpo+xXodtI+uLOS89jAQRfACD4ph58p/JT7e13QtTmgH+vlfRZ/pYafqd0qpqVOz8f3T/H6CSsXadkrfRmlwAIvgBA8H3StexfnrrU8DN5/4pt1C6gW+/rudKdpaDSUDFvJf2p52fo6CX9cEG/I+iC4AsABN+cg28j25kceg3zu65H3OZMti/i9ZL+4hYACL4AUIpSZnX4bLjtTsOMBOuRt3sp2xXCKg1jaAEAAAi+GZkah97OaPtr4/D7kVsAAAAQfPPRyGZp4l5+lq/tJJ0abXvCLQAAAAi++bAKdz4XW1hqGPowtkpxrpYGAABA8H2BI4NtrtzHp9fOFvEYgi8AACD4ZsIi2J0GOI7e6O8ecRsAAACCb/oag22uFG7hh6XGr/o23AYAAIDgm77aYJtfAx/TcuTtVdwGAACA4Ju+xmCbq8DH9M1gmy23AgAAIPhi15p9AAAAIPjGaOwXt75HclzdyNtruBUAAADBFzHqR95exSkFAAAEX+xaZxp8AQAACL6IEsEXAACA4GuqjWQ/ar4KAAAAgi8O13MKAAAAwTdt3cjbi2V53zby8wQAAEDw9ex/I2+vieCYGi5bAAAAgu99m5G3V0maBD6mzwbb7LgVAAAAwZfge9/HwMc0dvDuxRhfAABA8E3e2mCbU4WbVcHib3fcBgAAgOCbB4tgdxboWCz+7nduAwAAQPDNw9pgm1P5n9N3LptK85rbAAAAlODN7e1tWjv85s2h/8pE0pXBrmwkfZCf8bGtpGurU8ptAKQptec3AIRWQsV3ZRROaxdGK+P9b4yC+/bcAAAAEHwzC79WodQy/Fpv/xu3AAAAIPjm5avhtrfhtBl5uxPj0NuLii8AACD4Zmctmzl974ff2QjbqiRdaBjeUBnu80rM3wsAAApSwsttW1NJCw+7uJF0Lml54L9Xu338R/bjhiXpnXFnAIAxXm4DAILvU37K3+ITvYaq6ncNcwl3D/xvWg3V4iP5XQp5KemEyx8g+AIAwTff4DuVn6pv7Kj2AgRfACjO28KOd0ng0yXnAAAAlKi0iq9kuxhE7HoN1d6eSx9IHxVfADjM2wKPea2h6lmiE0IvAAAoVYkVX2mYNeFG/l50i8FK0icueSAfVHwBgOC7r8aF3xJsJH0Q1V6A4AsABXtb8LF3KmNKr15DpZfQCwAACL4FW+rwhSZSc6KH5xAGAAAg+BbmJOPwe6JhbC8AAADBl1OQbfjNOdADAAAQfAmKhF4AAACC736B8TLh/e8JvQAAAA8reTqzp0wlXWiY7zcVnXiRDSgK05kBwGGo+D5sqWHe21RC5KWkY0IvAAAAwfclNi78nireOXA3LvDGvI8AAAAE30RcugC8jGifeknnbr/WfEUAAADPY4zvYWpJZxrGAIcKvF9cGO+5fIGyMcYXAAi+vgLwVNJn95+tdS7wrgi8AAi+AEDwDWUi6cj9c8wQ3En65sJux6UKgOALAATfmNSSWknvJTXuv+8ThjsNL6r9cP95LSq7AAi+AEDwTVSj/84LvHEfACD4AgDBFwAAABgH05kBAACA4AsAAAAQfAEAAACCLwAAAEDwBQAAAAi+AAAAAMEXAAAAIPgCAAAABF8AAAAQfAEAAACCLwAAAEDwBQAAAAi+AAAAAMEXAAAAIPgCAAAABF8AAACA4AsAAAAQfAEAAEDwBQAAAAi+AAAAAMEXAAAAIPgCAAAABF8AAACA4AsAAAAQfAEAAACCLwAAAEDwBQAAAMEXAAAAIPgCAAAABF8AAACA4AsAAAAQfAEAAACCLwAAAEDwBQAAAAi+AAAAAMEXAAAABF8AAACA4AsAAAAQfAEAAACCLwAAAEDwBQAAAAi+AAAAAMEXAAAAOMD/DQCNaRjd3ksGsQAAAABJRU5ErkJggg==;" vertex="1" parent="1">
          <mxGeometry x="130" y="232.34999999999997" width="92" height="48.36" as="geometry" />
        </mxCell>
        <mxCell id="76_v_Vn0byet2OxlEZTQ-10" value="" style="shape=image;verticalLabelPosition=bottom;labelBackgroundColor=default;verticalAlign=top;aspect=fixed;imageAspect=0;image=data:image/png,iVBORw0KGgoAAAANSUhEUgAABE4AAAEWCAYAAAB42dKxAAAACXBIWXMAAAsTAAALEwEAmpwYAAAAAXNSR0IArs4c6QAAAARnQU1BAACxjwv8YQUAAFZFSURBVHgB7d1NcBzXlej5c7MAWm2JZGlet58jRBQTHdERJEA/gb2ZWT2Bms3MLJ5Ar97KBLXq2ZiUV70yIW9mVi3Kq1mJUO9mY1K71xsRnFWvRHCeSDHCE2YSlCMU3Y5QUZYUMsjKO/fexAc/8FFZebIqP/4/u0CIBD9QlXXz3nPPOVekTXrzH8iMewAAAAAAAOAZM3PLLnBiw2Pm9JIAAAAAAAAcwkgb/PRULEc6N91n8dbP9GVzcFa+up8IAAAAAADAPiJpg+nONdkNmnhd+VH4OQAAAAAAgH11pOl6Z66IkeU9fiWW43/9WB7/6V8FAAAAAABgD80u1clKdB4c+DXp4Jx8eX9NAAAAAAAAXtDcUp3dviYHizrXpLvQFQAAAAAAgBc0N3Ay3VmR5/ua7CeWo5v0OwEAAAAAAC9pZo+T3plLYuQfh/56Y07R7wQAAAAAALyoeT1Ohulrsre+DOw5+eO9dQEAAAAAAJCmlep04+5QfU32+d3SMdfpdwIAAAAAALY1K3By9NWrMlxfk/3Q7wQAAAAAAOxoTo+T3pkrYuSyFEW/EwAAAAAAsKUZPU5G72uyv4E9S78TAAAAAADarf6lOlnQZNS+Jvuj3wkAAAAAAK1X/8DJ9NQHUqyvyX5iOf7kugAAAAAAgNaqd4+T0NfE/oOUxwVP/kbk8b/fEgAAAAAA0Dr17XEyc3pJTDSejBCbnpdHX9wQAAAAAADQKvUMnOz2NYllPPqyOTgrX91PBAAAAAAAtEb9epx04+6Ygybhbw1/J81iAQAAAABolfoFTo69ekXGGzTZFsvRJx8IAAAAAABojXo1h/XNYEX+USbFyIIc/+vH8vhP/yoAAAAAAKDx6tPj5MSZRYnsTamCdHBOvry/JgAAAAAAoNHqETgZfzPYw9AsFgAAAACAFqh+j5PJNIM9DM1iAQAAAABogeoHTo6+dk2qFTTZFsvRzWsCAAAAAAAaq9rNYX0zWGP/QarKmFNy/G9EHv/7LQEAAAAAAI1T3cBJ78wlEft/SuWZRTn+k8QFT+4IAAAAAABolGo2h31jbkE65rbUycCelT/eWxcAAAAAANAY1etx4k/Q6ZjrUjf+3+z/7QAAAAAAoDGqFziZ7lS1GexhYvlRh2axAAAAAAA0SLV6nIRmsLIs9RXLsZ905Zt//xcBAAAAAAC1V50eJzOnl8RE9SvR2Us6OCdf3l8TAAAAAABQa9UInPjeIEc6N6WeJTp76cvm4Kx8dT8RAAAAAABQW9XocXKk4zNNYmmOLv1OAAAAAACov8n3OPF9TUT+qzQP/U4AAAAAAKi5yZbqvDG3IB1zW5qMficAAAAAANTW5Ep1fF+TjmlGM9iDRJ1r0l3oCgAAAAAAqJ3JBU6mOyvSrL4m+4nl6JMPBAAAAAAA1M5kepzMzC2LMVekLYwsyPG/fiyP//SvAgAAAAAAamP8PU6ad/TwsDiiGAAAAACAmhl/qc50OKY3lvbhiGIAAAAAAGpmvKU6vTOXxMg/SHvFlOwAAAAAAFAf4yvVCSU6U7dFbNtPmKFkBwAAAACAmhhfqU4o0Wl90MSjZAcAAAAAgJoYT6lOdorOZcE2SnYAAAAAAKiB8kt12nuKzmH68s30rPTX+wIAAAAAACqp/FKd6c6KEDTZS1eOblKyAwAAAABAhZWbcZKV6BAcOEg6OCdf3l8TAAAAAABQOeVmnBhzRXCwqHNNugs0zQUAAAAAoILKC5z0zvigSSw4TCzHNmmcCwAAAABABZVTqpM1hH0gGN7mYFa+up8IAAAAAACojHIyTrKGsMjjRx16wQAAAAAAUDH6gZPQEFYuCPKxsignTi0KAAAAAACoDP3ACQ1hR0ejWAAAAAAAKkU3cNI7c0loCFsEjWIBAAAAAKgQveawWUPYm0LgpKi+fDM9K/31vgAAAAAAgInSyzjJGsLGgqK6cvQJ5U4AAAAAAFSATsYJxw/r43hiAAAAAAAmTifjhOOH9U1HHwgAAAAAAJio4hknZJuUJx2cky/vrwkAAAAAAJiI4hknZJuUp9Oh1wkAAAAAABNULOMknluQ1NwWlIesEwAAAAAAJqZYxsnA0IejbGSdAAAAAAAwMaMHTk6cWRQji4JyWfccnzi1KAAAAAAAYOxGD5wYuywYD7JOAAAAAACYiNF6nHCSzvjR6wQAAAAAgLEbLeOEk3TGj6wTAAAAAADGLn/GCdkmk7M5mJWv7icCAAAAAADGIn/GCdkmk3MkuiwAAAAAAGBs8mWckG0yaX35ZnpW+ut9AQAAAAAApcuXcTIdLQomqSvHNsk6AQAAAABgTPIFToyhQenEmUsCAAAAAADGYvjAyczcsvsYCyatKydOLQoAAAAAAChdjowTc0FQDRxNDAAAAADAWAzXHJamsNUz2Dwrf/z9ugAAAAAAgNIMl3HCEcTV05leEgAAAAAAUKrhAidG3hJUjLkk3YWuAAAAAACA0hweOKEpbFV15bUfFgQAAAAAAJRmmIyTdwTVRJNYAAAAAABKdXBzWJrCVt83069Lf70vAAAAAABA3cEZJ9PRoqDajv1lWQAAAAAAQCkOKdUxFwTVZiJKqQAAAAAAKMn+pTqU6dQH5ToAAAAAAJRi/4wTynTqg3IdAAAAAABKcUCpDmU6tUG5DgAAAAAApdi7VIcynfqhXAcAAAAAAHV7Z5xQplM/lOsAAAAAAKBun1IdynRqh3IdAAAAAADU7V2q05u30kTG3hJrTrrPYmmevnwzPUu5jlTp+u3Lxt3XBeWpUlnhxl0jAACgGnrz/r6cSnMk4aPZ+tFa/+NDse6/bZrItz+sSz9hHfCs3ulVkajhCQHGvebWv+59d230JbX+xzvu+/5a0qd3uC70TL30MyfOLLonXxrJygP3sO5iiqV5uvLaDwvu7bImqIqunDi1KF/eXxOUg7JCAADQDnH4aLfXMWb3B9MROfaqe5xxi2a77oIqd9xjTVKTyB/vrQsazHbFrznCp+5hwnWxFP4jeum6uCVpusbaZDQvB06idGm/RJQGeCwmfXjgYUJ1FkXutSNwUimdzhXhNSmPMVcEAAAAEhbRVhbdBGnRzZEuiVs3S28+cQvmdfffN2RzcEu+up8IWuaZ6yJya5PevF/ur7mfW+WaGN4eEQTzljRXw9OUDH1OqsYPUm/83YJAX8iOa2T2GAAAgJbYBU385upqKG/uzd+W3plLodwZ7RUCKVvXxMn5m+66oMfpIZ4PnGRvIBZ59RVLd6ErqJbO9JJAn7HLAgAAgDzcWs9e3Q2iuAUzQZR22w6i9ObdNTF3hethb88HTqanGx408Y1zTCJNdnSTRXrlmEsEtJT5Ad0IkXEAAIDR+bVflnUwM38t9OZDm8Vu3bKSBdUIoLzohVKdtNmLbmua31HYkDFUQV059pdlgZ4jU8sCAAAAHUaWJercpGwDmRBA4Vp4xvPNYY28KY3X9OBJo3vUDMfai3v+vImOu1886z4b/wBgIt9/5qpAiR3/a2hlLTvSfOsYQAAAUF2p8WeMnHvp503qe34suhu7mzObWPC8rGxj0S2YV9yPK7Jx92Opq8hcladm9bmf4/XPI5ashGdFNgfn2t5Edvf4nHihK+mTr6XJUveCm8i/Wa5Jk30z/br01zmvez/xqVhs9IFYM94MK3/9cfxXcTNzy2N9D/uASWdwURI6jgMA0AjxqfBR0qnL7kZ/SXCQxM1hLzZuDhvWvk/9688JjUOzLpB2731pqc7OZ6/99f8UUrSazNqP3YKru9VZurmmn/yLfPOnRLC3/p/68vjf/2859pPZsZY2GfPY/b3/TVDM8Z984F63WMbBH923cfd/DdcMAABohv6fsvng8Z/8N3+zFwlZFtibWztFy27eHMuP/8Md+bYhc6L+Vz/I439bk+P/kdd/aGZRjv3NgkRv/Iv84J6/ltnNOOnNu4ibfCBNFjJOpt2bP70ujZa+JxtfUBZymCzL6oH4G8J49OWb6VmygQrwTap8w6qxsIlE35+VJOH1AgCgqXpn/Hrog3IzT9ycQqKPxZp1t5Gbf14RNn7tSTfHf93910n358Rbm38TOHyggVkHvTMrpWeehJJvtyFn08dSVGg/MNFrIWlj6c5u4GRm7nrjMzGiwaw8nYolsjel0ewnbkDjdJ1hjGOgfA5BrUJm5lfHeJrOcq3regEAwOHikHz8uqSbn5XQ88L3WfmVm0/oz/22y40G0wtiBotuAf2mmyMtyng0b+E8M3+znOfPBc3S6KJ8+fmalCmOu/L0tQWJ/GEvoedl2Vn1rQue7J6qY0wsaAjTgia/SgbpDRmriM7URRgZX/PjaPOOAACAZkvWJevzaH4ruqxY+24pQRMvuS+h/9qj/37DbZhels535yT67nWx0Xn3q37jp8yM2SwDuHf6sjSGLWGzzK6H7OWygyaez5D2f4+/Fjbung0JA2Lez7KdShGHU3dadGRxlnHShsawnm+a2v3Bfa/jSvWfIBrEDsc3ih339UCT2NGMuynsxl0jAACg+bLsjVk3J/yD6Cgv02RYM3P+47Jb7l0oNRPFyqr8efq92q871NfDvuQ7PVeJwwXCHFqulHSKUGsyT7KMk6dPx9cgc5LaFEjofhcLqslEdG8fiSFbBwAAlOAV/9BbJxhZm2jQxHt0zz9WpeMWtSH7QMopP/aHixx7crv2mQeJ8joxTatzIqO/DjbubWWgqPOZJ9eluzCBfjvjlQVOItuOwEmb+HpHVJPvJdSCwUWVvxkbOp4DAIASZOU6WgtnK6n9UKpiu6QnGiyXGEDxi+fbcuLUoiALnFUxu3zj85XsGlAv31mQo0+afciM7PQ4sbE0XzYYViXyV7ZxHrOL/I5tNqgmdAymOysCAABQB38+ckuqZjuAsnG3rABKV6LOzWb1PRmRtdV7/beFIFp6zn22Lpp85lHDX/sscGJb0Uy0bf0+YkGFGcp1huVrTsfZFBYAAKCIqrcH2A6gWHtRP/sg+kB6c2M8sbKCrCRSZSF4Mn2uhNf+SpObxWaBEzOJM8AnqgVBFE7Wqbgu6YxDGmz6o7VjAQAAgB7f+yLLPlDOPjErrQ+eVJ3v6RJee9XgSVd+1BnfQQ5jtn0ccfPLOsxzkb82ZJ/EgmrrdLihDMOQnQMAAFCK7ewTkfdEdY1E8KTy/GufRhdFk5XFpm4OR+E4VjQTr20ZEtHiBxaaxB7sxJlFaUNgFwAAYJL8KUDR4KxuBgLBk8r78vM19zrpNjNu6OZwJE+nYmmflvQ7GbAo12at7jFeNIk9mLHLAgAAgPLtNA7VDp7MXxBUVzS1ovqaNzTrJBJj2rG4ts9cDLYlgROOJNbXSdeUbyaUoewnO4KYGy0AAMC4hODJkbOie+rKVXljjnVJVfl+J9olOw3MOnGBkzQWNJOxZJyUItJsoNWVmbl3BC+bjhYlN7sqAAAAGF1oHDqteWRtVzrmepNPXKm9ULKjGCyzstC0lgSR+67asrh+vPOZSR9KK5hYoC+auiqa5V6RoVxnL8bkjFTbxA3StwQAAADF6AdPYjnSuU5/v0rT3Rw+9pdlaRAfOImlHVrS1+Q5xwUHG6XHj7+RiNUbWHwd4Bt/R/ris7KmsLHkYlYEAAAAOkLwZHBesUx9QY4+oVlsVUXTq6K5ZjZRo7LqI7HRSUFTvS4oRxrdEE2d6WXBrtxNYa0/Sk8zSg4AAICdhrFKC2ojl2kWW1E+UGaVy3UaJJLWsM+82U0ibWAMGSdl8XWAVtZEjblA6uKWkZrCmjUBAACAPh88sfY90XOVficVZeQT0dOVuDlZ9ZF7clpyqo5pX6mOzVvqgFy0B5aG1QGObJSmsNFA95hoAAAA7Hp0b9VNfj8UHV35UeeaoHqigW5WfYNOefUZJy3c5W5hEAX6qAMsR96msEbWwk4IAAAAyhNNraj1O/E9/nqnOSCharI5teL6pjnlOu0p1bFpsvu5JXCC4kKTWLXIe3YDOXFqUdps5mdLkrcprJVVAQAAQLlCs1g5L2qiK5SqV1IiemJpCB84iQVNFQvKlR1NrPjnRUvSaoOcvU1oCgsAADA2yb11t3GoVSLd5ZSdKkrviBrTmINoWtQc9lkdMk6gI+s+vSZqWtwkNjSFNTkDR1Yv4wcAAACHCxuHSiU7/pSdtmdcV47qQSqNWde0J3AyNdgNllCqA03WaDYm7cqxzXbWe053ViSvyOo2sAIAAMDB/MZhGl0ULZ0OWSfNReCkfsgyQUn80cSaTZTEtLNJrJG3JJ9VmsICAABMgJ//amVd0+evWqxqjxMCJ7U29TQRQJXRLBlZaN3NY2ZuWfL25EkH9DYBAACYFM2sa7JOUHHtCZywM40yZU1i9bJOWnfzMPmbwn55f00AAAAwGWSd4HCJNMSUACjO13r25j9xn+UMAOzD3zx8k9j+evNLzEJTWPf95mJWBOMXu9dqYBbEdE6KpLPuOj0pxsSym4YZv/ybjLuGbd+9xomk4ceHLtL4QNKnd+TbH9aln1BGWUfPXwsL7lroumthIftF464H+0Jq7kvXwR2xdl1Sk8gf/QkNUNeNu/Lqj2O3ReZeJ/GvzfHwfrU779N4j9+VhI+8X6snPhU+MgajcnzWibGLoiHbOFwTTJZRPZm1MWOMD5z4b6bpp3g8/4L57JPevLQAN8NxSs2qRFYncOL5JrF9WZGmy98Uti/fTH8iKJdfdL322oJE6VtuUrQYFsWpWwwb/4tW/F01+/wwYQHdDYs1s/0b3O+POu4af9U9zvTFpmtiorUwkSeTqJr89XDstQshSCLR0sHXgt3jD3jpOlgKP7rLINyPjZsoW3NDBuktAikj8q/R0b/y79VF94T6nlELL32NPfRPibe+bp/36/y6C3gl7tfca2Xv8FqVpBuHj8+NwakPTDIGo4J81snM/Fr+TbA9bGedcB02hyFwUjdtDSAQODmMSeMhZx6H07xxBOaS+7AiTZe/KeyNVmTiTEJYeP14KZROma1J+s7k/PAV12j8QsAfQ22XwkS+N59kab/pJ/LoixuCTAhkvbKw5699+8p6Ke+J7WCJda9NGNe2FmtlXAs2/PmL0jHZNeDHvs3BLfmKMtsDPfcabb9nS7WwlVm0tPNa+ferrVDPqbouuLaDJYzBqKXoQ3fNLIqGyAXnyTqZMBurrY+s0rHVFUCpDqDJiM+EWBQd3cZH3UdpChsNNI9/hnfijFuwppfERou7C6+yJumH8qVby+6FXn5uUdbm3afe3BX3fFzed1F8dPOiC5OvihZfPnfE/33Rhd0d7rGKxZ+adcQt4mbmV+WJe88TQHmef89G6dLzr9FE3rPZ+9V0lqUa/JNQr/59J874j4zBqLdOZ03SVGkz3gUOuwsrbJJNkI1O6t377R1pCH9zaf5FafZsSpNI8zHgjFs0vSo0iR2eCVk1Ob7eTeAOavRso0QwHL9T3TtzyU2Mb0tkb4oNO45Vyz7MJvBR52b4d/bm9Urh6sAvjnvzD7KePge8NvmztvbmAyY+UHGk8yDLeKvA9eBff//vmZm/Fv59beeviZn5m+E9W5XXCPn57JLtMTiydRmDP2vdGIzh+V5/YrUyz7py7C/LgskxsiBaUrsuDRG5SDKL66ZqUE1ZbYQbh+LRxNtNYpvojTk/KOcbmK3irvphmvq8h8n63BU59ppbHNurIoo3x3L5f+dqCCQ0ffLu3xs7i+NhMrL8gquA7WviyNRtd9+o5nObBVButnbh9mzARK0cFGO3HTA59uM6jsFnJRuD/0AABXtKI73SLhO9I5iMbJNCaw7cb1K2WiQmfShoJmsfC8YvSnVrgn2T2CaKTM7vyyaycXd8dfTdH5oXOJk5vSTHXr19aAZDtcXS1ABKCGDMfyAdczvn4rgbTrkZhV+Q1+eaiMW/9jPuOWqLLAuIgEkTzJwWOfpXTRiDZ4UACvbie/1pZfQ3eeOw6qanFYO59pY0SL3qQEe1VwDBtqJU52vB+CX31tXOtA/MpcbdPLIjiPPuJlSn+WDdbC++THRd8vaUqa5Yssn77UaUcPiU/bADLaMFStMRsk58kGborJYKMe45asrrfhB/TWRZQIuC+vrpKf9wwYaoaWNwFkCZmfsdZXTYZfTmapTrTEhaLIv1Oea6NIgLnJhEmq+tAQSyiSbFn2mvpytHN3V6GFTFdLQoedMAo3RVkF8oweg8aPDiayF8f6GBag3t9DHxKftFdqD9EbRD2g6kjRqkqYaFULrTxAXbzutT9JrAxPXmRI5EK+5a/UNjx2Bjzofvr65jMHSlihuHlOtMhlbfNF+m8830J9IgUUsyL17WihIlS4+TScnSFfWe/9xlLRVnTN4J1uqBTWHxMr/48rvyISW8Ddz36QMQdVlIP1uCobIDbYab6IQTczpNKfuIGxc88YE0skzqbyfLxPgxuA0BBbM1Bn9G9knLac5/KdcZP38P0suKu9G0k5GmRDp9Hx5suHZmXljzQDBBvkms1Zkw+ZtHU44mDoOyPx8+h3RAmU4evpeJ6Vwb4251In6i5JuNRzb70Zp451dNuAnHUj6/kPan71weaz+cPEJjyFf9uKAdDO1K/HcLkvx+fd+v8E1nO6aMUoG+vDxRjmU8suBJd+Fs7SdovTPuurArMh6JbL9nnzW+96pkJa3Rh2LsSTfIz7q/+6Skprt1mkN9F0u+l4nIeTcGf9TCMfisez9+6p6DX8mjL3T7vaE+rF1zG2Q65R5HN5fc1bwqGA9jl0VLNNDMvq+EKbcgSdxEStBAnSeU6kxSNHVV0if+uF2diVMU+ZvQmtRd7kHZJk3qyF26ncWXlZKsh2Zf1v3YSddyZQLFbuE+6MRiBotbGRJlnCbh32+r0puLZeNetW7avmeFyEppi6l0alHC67MHvwvciW4W/Lv77v27JjZyD/PQ3WPWD3z9YxckevragkTypph00f2eRSlnQRzL8SfX3b/unNRVuUGTfni/GnPD7ZPdkalv3euWHBxk8u/VNHqr1NctZNWkx2Vz8HP56oXrKD4VPsrTKTde+GDKIAumVD240jvjP65kmyYVG4PjOf9xHGOwC4JFv3Nj8PuVG4MxHsb4hqA6gRNTm1On6i/rP6jV8LmRmeJTMn0kcYs7aZ8W9Hbpv5oIJscfTXxyzi8wlJosmQtuV3Wl1ruqIw3KbSk1UTAz77NMlkWb3xn2i67o248PXXAdxDdOzhb22U6kPwlmEC26P9sHFJQnR+66mZnvyqO770llhKNHy5PVg7/8d2yX54wWNHGvt/04HDOZpWAPL7tW1rYe2THtM3PLYSzTLkXxWXm905dl44tyn+MyVPF9u/te/dC9Zv5nlkt53bYzFH566u3ngifJ/fBRdk/oeDl7Ye/gynGZlJl543baPwpHZ2vTGIOTe/7j7hi8/fyVMwabUKLke7wQPGmfgQuwq23KG39fuywo33RnRVS4Dc8obeT7fios7nrzfhCuXuReSzv7uPSbVldWS4PoQ4msUuDEvUd9h/G+1G9hsC1rCptHX6JBo44yK41ffGlP2P1k3Tc6zrtgHla2G7EaHmGHO/Ty0Tve0p++kgVPLkob2D0WPjtBk9xp+v1Qbhh9e7VQsOxFj+6tSnYSx7J7fdyuvIlFTfSBvOGC1X+8ty51kWWaLIsm7ffto7DgXpUTZ1ZDgMrYK8oBlNk9gyeHGSa4Mi4+aCLyUa3G4N3nz4+/q+IDJ7pjsNkKYJ90Y/C7gvbwY7De2jIOfU5Y05RLNdvEve8b2pdw+zjiRNAsRuozcWwyP9mxdBjfkb8p7A2awg4hHDWsOGH312xqzrnJ7rnSgiYv8jvcG3eXXaBs1i3M9BZA/nkJO/qt0A29kJ51pJO3p4kPmLwv0XezsvH5imrQ5Fk+gLJxbzbrBaVoynwgdaFfnuNfq/dKe99++flW40d7Tqy9GHYV9WTBkzo2gsyCJp/Wegz22Sh+DI4Gfgz+W+Ux+KJ7jj4StItVXIc07WTJKso2WDSsVrbHnIKtwEl6R5rt5eOIm56FYu1jweF8em/pf4foHcW13SS2jkbp1N3AxlLqskyTRdHRF5ueH2vA5EU+UPbw3nnVhVmbgidRtLjzeW/eBxFypN9bv3A6W2rA5EUbn18OgRotdRkjQ78bxaCJX2iH1+5u+RmJPgOlc2RVoiNnlQNfs3L8ye+kTnYzTRZFx9cTHYN9Fkpy/4Gkoj0GEzxpG2P11pamxv2r6iAE8TWaR/sSnWbP27cCJw3v92HTNgYRyDgZyhg63kfTq6J6NHGkVfozXnmbwhpZI9vkEH5hrLXLub3wqspJCD4jIUrPqWVsZcGTSWcjJHs8dJmtY4lDL5E8deH2Q4m+PzeR95wP1GgGT6JOtbNOsuNaV0SNfT8stMf52iXrWR+vcI2pBr7OuffpP0kd9FzQxMg/KY7BN90Y/PeVGINDcCz1Y/DbimPwxdq8tijOqq5DYkE59IL4/TBna/i8PQuctLMHSLNZuS2ohjC5tIppa6FJbL3SmUepnbQcP3egbIdAqWGaWzSPe+E1DP/v8f8urYWZ73nSm8tbLqZn4+7sHg8TUvJFdMYI3+ck9A/JUxZn/ekXl8eWZbKXLHiilb2wUOmsk9Eb9e7lPffarcikbHzuN6dWxFq9Hhb+fVr1rKFweo7RHIOvurHu7UqNwdvZJ8Yoj8GnlZ4zVFqqGTgxbwr09eYvKDWt98egNz5o4mWBE3+cWZNNDV6eDNookSbjKOJqiVSDAF05tlmviceRqWXJxSZNrpEsbOb0kl6a/9aiucpUMxLMSuUWZT4lP/R3sWeleHZa1y10fFlSPNRX+3T8SS68nxVNraiVBnQ6kwuQHUQtJVq2XrsxlOYcJmsee00xeGIk6nxU2Q2CmdPuuR+cz44c1hDG4Aqd/vUCHxwLGVIqY7Bxb/R/qm3JMYbnT23VE9ey/1GVZfeiVSmu7zZ/zm+dxNZ4WeAkixBNbqepdJ0Gf2976kvye0p1qsQPKJpNYrPj2WrE5j2CeE2wt5C9EymVIoQJ+4rUgWbwJOpc3yqXqJZs4jG++mC/8M5OuakGn52XRjonIPleJ1WbaIdrTjHgWaXXzgdPsoDdr0THbCU3CH56SuSJnXVjsFLJSU3GYO3giQ+MVXEMhp6slE9v/dX9gcCJhm7clZkz1/XKc+zkeuJNQLTzmW1ZTwybNjeYwok61WSN5oKo2qnoz8p6LcSSB01h9zfdGT6b4EA1Cpps0wuedOVHnWo2i80yCMZwf6rYwnub5klk/vj2KpnWuubsh5V8727cdR/MVb2SK/PLygW/pjvGPXyT01gKq9kYrBs8mXVjMM1im0/vXjaIKNcpwgdMfKnysdceiLEKvRJDI9izbck02bYbONHsflw1e9VcTTc4cGIb/FrWWRaR1bvuqpqK/hKT91z41ZHrJJscEPV8aqXK6Q0VXXgNwwdPrEI/EJ+RUNVae2vXpFQVf/21gsxVOr499J1Ree8mlS6ti6ase7yvVHL1eqWyTnxfE987SOd1vFrLMTj0tHEBn6aPwdBhrd6i2thZQX7PBkx8qbJGf61wmEDzG8Hupb0ZJ03mO7OjohSPbqxiKvqLsqawi3l+i6SD0SdkTQ6IqqX5V3zhNYzOtP/3K9yzoiuVTBc3ZR4nX4PXXyvrxDfKrcoYmatZ7wGsrW4vDM+ftvP06deSRkr9TiqSdeJLdDafzur0NbEPKt3T5DCdaese/t9fdAz2/U5+TclOg6ney0wsGM4bcwvhtJyZ+Zty7NWv1QImmfcqeZjAmEztfOYbxKYdaY9X3ALriTRSJyXjpKqiqauSPtHLFPG7cX3NYy2VTXdWJBe3qPvy/prgZbmfyz1lx8XVna+djk+dd/csf3pYkcnAdslOxZ4Tk0hZ6vL6G/nEfVyUYrry2g8L7qpfk0kapVxxb6uVOS78IF9+7k9rWJPspKi8GYcver0S9zlfoiOice/+OhzxW2c+OBafct+H/NyNwZ9JsTH49a2SnXo/J9iH6r3suNSKecuN/VIqE7nnJH1d/HvQykkXoF+QnXuNDaFJPW5+7nuQtaifyV52Ayc+ctSb97u1TWu+k+z9s27i3ZuX5nEXdkujgLXgr7uTczfEGoX6Qs9cEqlw4MTIW7m+PkTF8ZIszb/oAsR7vzHjQ3bP8iUdxRrl+swt3y+oFQE7W5/XP5pedUHm4k2QozCRXJOJMhrv3Xr1fooGbtbuxpu0o/C9m1/KJO9zYfFj/RHfRb8X/5z8phFjsD+quDf/QPz3I1KsUW6rxuC2MXpZwMbEUidGlt2HZSmVlZ3oiGqQ5Dn9kC0ffXdVNpJml8MPIXr+P9NPBHVHtknVDSK9ch0f6Kxqk9jRmsLeErxMJc0/HPF8VZrEfz8aJR1RRRvFqgolOitSFz7IrNIk1ky2oeAo5Yp7Me65qNOC2y+sbZSIsRoZMpO9zxlj3OPXUljDxmDfDNiKxhicnbKD5rFWb6FtG7exX33G3AgNYH1vuYSgifdC4CRqYp+Tg17oRBrHXBdUm+apEV5lm8SOsSlsk2ml+TehRGcvOo1E4+Y3KaxhNpcxCoHUkHEyOUcinevKuvGxbgaRdY/fSnFuYR39QibBZ5tYuyzFx2Bb+xKdvVhj3eM3UlwLxmAUROBkXPwaJTXn5OHn55mXP+/5wEk0qH7tbF5G2hUhY8e+HrL6fR1VbBI7yi5rtKmZidMcOk0lmxuUyupti5/w4BvFNlbY6VZ4jsbMGo3NnAmPjUbnZJ9vpuuXEex7nUThhKhECjNLE7nPqWWbNHQM9q+xsWsqWSe+USyaxWedoX6MC2Qae0F68xdo3vy85wMn2aCeCGqK/ia14ev3NY8mrtKRjV7eRqYhDf33nOz1IrVskxr1RhhFNFiR4rphktBINe0d1OmsSXGxTEo24YylMPuJ9Ndrugnka/CtRtAna/Q7TqrZJgONrIxq0ss6afAYDAWxYFzirEeLC/ge6Txw78vb4ZQegigvlup4tll9TuwBR2HZpgWJzJogJxvLJPj6fbGKO8DmUmWyTmL37zCSb5e1jmno40C2yXD896dR/pZNFBqmptkmXhgnFQLMkxobp6NFURGyNuopjax7aMwrfbmOTvbO0H8j2SZD0cw60WmCDkCXC1rbq7tBlPZmorwcOLEqOzxV8rW0hVVpwoZxSSPN16srRzdznmBTksGmPzEox0Klxgu7Mp04sygaOyzpoB3PrUavk+3THRql9gH1RIrq/jCpoLLOQj+19c3Gm5ryD6V/vxnfPe7EGfe8m0XRyDZJB/8sTaeVddLIMRhoFJ/5l2WizMxfa1sA5eXASZYa25K+ILZZ3+efj9DfpE60m8RGphrlOrmzJMiU2pMJKeIFuaBUW454zHqdJFJUFCkdFV4Rde8dZN01XFdax2fW+T2cuJhJ+sTPtTSCJwtjyx4y1oQa/8JaMgbv9rMpOq8ef2YRgNH4LF0fQDk5f7MtAc+XAyfZEYBN6jXwcN9fMQeU8dSN7xFR2xroFtM5EWTrz6rATs0oWRJN778xKqOxW21b1nDXKGTXmAuVa7Y8Mt/3qua9g+p6n47DNaTRk6MB87HUP+6Ihu53sYyDEY0x2Lr/a5wqVBPGfb9G4Z7TpDEYaAG//og6N2Vm7nrTM1Cm9vzZ7MSPRUF90COinvwueW/eB7x0JgnZbvmaTEruLAn7CQ2N9zDzM/c6psWviahl5XvR01VJCx/PnTWh7E/wfaSnWT3L6uTJZiwdI4U14mRAv6BW6ik3mPbBqHKDSTM/83OqJTGMwbmk4eOtvbon5tSkMRjtlchkxDIpxizJkc6SzMxflSeDD+Wr5s3v9w6c+BM/0icfSOOZ5mRocAxxjfkdGqt0FGrYqVmZSPZRdgRxvtRmK9cEe0g1ykXWWxeU8t9vbz6RohOHKPLX8ZrUXZrS92pSTNTNTpQpqM6lStuyp+GhFI8jmXBMZulS/y/VKBdp1xjsy3V682uSLRhjGZ0v1/mFNGEMRnulg4sTLdOLY3cP+nEsT929KJI33T9oVqx50727FqVsRi6HAMqJUxebVqq4d1w4K9dZkyY4+OScZgROwlGu7NrXVjR1VfR05dhflmUScp8g4RYEj+6xI74XnTKdlgZTNU6GM83oc9KW/jZVZNJYdDyU2uv4h9Z8qydl0ynTkXaOwVrHTzdkDIamRDC8JOlLcm89ZLZvfP6hbNy7LI/unpONu8bFhs9lpdylBubjUL7Tm1PaGK6G/RPqDCm+tUGZTr1pByrNhBqr5W8KuyJ4WdYnpniKeFuzDXROq+rWvtGZYbd2oswE06WrxvpWH2rN+F+XMu2eplN0DLZuDG7fPNp2rHtoBIzqPwZDM4AMTSGY4gIpG/dmsyCKlHj6opvr+94nDelbtH/gxJfrNMP+xxHbhkQvKdOpv7o3iR2tKSzX7V4iq9FQUuTbV5rU5Ht4WkefRkbndZgUa3WacQJF2dQ/dAInxhyXMkWWMbiITmf7dM7i6j4GQxsHYJQhBFHuLrs5+ayUFUDxvU+OPbnZhODJ/oGTppTr2LQ5J+fsbZUynQbIjlLVm2SN+0jV/Efnct3ux9q3pLj11p6ylawrHX0adp1rrAG9MYBxs9a4x3+W4to5Bu8eP51IMcb9X+NeiEnSzLxrRKPsCvNz8p0ASinzh4UQPKm5g3tfa+6Coxy2ZadmNJtipHeMx/mN0hQ22mzZMbk5GI0Fu21AX4QiNI4+rfmkPbXtzDhC9Zhoq1luDRijNAY34RjpUYXjpxUySgmc4Bm2pkfT100IoNxzwZNSYgALMjNf68NnDg6cZLvg9Y7wTQ32//fbKJFao7lmo2TlcVrvt64c27ws4+A7Z+ezLsnvy5lU1j2LJQ7BLoUFhl2TVos0rq9urdNKp2ikN1kNOrWvLeIFfx/WGIOtCxz8v9Jaod5Jo1Sw3mMwHBuLnkQwPhufr2z1P9G9l/kTd3qnx7M+KcEQp62bmu8Mdxo8eTFrguYIJQZWN+tkPC5JPlcFe3v6VKemu+3ZBlpB8aOb9d3xpBRusvSaobJwfFaZxzM/fcoYrMFGjMHI2OikqKH8dOx8AkU0OKv/3EdXQrZ6DR0eOIkafDKDVrOySYkGlFIVZUtuNJeXzokg2+LSm8TO/GxJcjWFtb6GssTu3TWn1ZTwoEy7Nug80Vm0GDsrwEjUNm2qdY8ahUk1T9fYkLJoNoZt8xjcecIYjIxRDPxa80Awfn4TJpLzopt50pUfda5JDR0eOPFnQNe5SexBu27TNQ6c+KMm2VFUYKq1m+eju5rvt06n5PPT05zZJmRJHUwprbWsUqjaeEVpbDex1FMimCythaM04GQREx4aO8+23NMQrfuXWp0d8laPwa+I0hjsG84oZixgAvTGr+Yf9lFdPhaQmvOiyZ8AWsOSnSFKdYQmsVWUWsodGivSK4/zA1NZNcJZU9jFPL+FLKlDWJXFBb0VspN1NJ6H+u/2YzL0NjZiqTvr7hRW3hQNNk2kLFYYgzXsnqzDGNxmsXIpRhuP966SrO/pe6IqulK3PkbDBU6a0CR2T6/U9HuiKWyjdTprovl+K6tJ7HRnJc+XkyU1DJUMqETgFX8PGRMLMDqaFHvZSTWxaCh18RRSYxiD9TAGt9nTqVj09Ft5vHfVbNy9qlyFMr6DLJQMFzgJatkkNjn4V+v6JjQrguYK16Xm+83kbd465B8r+Zq2kSV1OI16YEPGSaCR0m8bsNuPCdI4Flvq3SBz96QajZT99VIXT1lJEWOwhix7J5GiGIPrS6tfkGfafLx3xXQGF0U1mcKtUWq0OTB84CSa8osebgYTR3PNVsjeb1q66k1iZ+aWJW9TWLKkhlHvnWUAu6xSTycj56SuBgP/WBQV9paUjzEYUKF4FLG1OkFoFBcyx1WTKbpy7C/LUhPDB07Ud8HHYphATyL1QtCkDfz7rdJNYvMedUyW1JBiKcpaGqh5Jn0oxcUCjKpz5IaoMDU+kjU17vGOFGclTccRfI+lKMuxqVsnKTEGt5k1On2Nwp8lNwXVoZ1MYSKNe8RY5CjVkfplnTQxXTJKVwXtoNmU2TeJ1TozfbSmsOPYKUTmawEweXoB8AX1RovjkpW/KAR+XDDiy/trAqAe8s4TD9J5ohGEgxbtZAq/RqnJPS5f4KSeWSdNskpzzRbJmjLr1XUeiZZFQ96msFy3ANrKiE6WRKo0fo/TzJzPvlgWlawBjrIHauPEmUVR44KmrT7eu6KiVCmjcktqlqQG8gVOwu9oWK8TW6NSHY5ybSGjmJqs1IApd1PYQT3Ly56SIgygoGh6VVTmTCU1+S5VOE7nF1KclWjztwKgHjQbw4rQ36SKknvrqi0FalKukz9wUqesk2bVmbJr30a6gcquHHtSbGAapSks6dUA2irMmaxG8LgrvfmcvaUmyGebiF1WSdcPR9mz4wzUhhXFRbC5LqgmY/TK8K0s1OF0nfyBk/C7mpR1YuvxfZBt0k56k+6MkWUpwuTd9aQpLCbEmuMCVEHkNj50rNTm2EZjjHv8Woqz7n80xa8baxiD20yzvwk98qorVcw48ZsD3e9iqbjRAif1yTo5/HQJU4cTKOz7ZJu0WBrp1RH6BkyjHk38xpxPvcyRfsnR2SNIpChjYoFjNBaYiQBF+ZRmnRPxYjm2eVmqrnfGfTD+JLdYChv7fSSRohiDZasrMGNwG6n2N5F11j8VNjXl7216CQiDac0Sr1KMFjgJv7MWWScNyIpxkwZO0mk33yRWs44wikZrwBSZnBN2mvmh9pp3MhsmIxqsiE6vkytbQexq+ukpkc2ns27uckWK80cQvytoM8bgujGhIbQSS7ZJlYVECsXgppEGB04ac8KOqfigbFaItkK1XEfMhdzp3tkRxPnq6ykvy0+jWbWlqW1gRKMRMpN26Aj3caU5U8dcr2TJTjcW+csPr8uRzqeiY3WsPbKsMAZryY6hZgxuI5Xjx7dET1YFFZdqNu+NpeJGD5yE3+2zTircgHW4G2CFB2VKHUpnajLB6Rzx5TqKTWL/spznN8h0tJjny7NmfgT8cjPpQymuHj0QyhdLUbYOpZyojY3PV0TniPlYjj+pXsPEo68Zee21j0SnROeBC77/RsbJpIzBumIpijG4XrIynVhUcAxxPWgmIJiTUnHFAic+68QKu8qlobEmtmhneOU99suYfGnXVq0Z4igSqS2VG1C3Ng0ky0V9PaonshdFg+9XNTN/TapiZt53A/1IjB2tFPR51o2FE+jtFtIkGIP1MAa3jWqZDk2h68Ekoqehp+o869G9VdX+C7q+PvxLKlqq43fsyTbBs7K+QjryNInNvYNAptTolG5A3R/aPWlX6wHRqCPtUQVZo9j3RIM/Ja03fzuUUk5SCJrIR4VPbdthP5zMPcT4gI1Gxkm7x+A35kQGVmMMdq+H1Xk9UL5RSroPQn/HerCqp9O2IHDiWVPNrBObHp7iZyt6HLEZ6OxKoTmyDK810WKi4Y4Wzr2DYBvQ+2hCbJSIhkH0prSZiXRuvqklTRj6Nu5eVcwgXJAjnZsTCZ74RrA/PTXrFkufKQZNHkj0/WTmlDZiDNZgIsbgNspb0n0Qyr3bqiWBE3/qRyMaxVaFW3gyYGAvmkFKYxYPTSceqSmsvSEYTaezJhqMnZU2i1R2O0W+fYVJO8qx8fll0el34sUueHJbeqcvy7icOOOPojwnR6Y+E9E6CcEHTdK3JUkms6HV6TAGa4gsY3Ab5S3pPkhq9TKsAUU6gZPwJ02tSC2PDetU7N8cjh9mwMDeQpBSs0ns5sET7fw7CKsE/QrIjnbTOLK03Rkn1mp09e9Lf72G9zTURjR9TvSCJy4IHn1QeunOTpaJvekWx5+6N5vWDuHXbkb684nePxL3UqRPNMZg4/7/n6StrDXu8Z+lOMbgupiZWxbNprCP7n0iQAXpBU5CGYHVqdvVMjVEU6nKlepw/DAOo5ndZQ4u18m7g5AO6G1SlLVrUphR2gGuKWNiKczeEqBMft4UDc4r99LxpTsPQuNYtV4/kmWY+H5XP4quuz//Dy40sCh6XNDEvr3V/2WyrGUMLsoYxuC20cw24WCMetE9nbTygVK9wIlX7Uaxe7NplV6kVZpq4lBZk1i9rJP9msTO/GxJ8jaF/fL+mqAYYzQmiwutPdUhDt+3wqJFY/EEHMJvlERHzope5knG9xzpmNshA6U3f2GkLJT4lH/E0jtzaSvD5KZYsyS6qhM08Yyx7vH/SHHtHIPjBZ9JpTEGWwInNaGdbcI6qG40x7nKB06mRFtncFHSzm2pQoOX/iuHvwDTLnCSdmTyQokORzvjcH6Xsjf38aHZIsPqdPxOwdrLvzC4kB3POCx2CVSkZj3UiBf12g8L7ha0Jm3z9OmCypYATQkxLlmJ3lkXoHBBcaszru/yC9hVOeLmOb35dbFurmGiNbGDhyHj9tnM3CdR1409sZjOSfcGWHBj0aKEBZHNdysY2nZPkwpl2abhG2UMHtXTp/4jY3CbkG3Sbta8qXZ/MNU/flw348TLboDVCADUqjaSEh3kkEY3RIs/mvjFnbHQFDbPzqKbjH8zTU2qBq0+NlGkvTNcD1Gq8X33yZ7C2IWGsaWeUriQjev2qgueXJeoc9NtHD3YefgMFf/z/tfFLIvaLvJe7O3KBU28Lz/3jU3XRKPPSRS9I20TuchTlGp834zBddA744Mmsagg26SWjFZzcPFlkoefhjth+oETzx+1V5uSnVeqEFyhRAf5+MW15nvsxSax09M5dz3NGk3cNKUKQSij0SC1hlS+b73AJJDHxucrbuHuS3caPJ66wMzGvb+v7mZRKozBo/Jbz4zBrRDK/+yKqCHbpHayElDNCpPKZ5mVEzjxfMnOZG/8w/3dyaQXe75EZ0CJDvIzopjh8ULZj8m5a881rCvtrEpxC6E/QZtkN/Hiux+WI7UxQQMbSxXKndXZB5Kacy5oUq2DBF6Udqx7aGxmtWsM9icubQ5i0ehvYi0ZrFU33VkRLf6eywZy/eQ/efNgVm5LxZUXOJl8yU5Ndmso0cGIoulVKaNJbN5GX0bWuIaVTU35qHvx1zaNlqVNjnR0ynQ4ChGTEsokow+kcexVib7/+61SxGqbmtIag02rxmDfR4cxuB38PNHIBdHSSasdTMU+Qh8sPZ0nD6XiyguceL5kx9Ri525SQRZKdCYvlroK2VKKRxNnTWIdk+9maN11DF3htbUKY4PRm9jUg0ZjTbJNMDnTnWtS5/vSi3xJ6XaWSZLUY0MrcTGTdFNrDP6FtIev0/mlFMcYXGVZDzzFhrD2fTbfasqIZh+nviS/b3GpzjZz5GIoRxm3fJ15J3Azp0QHCrKjiXX4JrEzp5fce2cxx2+imVdZdBoAx/seN900J84sisaCMx1wPWMyfKPFXONvhW0HTB7dPVeLLJMXpZF1D42sh3aMwSfOyO4pTIW4533wz4LqOtK5KaoNYe+tCOony05XLCmtx/Hj5QdO/M5pGl0UPC9KzxFhRWH+/aXZJNZE13L+DhaZZdFqALyTSdRwxi5LYW4Sx0kOmIQ35hZ0Gy1OSN0DJtv86TrGaozBxo3Bv5amM9a4h0KGI2NwpameoiPZWgg1pZ3RbK5LDZQfOPHCzbPUI/aKGnPGCWlpUGRV31v5osdRuiookUKquM8k+mnDGxSG1GGNemu6+mMC/PXbGXXSaD/MSjYnkNm7KwlzvOi712sfMHmOte5RPPuh6WOwbwr7ZKAxBtuKrxXarXfmkm5wl7VQbWVzrkXRFA3IOHmOP2JvnEcU2xyTCDvGwIkxN0hLg6pskjqJ2vFVbnole3RvVTRe2+mGZ52odPen7AwTkl2/seQW0twvu/mVe9ybdfOei2PrKxfmc26RG/qX3J0Nc7y69DAZ1qN7fs62KhpNYqcbnHUy3TE69xjG4MrKMuL0SsNZC9Wb5olKgf2kLuuJKRknf0RxGt1075hYWsndFMyAztEoQdhxHO/imF4Q4+J34IqdsmFkWU6c+riRKdBkm6DOQur7KCUOvk/aC2nuWaB1VeK4K4Oji26+sSjWvFlwZ7CfPeya22tbl1TuyNS3640LkuzPusdv3OOfpIhsDP7nxo3B29kmRzpkmzRVyIjzazcrOlgL1ZranOsZVvK2CcjH92ASdx+M0iU3zryVxSHsVoa96bsNh3W38XBH0vTGYWP0eAMnPpp04sxFiexNKd/job/SpA/HknxDXxOUxTeJTZ/4E0UUGzUdpMJ1yFbcTblBp1L408l6c5cKB5yzXidr0jRZo7qCws49gUCMVyjfGDX13QX69ptPZEGNG/Ls6SSx2zF+GnXdfCfOfvteY2T0tdjUzZ06fbfRlbjoeL/1c5aNuy64Ned32n9ZcAze7nWyJk1ypONP0vlUCmMMriQ/RoV7rNWaW/ZZC9WcypzrWe69X9bx470QMPFro5XsGvbDVdgISNxj3f1n120G+Gt7IRytHHUuSW/+gfgNy32y38YbOPF8WUFv3kcai+2gHq5quyHvMVCgNL5JbG/eDzxjOn6W3fmx8g22iwacfZ197/Rl2fhCL9120rKa61gK43rGmHXj7ugTUPth7kVmcq/yxzxWlj9hR+RdNwYXCxA0bQzeWZQUHoPJNqkiX56TZZrobcjZ9CJroRrLMiRjUVXC/MtnwonMun/r7yQERXxMwJeWusD1Xj244jkJX5eay+73+IyUVbemuiKbg7flq+ev1/H1OHmW30ENpQVtYd/PvmegRGmoxR6Hfl2aODWG1gk7El1pTJPC7PtYkeJWqavH2B191c8JYsltq68JxkfzhB2Jft2IMdgvTDafuoWJaJQIMwZXzczpJfWgiV8LPfpiPD2YoK9QhuR+Suhr9Macz7A+K0emPpMQNLFXJfou68O1X+Py5F62uRANlrdKYP2/adZtbnya9ffZNZnAieebmYmUuANic2ScmETK4m+0NEDCOKgtrg91gx2DCfA9oopn0vld7uvSXRhTSVeJdNKHfRCQnU6Ml8+UGq1GvM/xnRPSGVj3eFeKj8Gvu7Hrd7Ufg32Jjl9UFB+Dv3Zj8G8E1RHGp+i6etCEtVB97ZRsKbNWt9eND+gO0lnpmK2xKVx37w3dkyu5n7UVEbO8lQXn/6zfPRvsnlzgJPztg/OlHaFnTQVKddz3li12gPEwUk6d4LNYaE5GFqzSeO4X5OiTsksly9Wb9//+WAqzHxIExFgVy5S6zPU6IX5CnXZ87bvGIv+sG4OLNZudpN68bxTg//2xFGZ/yzVdEb58cGb+murpOQFBk1rbDZrEomtVPQPpuYDu1nXXjbNrO3bfx16PvWx87j+u7ARPfLB7y2QDJ36wzHZPJhzkKCPIstXxnhsCximaXpUy309G1rimJ8iX/GlkFfkTHnpz4z2FSUuosZXipQpkA2LcdvqajLKT6/uaUM4wUb5RrJV2j8Ghr4nRGoNvMgZXxIkzi3Ls1dvhulRF0KTWSgua+DWy8ibs7tgUuz//wc51d/TH/nE+BL6ff9wOj96Zr0PA8MUSSh88se76zcb7s268Dn/eZAMnnl+Epea8aLNpMvzXWv2FZiTnWWBi7HyT2DL7B1kXIcZk6ZTsSGjIVbeJe9aYbEUKIxsQE3Ds1a1JXV5+kvn9imDy9Ep2TJjk12kMzprBrrjrUeHf7BY22fOISfLBXJ/BmTWfj0VVy4MmJoqlzsrLNClpjWzdmGp9CayVNN0dWx7dc+P2kWtuY/l/kN1x+2sXCH/dvUjuIR+GgKHPVHkxeGKNdY+tLEPzS19iOfnAiZc1a2nOmd7WXqSDPSYmSktqvlVCEyfkpxpsrlHwRC1oItkpRQS2MU4zc8sy2i791vGdif4GD/LzJTtPp9xupfm5FFef4Ilq0MQvbKJ3Gz8GxxVtArxduuCvu2Ov+fKzEppNk2kiRrNHzJj15i/IkanbUkbQxF8b2mvkmTm/9l6WLNskkS/vrz3364n769In/h66fR/NfgwlOdZnviQSSnKiS8/9Pt8YPLJrW7/elaObb1UjcOJlJ+1MqHdCR3FC4rtG31sVVF9Vb2pF+QGplCaxZk1QDSHYrDVe1iB4EnqaaHVzd2P0fp3VgTL4XSwTjdpX6H2CfBUTJtNyU2kMrn7wJPQ0sR8oBU0c+5sWjMHGBYeWpUq2AybHXrsUynLCMbDqi/t+2DymPMdnnLwjdbOdgeT7j0gZgZ/SAmq+79J/2fo8X69HGx5J9qeYN/f5gk/C32HkneoETjx/VJBWmcHU1pMwDLVSHSKsqAhbQhCSprDVojle+gnUyfmblTsm0/97ZuZ9qqjSjhhjNCZg9BOgVrNNJVRO1jzwfaUx2GyNwZ9Wagz2J1T89NSsWzd8KozBIzC/qMTpSTsBkx9vZZjYEY9CP4wvKbTn2DzeYmVRTpxalLrwpymVloEk/vn4uLT3vvFDqInD35J349iERxw+t/bxS79uw//ubH3xYrUCJ54/pthKDcsBmJCjQrLdHM3U7lV2PStIc7z0N3m/wPMpmlUwc3oppIoa9+/SUOZNG9hP1sw4ltz8IuS75pQwN9HG5zYcp6k3Bp8LdfZVGINnTotMm/NuDP5McQxerfQY/MacyMAuiJ7ZiZ6edOJM1vT16Ks3swVxKRkmGb9Yjb4/W/s2BbFyoCvqXKv80eO+jLQ3vxVQK+36+Fge3V2WcmXvXZs+HuqrtwOKuyeEWYnSl++5NvKPZPt3TUkV+Sf35Nxxt2u+JKPqvzL8onHqaSJpR0YWLggm5LXzJOpK7pd9UKOaRb8TppRamw7qE8w0ovMa1aWxlx8vZ+b9960x2Y7FB8lm5pbkibuBfDWBYJmf6Bl33YbJuhUV47lp67HyZtgFGV19a6tfZM3xgs+FTGzc9sG/UUvMrFmTwY+XQu125dn+Tuauz/bt/9CXfkt6sjy6a9181TeaLjZn3TUr2Rj8jhuDfzX2MfhE6GWyGOYOumPwqnuuqt2QO9tK1gycbJ+e9NAFjMrP2PULwdCHwY0bRt5yny/tLoSVXse9vede22Zkxg02l0L2gp5Yjj25Ka+cOj+R+dR+/DwrSt01El0uLViyw37o1sjlZLHsZWowzL1nVo69+sybwj4IfZc29niNbOo/9rPUlKoGTjxz5KLYJ7GMOoj118dz067bhBy7ohGurXTaT4zqEVGPpq5K+sQ3Oio4KO7RaKmqsjRnnYmPUZ5AlUk3eOJTHpfczqdbtM2vSupuen8cwy7STsDELoqmOo7RWcppEd2QIlyX9+1BjCn+PkynFmUS4/bofU2yBZeYZakFIzvBLT/HPPaqe8z7/1p3P++DKnfcDclNTJ/eacQ1+aKH96wbK32z2GuKY/B5NwafH9sYvB0w2QlaK6pD0MQzYcX8a9G1XYb1lvxl8K7a4nk7SPLqj2PpRG4BnC74MgJ5Lrut1GCJ//PX3Ty6WYdhGFNGr6GFrWzelYkdsOB7Og6ixWxea95xr12cDdqlXyPjrMbw6/7j8rQzzJpn3d2Xfute74/c5w/c57/at++SCRHV7vZzpRpWU+dTptInvr49/8Rp4+7w35u/oPyZznkRNKm3kJqWO4U6kW+mz44tMFfUybnrCrtgy7U5TUfz5BU/CH8zPVub19rrnfGplpdEn58YXZXNwS3VXZOsUd0Fd9NaUp+se3Uco8NOUDgasqAGlI/6FGJjrklRRtbk4d1zMk5qr2MD+dfD2luSpmuNCqT0zvh55wcljcH+hIsPVcfg7cV3uWNwPYImuqcG7S+79n2/hLzzipPho3WvVwis+8fETm3ph4zm0GetQXTnj/tJ3OvvA8p3pDzPXit+/RzL+PXD6Y/jagIdGljLH8R/79a+u2efnd2vid3z7/uO/c/u899trZG+dmPr3+85ts78zH88Lyb9nfvxdrUDJ95owZN+dj5zDr35fGE3gib1VmSAtG4B+ehuPWrPNSbv0WC2Fv1Nwpnz/vg0xcmEtTfcAKx09O+Y9M6slDz5c0EUt+ixds3dGJNcO6HP73r4VOISs3pqGDgIgaRX9Y4ATAfnarswDe9n31RVa9KXvicbX4wvnbw3txJOS8FhktAfwQ4+bkQQZTwL8NHG4PhU+MgY/IJxBU2awL9XO4OLjet5N56gSTtM4hrpnfbxDLfJEl0IvVo27r28RnsxcGIGb4sv2Uk7n4kPIPufe3j37Zd/39xWQNz4gPi16gdOvPzBk8QFTmYljzyBE4Im9ZYdtXVZCnED7DhqVjX4U0lG30nypzpUf7coCxD5nelYtPkdsz9Pv1erzJNsp95f5+PakUrcNZbs/Je1SdjtiEw3/Jj9O2IZj77Y9KI8+uKG1EkWKLguugsZf81erk3G2LbS3s9jHLd7p1ezSRxy8Fmg79fuen1R1pemzWPw124MfrfyY/BOxs2rPmBScE7YcCG4ad5v3DHS2WYFr78OP994fyInwT2fFfLA/Rv+9qWveTZw4jP4Nu7+/QtBU+s2m95+KYD/bDaLyMV6BE68fMGTfCn22YR1uFIdgibVF+9xnF/WCPadrZrxWHQk7s+7Guq2nz3+umqR+N68vyGMVmsfbZ6V5PfDZxSMk3+dn065yLFdVqsr318ifnAd2Dtj6fehIZQgRjezlN628DXX6fnK7obN/GzppUalJjpeWpr8rsQ9Nx+7+1fy0q9M6ujIENx7aSx2izzz5tieixf/fs3dcQInRdQ/gJJld7jdzOjTlo3Bt90Y/PPKjMEnwuuw+NzPGRdMEtPNsm7CDvWkSl6qrwkBkxePBOb1L8NqOAUumVBT8DiEBl53cQIf4Dj+XADkp1uZdkd8I1yzXUbZD01rvzlyNeSapJufbY3TvpTqffnzkRshhpD1fjrnNnI+DQ1kN+79bX0CJ54PngyeXB1qkZSnrrI371OjhwjIuCd5Y4ydgZFf3pKrcuTPeCpTFnT0E9F8N4dJ9AU4SNUXInn6Ko1T+aU7FeEmd1WvuS6W/VWOSV23TX8uigSsse2BbLoJcJVOo8irVWUgFRyDs93iVJBPkzJMqrEuaKYqXSfPjrXPlt3EIQNwwY0CL/eeitL33YfEfXZWBmb76HArf57+eQicPJelkpUeVvdUnb0kIYNk2T05/UObb2VHgCWHpuXOzPt04GGCJvVvtId28u+b3tzHz0Rah+ODj6g/P5GNT61Kql4GUg1NrblGvaVm3e1SCQqZlSOdP7j71/u1KY190cbnPvtkxX32sRuDfRp5E8fgm24MfpcxuPb8GuuGG7s+blxJDnT5/n82+rBS14kfa3vz/j7xjhuTFt1940q4byT3/K/6TPGDkil8AsXzG8VZIOZKdgJRyDZZ8T8RSR1tfH45RLYPZVbCE7cfHzQJR/4dhqAJai7KGwSxSe3rzLHLT2g37p51N7uL4bVtBF/Dn56XR3fPMWFH5fgJpQ/qoajsONeZ+X+Sukru+4c/8rJpY/CDrTH4bcbgGgvjlLks0XezoacdQRPsrR/W3tF3r4dDE6p4nUQD6x4/dxf1w9Cc/aAYwEGezxT8WqJ0p2lsPQMnXkgHLBA8GS5o0g83OYImqLvk3nq+SbzJ8bWoDd/PYuPebM0n79nN238fdWsAi3bpWN/Zvz5NpavMyHtuN/Ez6S7Utx/Bo3vZGGylKWPw3zIG11QWLHk/nJroNx82Pv9wYv0pUGVZL5DUnAun1fq1d5WvEx+kluiBi25sB09Wwnr/p3v0vtyLbxjtGwaL/WA3aGKfCwzXq8fJXoY9PWK750nWQXmIJrPuhhbJ+bDgRH3Q42R/eY4mruIRxPQ40ZeNn76Eqw7p424sNqsSfftxbSd49DjZ1ZbnInuPXRNouS3fTL9dq1PO9rN7+g5jcFnocbLNL4BdkCtar/U9dBT0OMnHB9WMueXeNWu1zT56uTl3dux96oJAex3wkDWBdWuk9C33HrmcNQzeu9F1/QMnXjznm75cH6JzuX+yhjiSzQdNUtK/64jAycF681/LoU1i7SduJ2lJqobASXnCGGr8zeKtip0A4bP+1ipXSzsqAie72vRctPKEq1I1J3ji7TQvZAxW187AiXvN3HrH2Dvhx0661ur1DIGTgyTuOvEZ6Q/dPeqGTH273qig2k5w2vcqMXH2k6YfvufUuh9D9txC9ms7pyv5ddJv9jtWuV7NYffjs0LiU+eGmJgcHtH3xw13vr9MyhqayXx4aHf/NL0qaJcss245fO6PzDXp0gQn8Nmkzx8Z2/n+BmNxQ5n04VY3++bLFi2zWdafe2/5I5dfFI7GzHny2bPCLuGYSz+sicOPZmdDavR/fz5n5ejmR26k+Lk0wW7zwmU3/vrPGYOxn2Trx354v9tQCvgwO2q+05fOk3U2fbEl2frx5Wul49/f3yeNf28/CmPrqhtXV2V3XH3TPQcL2bHUQT8rm7S3QvDokABxMzJOntU7c/XQE3f2995+ESbUhJ+YTtpU2q9sidehRxP7prD3qpkt47Minkbjmpjn18SGamGhJ2+6m82iWyQtSjkLo63dsa3U0KbteAAH8eXDR1/9YLhG9XuoynGQcew/duXpa25CmsZu3HinxDHDs1uN++t52s4wdtLHGYMBoAqaFzjxevP+WKHDs0ueZdzN4uHdcwI0XW/+svv4wR6/0pfInqOvD/YVx9nCyE/kJZ114+ZJSV3U3uyUP8Z7/K5k68ftXY+HoXmXNQ/ZHUOr+YZ1Rzq+71Qs+fmF7fuV3uzZTpMWc6Gksiwr6eBt+fL+mrTBs8GpvcfgruwdWEm2fmQMBoACmhk4Gal22vrTJi4K0Aa+HEPSS1vvk2y3qTO4yAQKAMYgy+a6/kxddQ41a16/Z525mgcuePS3AgBAyRqacTJKE0n7oQucXBYAAICy9Ob9/GRVRlLT5vVxSAJ+XezmR2KNZvNx6zYBfiUbX1BmDQAoVSTYRj0nAAAoTxuDJl6y7h9fS2p+Hprw63EbgNGvBQCAkjU0cGISyc0SOAEAAOV4Y86nXazKSGocNHnWo7v+aNCLoamtnq6cOLUoAACUqKmBk/xBEGseCAAAgDbfCLZjrsuorH2vMT2oOtPWPfxRwlobVkY6HbJOAAClambgxI6QPWLTxwIAAKBt9NNzJBy7++iLG9IUvmxnMPhabPSuaLGyIN2F6h5XDwCovYYGTqJE8poaUKoDAAB09c5ckdGDJols3FuRpnn0392H9IZiyU5XXvthQQAAKElDAyfpCEGQDoETAACgx5foiF2RkZkVaazIusdvRUtkCJwAAErTzMDJ9AiBk6bUDgMAgGqY7qzIyHy2yV3NE2iqpdPxjzXR6XVi3P//kwAAUJJmBk7yB0HINgEAAHp8tomRCzKyJmebSNbrJP2Lm3+ln4gGY2IBAKAkDT1VJ8gTDEkEAABAS6FsEzeH+WZaJ6BQaaFc545osKP2kQEA4HAETjxDxgkAAFBSONvE3pL+evPnJgPrH2sCAEDFNTdwYnNkkVg7/NcCAAAc5MjUshRirksbTKej9aUDAGDMmhs4MenDHF/9WAAAAFTYAtkmTrSpU75Sdcl9kbSTCAAAFdfgUh2TYweDjBMAAKAgHEFcsN9G8vt1AQAAldHkwEky9JdaQ5ooAAAobjpalGISQX6G5w0AUJ4G9zixwwdDbJoIAABAUUYWpAgCAKOxlrJrAEBpGhw4iZKhv3ZqQMYJAAAozpo3BcOJXYwpmu6KjkQAACjJlDTV1NNE0s5wX9t/NREAAICiTMH+Jm3y9Kn/uKCwjWfd/9YEAICSNLjHySvDZ5H018k4AQAAGmIpwopWBkb1GeMfOt9v50me0xQBAMiluYGTJARDhgmI0LkeAABURXsCJ5K6yEn6jhTX5yQiAECZGpxxEhweODFCtgkAAKiKWNrChMdbUpi9JQAAlKjZgRM7RKMwurADAIAqiU/F0nQ/PSWyOYileKDIuujLDQEAoETNDpyYdJh610QAAAB0JFLUIFqUppvuGPe4Ihq+mf5EAAAoUcNLdcwQZTg2EQAAAB3FS4BVylcqTq1MR1Zp8g8AKFvTAyfJoV9izQMBAABQkd6RwsySdBea2yS2d8Z9MJdEo0wnGvxGAAAoWcN7nETJ4V+T0uMEAAAoiTROd+nK0c1mZp2E3iZPZ90E7JIUtyrJ/UQAAChZswMn6SA59Gum6HECAACUDOyaaIjMZWmi3d4msRRDtgkAYGyaHTiZTg+veWWnAgAAaPnjPZ9xUrznhpVFmTm9JE3iS3SMuSRGLkhxZJsAAMbGCAAAAPT05q5u9fAoKpFvps82ovnpG3P+41npmM+kMPtAovRtAicAgHFpeHNYAACAMUujG6IjlqOb16TuQtDEuKBJ9KkUZ8XaXxE0AQCMU0cAAACg55t/S+TYTxbFFO7j4UtbTsnxvxF5/O+3pI52gibGBU2swklB9jfy6Iv/SwAAGCMCJwAAANqO/ceHLnCyLCrMYi2DJ76niW9yG8l191+vSFHGXJeNu/+7AAAwZgROAAAAtGlmnQQueHLsJ7FEb9ySH776QaqsG7swSbcrP5r+P9x/rYgKe1ui734u/X61v3cAQCPRHBYAAKAM8alY0s5t95lCicqORKy9LI/ufSJVNHPaf1wSE30gohU08s1gv/97SZL6N8kFANQSGScAAABl6P+pL8d/8hf32f8ierpizH8N2Sc//g935Ns/VSOYcOKMZBk25pp7/KOoBYt8pkn6v0ny/30lAABMCBknAAAAZeqdueoCABrHE7/Myqqk9kP54711mQQfMBFxARN7xc0qF0WTlZvS+e7nZJoAACaNwAkAAEDZZuZvqgcWnucDJ1dlc3BLvir5qN7tYEmULolEF3ROy3mRvSob994TAAAqgMAJAABA2eKFrqRPbrrPFqR862J9ICX9RFKTFMpGiU+FjzIwC2I6J8XaJTHu81KCJcHX7vEb2bh7VQAAqAgCJwAAAOPggyd28yOx5ryM37qb9fVd4CNxnz/c+Vm79bmRk898rQuQhF4qsfuFuMQgybOs+/+6RPKuJBMqOwIAYB8ETgAAAMapd2bFBQl+LczDtrmgiXlfNj5/XwAAqCBO1QEAABinx/+2Jsd/8th99j+6x19Je1n3vzXpDN6WhxU9XhkAAGGnAwAAYDLiU7Gk0adZOUyr5mRZwMSa38iXn68JAAAVR+AEAABgkmbmlt2M7NduWjYrzUbABABQSwROAAAAJi1kn0wti6S/aFgGit36SMAEAFBbBE4AAACqIgRQOksu0vDLmgdQsuwSY25I9O0/S5L0BQCAmiJwAgAAUEW+hCeS/yLWLG39TJXnbbuZJcbckujpx5LcTwQAgAYgcAIAAFBlcdyVwY+XtoIoi+5nulu/Msl5nN36MXGfrrn/uiWd7z8hswQA0EQETgAAAOoknluQNHpLTPqWC6TE7mcWXvgKzfmdfebzvvuvdTH2Tvixk94iqwQA0AYETgAAAOrOB1MGndgFNU6KpO5HOSmp6boffXbKdoZKvM/v7m89fJgkkcj6AIn/74fhvztyR+T7hGwSAEBb/f8Fhj7h1+MNYQAAAABJRU5ErkJggg==;" vertex="1" parent="1">
          <mxGeometry x="574.36" y="440" width="118.92" height="30" as="geometry" />
        </mxCell>
      </root>
    </mxGraphModel>
  </diagram>
</mxfile>
